<?xml version="1.0" encoding="utf-8" standalone="no"?>
<!DOCTYPE svg PUBLIC "-//W3C//DTD SVG 1.1//EN"
  "http://www.w3.org/Graphics/SVG/1.1/DTD/svg11.dtd">
<svg xmlns:xlink="http://www.w3.org/1999/xlink" width="2531.356025pt" height="35295.424275pt" viewBox="0 0 2531.356025 35295.424275" xmlns="http://www.w3.org/2000/svg" version="1.1">
 <metadata>
  <rdf:RDF xmlns:dc="http://purl.org/dc/elements/1.1/" xmlns:cc="http://creativecommons.org/ns#" xmlns:rdf="http://www.w3.org/1999/02/22-rdf-syntax-ns#">
   <cc:Work>
    <dc:type rdf:resource="http://purl.org/dc/dcmitype/StillImage"/>
    <dc:date>2026-09-03T02:26:41.141678</dc:date>
    <dc:format>image/svg+xml</dc:format>
    <dc:creator>
     <cc:Agent>
      <dc:title>Matplotlib v3.10.0, https://matplotlib.org/</dc:title>
     </cc:Agent>
    </dc:creator>
   </cc:Work>
  </rdf:RDF>
 </metadata>
 <defs>
  <style type="text/css">*{stroke-linejoin: round; stroke-linecap: butt}</style>
 </defs>
 <g id="figure_1">
  <g id="patch_1">
   <path d="M 0 35295.424275 
L 2531.356025 35295.424275 
L 2531.356025 0 
L 0 0 
z
" style="fill: #ffffff"/>
  </g>
  <g id="axes_1">
   <g id="patch_2">
    <path d="M 81.318164 345.154676 
L 487.136346 345.154676 
L 487.136346 12.514676 
L 81.318164 12.514676 
z
" style="fill: #ffffff"/>
   </g>
   <g id="matplotlib.axis_1">
    <g id="xtick_1">
     <g id="line2d_1">
      <path d="M 96.073934 345.154676 
L 96.073934 12.514676 
" clip-path="url(#p560dfd7e14)" style="fill: none; stroke: #cccccc; stroke-opacity: 0.3; stroke-linecap: round"/>
     </g>
     <g id="text_1">
      <!-- 0.42 -->
      <g style="fill: #262626" transform="translate(81.624187 365.284027) scale(0.1485 -0.1485)">
       <defs>
        <path id="ArialMT-30" d="M 266 2259 
Q 266 3072 433 3567 
Q 600 4063 929 4331 
Q 1259 4600 1759 4600 
Q 2128 4600 2406 4451 
Q 2684 4303 2865 4023 
Q 3047 3744 3150 3342 
Q 3253 2941 3253 2259 
Q 3253 1453 3087 958 
Q 2922 463 2592 192 
Q 2263 -78 1759 -78 
Q 1097 -78 719 397 
Q 266 969 266 2259 
z
M 844 2259 
Q 844 1131 1108 757 
Q 1372 384 1759 384 
Q 2147 384 2411 759 
Q 2675 1134 2675 2259 
Q 2675 3391 2411 3762 
Q 2147 4134 1753 4134 
Q 1366 4134 1134 3806 
Q 844 3388 844 2259 
z
" transform="scale(0.015625)"/>
        <path id="ArialMT-2e" d="M 581 0 
L 581 641 
L 1222 641 
L 1222 0 
L 581 0 
z
" transform="scale(0.015625)"/>
        <path id="ArialMT-34" d="M 2069 0 
L 2069 1097 
L 81 1097 
L 81 1613 
L 2172 4581 
L 2631 4581 
L 2631 1613 
L 3250 1613 
L 3250 1097 
L 2631 1097 
L 2631 0 
L 2069 0 
z
M 2069 1613 
L 2069 3678 
L 634 1613 
L 2069 1613 
z
" transform="scale(0.015625)"/>
        <path id="ArialMT-32" d="M 3222 541 
L 3222 0 
L 194 0 
Q 188 203 259 391 
Q 375 700 629 1000 
Q 884 1300 1366 1694 
Q 2113 2306 2375 2664 
Q 2638 3022 2638 3341 
Q 2638 3675 2398 3904 
Q 2159 4134 1775 4134 
Q 1369 4134 1125 3890 
Q 881 3647 878 3216 
L 300 3275 
Q 359 3922 746 4261 
Q 1134 4600 1788 4600 
Q 2447 4600 2831 4234 
Q 3216 3869 3216 3328 
Q 3216 3053 3103 2787 
Q 2991 2522 2730 2228 
Q 2469 1934 1863 1422 
Q 1356 997 1212 845 
Q 1069 694 975 541 
L 3222 541 
z
" transform="scale(0.015625)"/>
       </defs>
       <use xlink:href="#ArialMT-30"/>
       <use xlink:href="#ArialMT-2e" transform="translate(55.615234 0)"/>
       <use xlink:href="#ArialMT-34" transform="translate(83.398438 0)"/>
       <use xlink:href="#ArialMT-32" transform="translate(139.013672 0)"/>
      </g>
     </g>
    </g>
    <g id="xtick_2">
     <g id="line2d_2">
      <path d="M 158.837734 345.154676 
L 158.837734 12.514676 
" clip-path="url(#p560dfd7e14)" style="fill: none; stroke: #cccccc; stroke-opacity: 0.3; stroke-linecap: round"/>
     </g>
     <g id="text_2">
      <!-- 0.44 -->
      <g style="fill: #262626" transform="translate(144.387988 365.284027) scale(0.1485 -0.1485)">
       <use xlink:href="#ArialMT-30"/>
       <use xlink:href="#ArialMT-2e" transform="translate(55.615234 0)"/>
       <use xlink:href="#ArialMT-34" transform="translate(83.398438 0)"/>
       <use xlink:href="#ArialMT-34" transform="translate(139.013672 0)"/>
      </g>
     </g>
    </g>
    <g id="xtick_3">
     <g id="line2d_3">
      <path d="M 221.601535 345.154676 
L 221.601535 12.514676 
" clip-path="url(#p560dfd7e14)" style="fill: none; stroke: #cccccc; stroke-opacity: 0.3; stroke-linecap: round"/>
     </g>
     <g id="text_3">
      <!-- 0.46 -->
      <g style="fill: #262626" transform="translate(207.151789 365.284027) scale(0.1485 -0.1485)">
       <defs>
        <path id="ArialMT-36" d="M 3184 3459 
L 2625 3416 
Q 2550 3747 2413 3897 
Q 2184 4138 1850 4138 
Q 1581 4138 1378 3988 
Q 1113 3794 959 3422 
Q 806 3050 800 2363 
Q 1003 2672 1297 2822 
Q 1591 2972 1913 2972 
Q 2475 2972 2870 2558 
Q 3266 2144 3266 1488 
Q 3266 1056 3080 686 
Q 2894 316 2569 119 
Q 2244 -78 1831 -78 
Q 1128 -78 684 439 
Q 241 956 241 2144 
Q 241 3472 731 4075 
Q 1159 4600 1884 4600 
Q 2425 4600 2770 4297 
Q 3116 3994 3184 3459 
z
M 888 1484 
Q 888 1194 1011 928 
Q 1134 663 1356 523 
Q 1578 384 1822 384 
Q 2178 384 2434 671 
Q 2691 959 2691 1453 
Q 2691 1928 2437 2201 
Q 2184 2475 1800 2475 
Q 1419 2475 1153 2201 
Q 888 1928 888 1484 
z
" transform="scale(0.015625)"/>
       </defs>
       <use xlink:href="#ArialMT-30"/>
       <use xlink:href="#ArialMT-2e" transform="translate(55.615234 0)"/>
       <use xlink:href="#ArialMT-34" transform="translate(83.398438 0)"/>
       <use xlink:href="#ArialMT-36" transform="translate(139.013672 0)"/>
      </g>
     </g>
    </g>
    <g id="xtick_4">
     <g id="line2d_4">
      <path d="M 284.365335 345.154676 
L 284.365335 12.514676 
" clip-path="url(#p560dfd7e14)" style="fill: none; stroke: #cccccc; stroke-opacity: 0.3; stroke-linecap: round"/>
     </g>
     <g id="text_4">
      <!-- 0.48 -->
      <g style="fill: #262626" transform="translate(269.915589 365.284027) scale(0.1485 -0.1485)">
       <defs>
        <path id="ArialMT-38" d="M 1131 2484 
Q 781 2613 612 2850 
Q 444 3088 444 3419 
Q 444 3919 803 4259 
Q 1163 4600 1759 4600 
Q 2359 4600 2725 4251 
Q 3091 3903 3091 3403 
Q 3091 3084 2923 2848 
Q 2756 2613 2416 2484 
Q 2838 2347 3058 2040 
Q 3278 1734 3278 1309 
Q 3278 722 2862 322 
Q 2447 -78 1769 -78 
Q 1091 -78 675 323 
Q 259 725 259 1325 
Q 259 1772 486 2073 
Q 713 2375 1131 2484 
z
M 1019 3438 
Q 1019 3113 1228 2906 
Q 1438 2700 1772 2700 
Q 2097 2700 2305 2904 
Q 2513 3109 2513 3406 
Q 2513 3716 2298 3927 
Q 2084 4138 1766 4138 
Q 1444 4138 1231 3931 
Q 1019 3725 1019 3438 
z
M 838 1322 
Q 838 1081 952 856 
Q 1066 631 1291 507 
Q 1516 384 1775 384 
Q 2178 384 2440 643 
Q 2703 903 2703 1303 
Q 2703 1709 2433 1975 
Q 2163 2241 1756 2241 
Q 1359 2241 1098 1978 
Q 838 1716 838 1322 
z
" transform="scale(0.015625)"/>
       </defs>
       <use xlink:href="#ArialMT-30"/>
       <use xlink:href="#ArialMT-2e" transform="translate(55.615234 0)"/>
       <use xlink:href="#ArialMT-34" transform="translate(83.398438 0)"/>
       <use xlink:href="#ArialMT-38" transform="translate(139.013672 0)"/>
      </g>
     </g>
    </g>
    <g id="xtick_5">
     <g id="line2d_5">
      <path d="M 347.129136 345.154676 
L 347.129136 12.514676 
" clip-path="url(#p560dfd7e14)" style="fill: none; stroke: #cccccc; stroke-opacity: 0.3; stroke-linecap: round"/>
     </g>
     <g id="text_5">
      <!-- 0.50 -->
      <g style="fill: #262626" transform="translate(332.67939 365.284027) scale(0.1485 -0.1485)">
       <defs>
        <path id="ArialMT-35" d="M 266 1200 
L 856 1250 
Q 922 819 1161 601 
Q 1400 384 1738 384 
Q 2144 384 2425 690 
Q 2706 997 2706 1503 
Q 2706 1984 2436 2262 
Q 2166 2541 1728 2541 
Q 1456 2541 1237 2417 
Q 1019 2294 894 2097 
L 366 2166 
L 809 4519 
L 3088 4519 
L 3088 3981 
L 1259 3981 
L 1013 2750 
Q 1425 3038 1878 3038 
Q 2478 3038 2890 2622 
Q 3303 2206 3303 1553 
Q 3303 931 2941 478 
Q 2500 -78 1738 -78 
Q 1113 -78 717 272 
Q 322 622 266 1200 
z
" transform="scale(0.015625)"/>
       </defs>
       <use xlink:href="#ArialMT-30"/>
       <use xlink:href="#ArialMT-2e" transform="translate(55.615234 0)"/>
       <use xlink:href="#ArialMT-35" transform="translate(83.398438 0)"/>
       <use xlink:href="#ArialMT-30" transform="translate(139.013672 0)"/>
      </g>
     </g>
    </g>
    <g id="xtick_6">
     <g id="line2d_6">
      <path d="M 409.892937 345.154676 
L 409.892937 12.514676 
" clip-path="url(#p560dfd7e14)" style="fill: none; stroke: #cccccc; stroke-opacity: 0.3; stroke-linecap: round"/>
     </g>
     <g id="text_6">
      <!-- 0.52 -->
      <g style="fill: #262626" transform="translate(395.44319 365.284027) scale(0.1485 -0.1485)">
       <use xlink:href="#ArialMT-30"/>
       <use xlink:href="#ArialMT-2e" transform="translate(55.615234 0)"/>
       <use xlink:href="#ArialMT-35" transform="translate(83.398438 0)"/>
       <use xlink:href="#ArialMT-32" transform="translate(139.013672 0)"/>
      </g>
     </g>
    </g>
    <g id="xtick_7">
     <g id="line2d_7">
      <path d="M 472.656737 345.154676 
L 472.656737 12.514676 
" clip-path="url(#p560dfd7e14)" style="fill: none; stroke: #cccccc; stroke-opacity: 0.3; stroke-linecap: round"/>
     </g>
     <g id="text_7">
      <!-- 0.54 -->
      <g style="fill: #262626" transform="translate(458.206991 365.284027) scale(0.1485 -0.1485)">
       <use xlink:href="#ArialMT-30"/>
       <use xlink:href="#ArialMT-2e" transform="translate(55.615234 0)"/>
       <use xlink:href="#ArialMT-35" transform="translate(83.398438 0)"/>
       <use xlink:href="#ArialMT-34" transform="translate(139.013672 0)"/>
      </g>
     </g>
    </g>
   </g>
   <g id="matplotlib.axis_2">
    <g id="ytick_1">
     <g id="line2d_8">
      <path d="M 81.318164 336.060695 
L 487.136346 336.060695 
" clip-path="url(#p560dfd7e14)" style="fill: none; stroke: #cccccc; stroke-opacity: 0.3; stroke-linecap: round"/>
     </g>
     <g id="text_8">
      <!-- 0.4995 -->
      <g style="fill: #262626" transform="translate(26.402688 341.375371) scale(0.1485 -0.1485)">
       <defs>
        <path id="ArialMT-39" d="M 350 1059 
L 891 1109 
Q 959 728 1153 556 
Q 1347 384 1650 384 
Q 1909 384 2104 503 
Q 2300 622 2425 820 
Q 2550 1019 2634 1356 
Q 2719 1694 2719 2044 
Q 2719 2081 2716 2156 
Q 2547 1888 2255 1720 
Q 1963 1553 1622 1553 
Q 1053 1553 659 1965 
Q 266 2378 266 3053 
Q 266 3750 677 4175 
Q 1088 4600 1706 4600 
Q 2153 4600 2523 4359 
Q 2894 4119 3086 3673 
Q 3278 3228 3278 2384 
Q 3278 1506 3087 986 
Q 2897 466 2520 194 
Q 2144 -78 1638 -78 
Q 1100 -78 759 220 
Q 419 519 350 1059 
z
M 2653 3081 
Q 2653 3566 2395 3850 
Q 2138 4134 1775 4134 
Q 1400 4134 1122 3828 
Q 844 3522 844 3034 
Q 844 2597 1108 2323 
Q 1372 2050 1759 2050 
Q 2150 2050 2401 2323 
Q 2653 2597 2653 3081 
z
" transform="scale(0.015625)"/>
       </defs>
       <use xlink:href="#ArialMT-30"/>
       <use xlink:href="#ArialMT-2e" transform="translate(55.615234 0)"/>
       <use xlink:href="#ArialMT-34" transform="translate(83.398438 0)"/>
       <use xlink:href="#ArialMT-39" transform="translate(139.013672 0)"/>
       <use xlink:href="#ArialMT-39" transform="translate(194.628906 0)"/>
       <use xlink:href="#ArialMT-35" transform="translate(250.244141 0)"/>
      </g>
     </g>
    </g>
    <g id="ytick_2">
     <g id="line2d_9">
      <path d="M 81.318164 297.185363 
L 487.136346 297.185363 
" clip-path="url(#p560dfd7e14)" style="fill: none; stroke: #cccccc; stroke-opacity: 0.3; stroke-linecap: round"/>
     </g>
     <g id="text_9">
      <!-- 0.5000 -->
      <g style="fill: #262626" transform="translate(26.402688 302.500039) scale(0.1485 -0.1485)">
       <use xlink:href="#ArialMT-30"/>
       <use xlink:href="#ArialMT-2e" transform="translate(55.615234 0)"/>
       <use xlink:href="#ArialMT-35" transform="translate(83.398438 0)"/>
       <use xlink:href="#ArialMT-30" transform="translate(139.013672 0)"/>
       <use xlink:href="#ArialMT-30" transform="translate(194.628906 0)"/>
       <use xlink:href="#ArialMT-30" transform="translate(250.244141 0)"/>
      </g>
     </g>
    </g>
    <g id="ytick_3">
     <g id="line2d_10">
      <path d="M 81.318164 258.310031 
L 487.136346 258.310031 
" clip-path="url(#p560dfd7e14)" style="fill: none; stroke: #cccccc; stroke-opacity: 0.3; stroke-linecap: round"/>
     </g>
     <g id="text_10">
      <!-- 0.5005 -->
      <g style="fill: #262626" transform="translate(26.402688 263.624707) scale(0.1485 -0.1485)">
       <use xlink:href="#ArialMT-30"/>
       <use xlink:href="#ArialMT-2e" transform="translate(55.615234 0)"/>
       <use xlink:href="#ArialMT-35" transform="translate(83.398438 0)"/>
       <use xlink:href="#ArialMT-30" transform="translate(139.013672 0)"/>
       <use xlink:href="#ArialMT-30" transform="translate(194.628906 0)"/>
       <use xlink:href="#ArialMT-35" transform="translate(250.244141 0)"/>
      </g>
     </g>
    </g>
    <g id="ytick_4">
     <g id="line2d_11">
      <path d="M 81.318164 219.434699 
L 487.136346 219.434699 
" clip-path="url(#p560dfd7e14)" style="fill: none; stroke: #cccccc; stroke-opacity: 0.3; stroke-linecap: round"/>
     </g>
     <g id="text_11">
      <!-- 0.5010 -->
      <g style="fill: #262626" transform="translate(26.402688 224.749375) scale(0.1485 -0.1485)">
       <defs>
        <path id="ArialMT-31" d="M 2384 0 
L 1822 0 
L 1822 3584 
Q 1619 3391 1289 3197 
Q 959 3003 697 2906 
L 697 3450 
Q 1169 3672 1522 3987 
Q 1875 4303 2022 4600 
L 2384 4600 
L 2384 0 
z
" transform="scale(0.015625)"/>
       </defs>
       <use xlink:href="#ArialMT-30"/>
       <use xlink:href="#ArialMT-2e" transform="translate(55.615234 0)"/>
       <use xlink:href="#ArialMT-35" transform="translate(83.398438 0)"/>
       <use xlink:href="#ArialMT-30" transform="translate(139.013672 0)"/>
       <use xlink:href="#ArialMT-31" transform="translate(194.628906 0)"/>
       <use xlink:href="#ArialMT-30" transform="translate(250.244141 0)"/>
      </g>
     </g>
    </g>
    <g id="ytick_5">
     <g id="line2d_12">
      <path d="M 81.318164 180.559367 
L 487.136346 180.559367 
" clip-path="url(#p560dfd7e14)" style="fill: none; stroke: #cccccc; stroke-opacity: 0.3; stroke-linecap: round"/>
     </g>
     <g id="text_12">
      <!-- 0.5015 -->
      <g style="fill: #262626" transform="translate(26.402688 185.874043) scale(0.1485 -0.1485)">
       <use xlink:href="#ArialMT-30"/>
       <use xlink:href="#ArialMT-2e" transform="translate(55.615234 0)"/>
       <use xlink:href="#ArialMT-35" transform="translate(83.398438 0)"/>
       <use xlink:href="#ArialMT-30" transform="translate(139.013672 0)"/>
       <use xlink:href="#ArialMT-31" transform="translate(194.628906 0)"/>
       <use xlink:href="#ArialMT-35" transform="translate(250.244141 0)"/>
      </g>
     </g>
    </g>
    <g id="ytick_6">
     <g id="line2d_13">
      <path d="M 81.318164 141.684035 
L 487.136346 141.684035 
" clip-path="url(#p560dfd7e14)" style="fill: none; stroke: #cccccc; stroke-opacity: 0.3; stroke-linecap: round"/>
     </g>
     <g id="text_13">
      <!-- 0.5020 -->
      <g style="fill: #262626" transform="translate(26.402688 146.99871) scale(0.1485 -0.1485)">
       <use xlink:href="#ArialMT-30"/>
       <use xlink:href="#ArialMT-2e" transform="translate(55.615234 0)"/>
       <use xlink:href="#ArialMT-35" transform="translate(83.398438 0)"/>
       <use xlink:href="#ArialMT-30" transform="translate(139.013672 0)"/>
       <use xlink:href="#ArialMT-32" transform="translate(194.628906 0)"/>
       <use xlink:href="#ArialMT-30" transform="translate(250.244141 0)"/>
      </g>
     </g>
    </g>
    <g id="ytick_7">
     <g id="line2d_14">
      <path d="M 81.318164 102.808703 
L 487.136346 102.808703 
" clip-path="url(#p560dfd7e14)" style="fill: none; stroke: #cccccc; stroke-opacity: 0.3; stroke-linecap: round"/>
     </g>
     <g id="text_14">
      <!-- 0.5025 -->
      <g style="fill: #262626" transform="translate(26.402688 108.123378) scale(0.1485 -0.1485)">
       <use xlink:href="#ArialMT-30"/>
       <use xlink:href="#ArialMT-2e" transform="translate(55.615234 0)"/>
       <use xlink:href="#ArialMT-35" transform="translate(83.398438 0)"/>
       <use xlink:href="#ArialMT-30" transform="translate(139.013672 0)"/>
       <use xlink:href="#ArialMT-32" transform="translate(194.628906 0)"/>
       <use xlink:href="#ArialMT-35" transform="translate(250.244141 0)"/>
      </g>
     </g>
    </g>
    <g id="ytick_8">
     <g id="line2d_15">
      <path d="M 81.318164 63.93337 
L 487.136346 63.93337 
" clip-path="url(#p560dfd7e14)" style="fill: none; stroke: #cccccc; stroke-opacity: 0.3; stroke-linecap: round"/>
     </g>
     <g id="text_15">
      <!-- 0.5030 -->
      <g style="fill: #262626" transform="translate(26.402688 69.248046) scale(0.1485 -0.1485)">
       <defs>
        <path id="ArialMT-33" d="M 269 1209 
L 831 1284 
Q 928 806 1161 595 
Q 1394 384 1728 384 
Q 2125 384 2398 659 
Q 2672 934 2672 1341 
Q 2672 1728 2419 1979 
Q 2166 2231 1775 2231 
Q 1616 2231 1378 2169 
L 1441 2663 
Q 1497 2656 1531 2656 
Q 1891 2656 2178 2843 
Q 2466 3031 2466 3422 
Q 2466 3731 2256 3934 
Q 2047 4138 1716 4138 
Q 1388 4138 1169 3931 
Q 950 3725 888 3313 
L 325 3413 
Q 428 3978 793 4289 
Q 1159 4600 1703 4600 
Q 2078 4600 2393 4439 
Q 2709 4278 2876 4000 
Q 3044 3722 3044 3409 
Q 3044 3113 2884 2869 
Q 2725 2625 2413 2481 
Q 2819 2388 3044 2092 
Q 3269 1797 3269 1353 
Q 3269 753 2831 336 
Q 2394 -81 1725 -81 
Q 1122 -81 723 278 
Q 325 638 269 1209 
z
" transform="scale(0.015625)"/>
       </defs>
       <use xlink:href="#ArialMT-30"/>
       <use xlink:href="#ArialMT-2e" transform="translate(55.615234 0)"/>
       <use xlink:href="#ArialMT-35" transform="translate(83.398438 0)"/>
       <use xlink:href="#ArialMT-30" transform="translate(139.013672 0)"/>
       <use xlink:href="#ArialMT-33" transform="translate(194.628906 0)"/>
       <use xlink:href="#ArialMT-30" transform="translate(250.244141 0)"/>
      </g>
     </g>
    </g>
    <g id="ytick_9">
     <g id="line2d_16">
      <path d="M 81.318164 25.058038 
L 487.136346 25.058038 
" clip-path="url(#p560dfd7e14)" style="fill: none; stroke: #cccccc; stroke-opacity: 0.3; stroke-linecap: round"/>
     </g>
     <g id="text_16">
      <!-- 0.5035 -->
      <g style="fill: #262626" transform="translate(26.402688 30.372714) scale(0.1485 -0.1485)">
       <use xlink:href="#ArialMT-30"/>
       <use xlink:href="#ArialMT-2e" transform="translate(55.615234 0)"/>
       <use xlink:href="#ArialMT-35" transform="translate(83.398438 0)"/>
       <use xlink:href="#ArialMT-30" transform="translate(139.013672 0)"/>
       <use xlink:href="#ArialMT-33" transform="translate(194.628906 0)"/>
       <use xlink:href="#ArialMT-35" transform="translate(250.244141 0)"/>
      </g>
     </g>
    </g>
    <g id="text_17">
     <!-- Average member probability (forget set) -->
     <g style="fill: #262626" transform="translate(18.993094 321.39341) rotate(-90) scale(0.162 -0.162)">
      <defs>
       <path id="ArialMT-41" d="M -9 0 
L 1750 4581 
L 2403 4581 
L 4278 0 
L 3588 0 
L 3053 1388 
L 1138 1388 
L 634 0 
L -9 0 
z
M 1313 1881 
L 2866 1881 
L 2388 3150 
Q 2169 3728 2063 4100 
Q 1975 3659 1816 3225 
L 1313 1881 
z
" transform="scale(0.015625)"/>
       <path id="ArialMT-76" d="M 1344 0 
L 81 3319 
L 675 3319 
L 1388 1331 
Q 1503 1009 1600 663 
Q 1675 925 1809 1294 
L 2547 3319 
L 3125 3319 
L 1869 0 
L 1344 0 
z
" transform="scale(0.015625)"/>
       <path id="ArialMT-65" d="M 2694 1069 
L 3275 997 
Q 3138 488 2766 206 
Q 2394 -75 1816 -75 
Q 1088 -75 661 373 
Q 234 822 234 1631 
Q 234 2469 665 2931 
Q 1097 3394 1784 3394 
Q 2450 3394 2872 2941 
Q 3294 2488 3294 1666 
Q 3294 1616 3291 1516 
L 816 1516 
Q 847 969 1125 678 
Q 1403 388 1819 388 
Q 2128 388 2347 550 
Q 2566 713 2694 1069 
z
M 847 1978 
L 2700 1978 
Q 2663 2397 2488 2606 
Q 2219 2931 1791 2931 
Q 1403 2931 1139 2672 
Q 875 2413 847 1978 
z
" transform="scale(0.015625)"/>
       <path id="ArialMT-72" d="M 416 0 
L 416 3319 
L 922 3319 
L 922 2816 
Q 1116 3169 1280 3281 
Q 1444 3394 1641 3394 
Q 1925 3394 2219 3213 
L 2025 2691 
Q 1819 2813 1613 2813 
Q 1428 2813 1281 2702 
Q 1134 2591 1072 2394 
Q 978 2094 978 1738 
L 978 0 
L 416 0 
z
" transform="scale(0.015625)"/>
       <path id="ArialMT-61" d="M 2588 409 
Q 2275 144 1986 34 
Q 1697 -75 1366 -75 
Q 819 -75 525 192 
Q 231 459 231 875 
Q 231 1119 342 1320 
Q 453 1522 633 1644 
Q 813 1766 1038 1828 
Q 1203 1872 1538 1913 
Q 2219 1994 2541 2106 
Q 2544 2222 2544 2253 
Q 2544 2597 2384 2738 
Q 2169 2928 1744 2928 
Q 1347 2928 1158 2789 
Q 969 2650 878 2297 
L 328 2372 
Q 403 2725 575 2942 
Q 747 3159 1072 3276 
Q 1397 3394 1825 3394 
Q 2250 3394 2515 3294 
Q 2781 3194 2906 3042 
Q 3031 2891 3081 2659 
Q 3109 2516 3109 2141 
L 3109 1391 
Q 3109 606 3145 398 
Q 3181 191 3288 0 
L 2700 0 
Q 2613 175 2588 409 
z
M 2541 1666 
Q 2234 1541 1622 1453 
Q 1275 1403 1131 1340 
Q 988 1278 909 1158 
Q 831 1038 831 891 
Q 831 666 1001 516 
Q 1172 366 1500 366 
Q 1825 366 2078 508 
Q 2331 650 2450 897 
Q 2541 1088 2541 1459 
L 2541 1666 
z
" transform="scale(0.015625)"/>
       <path id="ArialMT-67" d="M 319 -275 
L 866 -356 
Q 900 -609 1056 -725 
Q 1266 -881 1628 -881 
Q 2019 -881 2231 -725 
Q 2444 -569 2519 -288 
Q 2563 -116 2559 434 
Q 2191 0 1641 0 
Q 956 0 581 494 
Q 206 988 206 1678 
Q 206 2153 378 2554 
Q 550 2956 876 3175 
Q 1203 3394 1644 3394 
Q 2231 3394 2613 2919 
L 2613 3319 
L 3131 3319 
L 3131 450 
Q 3131 -325 2973 -648 
Q 2816 -972 2473 -1159 
Q 2131 -1347 1631 -1347 
Q 1038 -1347 672 -1080 
Q 306 -813 319 -275 
z
M 784 1719 
Q 784 1066 1043 766 
Q 1303 466 1694 466 
Q 2081 466 2343 764 
Q 2606 1063 2606 1700 
Q 2606 2309 2336 2618 
Q 2066 2928 1684 2928 
Q 1309 2928 1046 2623 
Q 784 2319 784 1719 
z
" transform="scale(0.015625)"/>
       <path id="ArialMT-20" transform="scale(0.015625)"/>
       <path id="ArialMT-6d" d="M 422 0 
L 422 3319 
L 925 3319 
L 925 2853 
Q 1081 3097 1340 3245 
Q 1600 3394 1931 3394 
Q 2300 3394 2536 3241 
Q 2772 3088 2869 2813 
Q 3263 3394 3894 3394 
Q 4388 3394 4653 3120 
Q 4919 2847 4919 2278 
L 4919 0 
L 4359 0 
L 4359 2091 
Q 4359 2428 4304 2576 
Q 4250 2725 4106 2815 
Q 3963 2906 3769 2906 
Q 3419 2906 3187 2673 
Q 2956 2441 2956 1928 
L 2956 0 
L 2394 0 
L 2394 2156 
Q 2394 2531 2256 2718 
Q 2119 2906 1806 2906 
Q 1569 2906 1367 2781 
Q 1166 2656 1075 2415 
Q 984 2175 984 1722 
L 984 0 
L 422 0 
z
" transform="scale(0.015625)"/>
       <path id="ArialMT-62" d="M 941 0 
L 419 0 
L 419 4581 
L 981 4581 
L 981 2947 
Q 1338 3394 1891 3394 
Q 2197 3394 2470 3270 
Q 2744 3147 2920 2923 
Q 3097 2700 3197 2384 
Q 3297 2069 3297 1709 
Q 3297 856 2875 390 
Q 2453 -75 1863 -75 
Q 1275 -75 941 416 
L 941 0 
z
M 934 1684 
Q 934 1088 1097 822 
Q 1363 388 1816 388 
Q 2184 388 2453 708 
Q 2722 1028 2722 1663 
Q 2722 2313 2464 2622 
Q 2206 2931 1841 2931 
Q 1472 2931 1203 2611 
Q 934 2291 934 1684 
z
" transform="scale(0.015625)"/>
       <path id="ArialMT-70" d="M 422 -1272 
L 422 3319 
L 934 3319 
L 934 2888 
Q 1116 3141 1344 3267 
Q 1572 3394 1897 3394 
Q 2322 3394 2647 3175 
Q 2972 2956 3137 2557 
Q 3303 2159 3303 1684 
Q 3303 1175 3120 767 
Q 2938 359 2589 142 
Q 2241 -75 1856 -75 
Q 1575 -75 1351 44 
Q 1128 163 984 344 
L 984 -1272 
L 422 -1272 
z
M 931 1641 
Q 931 1000 1190 694 
Q 1450 388 1819 388 
Q 2194 388 2461 705 
Q 2728 1022 2728 1688 
Q 2728 2322 2467 2637 
Q 2206 2953 1844 2953 
Q 1484 2953 1207 2617 
Q 931 2281 931 1641 
z
" transform="scale(0.015625)"/>
       <path id="ArialMT-6f" d="M 213 1659 
Q 213 2581 725 3025 
Q 1153 3394 1769 3394 
Q 2453 3394 2887 2945 
Q 3322 2497 3322 1706 
Q 3322 1066 3130 698 
Q 2938 331 2570 128 
Q 2203 -75 1769 -75 
Q 1072 -75 642 372 
Q 213 819 213 1659 
z
M 791 1659 
Q 791 1022 1069 705 
Q 1347 388 1769 388 
Q 2188 388 2466 706 
Q 2744 1025 2744 1678 
Q 2744 2294 2464 2611 
Q 2184 2928 1769 2928 
Q 1347 2928 1069 2612 
Q 791 2297 791 1659 
z
" transform="scale(0.015625)"/>
       <path id="ArialMT-69" d="M 425 3934 
L 425 4581 
L 988 4581 
L 988 3934 
L 425 3934 
z
M 425 0 
L 425 3319 
L 988 3319 
L 988 0 
L 425 0 
z
" transform="scale(0.015625)"/>
       <path id="ArialMT-6c" d="M 409 0 
L 409 4581 
L 972 4581 
L 972 0 
L 409 0 
z
" transform="scale(0.015625)"/>
       <path id="ArialMT-74" d="M 1650 503 
L 1731 6 
Q 1494 -44 1306 -44 
Q 1000 -44 831 53 
Q 663 150 594 308 
Q 525 466 525 972 
L 525 2881 
L 113 2881 
L 113 3319 
L 525 3319 
L 525 4141 
L 1084 4478 
L 1084 3319 
L 1650 3319 
L 1650 2881 
L 1084 2881 
L 1084 941 
Q 1084 700 1114 631 
Q 1144 563 1211 522 
Q 1278 481 1403 481 
Q 1497 481 1650 503 
z
" transform="scale(0.015625)"/>
       <path id="ArialMT-79" d="M 397 -1278 
L 334 -750 
Q 519 -800 656 -800 
Q 844 -800 956 -737 
Q 1069 -675 1141 -563 
Q 1194 -478 1313 -144 
Q 1328 -97 1363 -6 
L 103 3319 
L 709 3319 
L 1400 1397 
Q 1534 1031 1641 628 
Q 1738 1016 1872 1384 
L 2581 3319 
L 3144 3319 
L 1881 -56 
Q 1678 -603 1566 -809 
Q 1416 -1088 1222 -1217 
Q 1028 -1347 759 -1347 
Q 597 -1347 397 -1278 
z
" transform="scale(0.015625)"/>
       <path id="ArialMT-28" d="M 1497 -1347 
Q 1031 -759 709 28 
Q 388 816 388 1659 
Q 388 2403 628 3084 
Q 909 3875 1497 4659 
L 1900 4659 
Q 1522 4009 1400 3731 
Q 1209 3300 1100 2831 
Q 966 2247 966 1656 
Q 966 153 1900 -1347 
L 1497 -1347 
z
" transform="scale(0.015625)"/>
       <path id="ArialMT-66" d="M 556 0 
L 556 2881 
L 59 2881 
L 59 3319 
L 556 3319 
L 556 3672 
Q 556 4006 616 4169 
Q 697 4388 901 4523 
Q 1106 4659 1475 4659 
Q 1713 4659 2000 4603 
L 1916 4113 
Q 1741 4144 1584 4144 
Q 1328 4144 1222 4034 
Q 1116 3925 1116 3625 
L 1116 3319 
L 1763 3319 
L 1763 2881 
L 1116 2881 
L 1116 0 
L 556 0 
z
" transform="scale(0.015625)"/>
       <path id="ArialMT-73" d="M 197 991 
L 753 1078 
Q 800 744 1014 566 
Q 1228 388 1613 388 
Q 2000 388 2187 545 
Q 2375 703 2375 916 
Q 2375 1106 2209 1216 
Q 2094 1291 1634 1406 
Q 1016 1563 777 1677 
Q 538 1791 414 1992 
Q 291 2194 291 2438 
Q 291 2659 392 2848 
Q 494 3038 669 3163 
Q 800 3259 1026 3326 
Q 1253 3394 1513 3394 
Q 1903 3394 2198 3281 
Q 2494 3169 2634 2976 
Q 2775 2784 2828 2463 
L 2278 2388 
Q 2241 2644 2061 2787 
Q 1881 2931 1553 2931 
Q 1166 2931 1000 2803 
Q 834 2675 834 2503 
Q 834 2394 903 2306 
Q 972 2216 1119 2156 
Q 1203 2125 1616 2013 
Q 2213 1853 2448 1751 
Q 2684 1650 2818 1456 
Q 2953 1263 2953 975 
Q 2953 694 2789 445 
Q 2625 197 2315 61 
Q 2006 -75 1616 -75 
Q 969 -75 630 194 
Q 291 463 197 991 
z
" transform="scale(0.015625)"/>
       <path id="ArialMT-29" d="M 791 -1347 
L 388 -1347 
Q 1322 153 1322 1656 
Q 1322 2244 1188 2822 
Q 1081 3291 891 3722 
Q 769 4003 388 4659 
L 791 4659 
Q 1378 3875 1659 3084 
Q 1900 2403 1900 1659 
Q 1900 816 1576 28 
Q 1253 -759 791 -1347 
z
" transform="scale(0.015625)"/>
      </defs>
      <use xlink:href="#ArialMT-41"/>
      <use xlink:href="#ArialMT-76" transform="translate(64.949219 0)"/>
      <use xlink:href="#ArialMT-65" transform="translate(114.949219 0)"/>
      <use xlink:href="#ArialMT-72" transform="translate(170.564453 0)"/>
      <use xlink:href="#ArialMT-61" transform="translate(203.865234 0)"/>
      <use xlink:href="#ArialMT-67" transform="translate(259.480469 0)"/>
      <use xlink:href="#ArialMT-65" transform="translate(315.095703 0)"/>
      <use xlink:href="#ArialMT-20" transform="translate(370.710938 0)"/>
      <use xlink:href="#ArialMT-6d" transform="translate(398.494141 0)"/>
      <use xlink:href="#ArialMT-65" transform="translate(481.794922 0)"/>
      <use xlink:href="#ArialMT-6d" transform="translate(537.410156 0)"/>
      <use xlink:href="#ArialMT-62" transform="translate(620.710938 0)"/>
      <use xlink:href="#ArialMT-65" transform="translate(676.326172 0)"/>
      <use xlink:href="#ArialMT-72" transform="translate(731.941406 0)"/>
      <use xlink:href="#ArialMT-20" transform="translate(765.242188 0)"/>
      <use xlink:href="#ArialMT-70" transform="translate(793.025391 0)"/>
      <use xlink:href="#ArialMT-72" transform="translate(848.640625 0)"/>
      <use xlink:href="#ArialMT-6f" transform="translate(881.941406 0)"/>
      <use xlink:href="#ArialMT-62" transform="translate(937.556641 0)"/>
      <use xlink:href="#ArialMT-61" transform="translate(993.171875 0)"/>
      <use xlink:href="#ArialMT-62" transform="translate(1048.787109 0)"/>
      <use xlink:href="#ArialMT-69" transform="translate(1104.402344 0)"/>
      <use xlink:href="#ArialMT-6c" transform="translate(1126.619141 0)"/>
      <use xlink:href="#ArialMT-69" transform="translate(1148.835938 0)"/>
      <use xlink:href="#ArialMT-74" transform="translate(1171.052734 0)"/>
      <use xlink:href="#ArialMT-79" transform="translate(1198.835938 0)"/>
      <use xlink:href="#ArialMT-20" transform="translate(1248.835938 0)"/>
      <use xlink:href="#ArialMT-28" transform="translate(1276.619141 0)"/>
      <use xlink:href="#ArialMT-66" transform="translate(1309.919922 0)"/>
      <use xlink:href="#ArialMT-6f" transform="translate(1337.703125 0)"/>
      <use xlink:href="#ArialMT-72" transform="translate(1393.318359 0)"/>
      <use xlink:href="#ArialMT-67" transform="translate(1426.619141 0)"/>
      <use xlink:href="#ArialMT-65" transform="translate(1482.234375 0)"/>
      <use xlink:href="#ArialMT-74" transform="translate(1537.849609 0)"/>
      <use xlink:href="#ArialMT-20" transform="translate(1565.632812 0)"/>
      <use xlink:href="#ArialMT-73" transform="translate(1593.416016 0)"/>
      <use xlink:href="#ArialMT-65" transform="translate(1643.416016 0)"/>
      <use xlink:href="#ArialMT-74" transform="translate(1699.03125 0)"/>
      <use xlink:href="#ArialMT-29" transform="translate(1726.814453 0)"/>
     </g>
    </g>
   </g>
   <g id="PathCollection_1">
    <path d="M 265.109401 175.987674 
L 269.581537 167.043402 
L 260.637265 167.043402 
z
" clip-path="url(#p560dfd7e14)" style="fill: #d62728; fill-opacity: 0.7; stroke: #d62728; stroke-opacity: 0.7; stroke-width: 0.715542"/>
    <path d="M 347.631246 217.716787 
L 352.103382 208.772515 
L 343.15911 208.772515 
z
" clip-path="url(#p560dfd7e14)" style="fill: #d62728; fill-opacity: 0.7; stroke: #d62728; stroke-opacity: 0.7; stroke-width: 0.715542"/>
    <path d="M 336.506148 310.93798 
L 345.450419 310.93798 
L 345.450419 301.993708 
L 336.506148 301.993708 
z
" clip-path="url(#p560dfd7e14)" style="fill: #aec7e8; fill-opacity: 0.7; stroke: #aec7e8; stroke-opacity: 0.7; stroke-width: 0.715542"/>
    <path d="M 315.14135 311.30475 
L 324.085622 311.30475 
L 324.085622 302.360478 
L 315.14135 302.360478 
z
" clip-path="url(#p560dfd7e14)" style="fill: #aec7e8; fill-opacity: 0.7; stroke: #aec7e8; stroke-opacity: 0.7; stroke-width: 0.715542"/>
    <path d="M 363.09457 291.991123 
L 365.330638 289.755055 
L 367.566706 291.991123 
L 369.802774 289.755055 
L 367.566706 287.518987 
L 369.802774 285.282919 
L 367.566706 283.046851 
L 365.330638 285.282919 
L 363.09457 283.046851 
L 360.858502 285.282919 
L 363.09457 287.518987 
L 360.858502 289.755055 
z
" clip-path="url(#p560dfd7e14)" style="fill: #98df8a; fill-opacity: 0.7; stroke: #98df8a; stroke-opacity: 0.7; stroke-width: 0.715542"/>
    <path d="M 252.58007 257.44923 
L 254.816138 255.213162 
L 257.052206 257.44923 
L 259.288274 255.213162 
L 257.052206 252.977094 
L 259.288274 250.741026 
L 257.052206 248.504958 
L 254.816138 250.741026 
L 252.58007 248.504958 
L 250.344002 250.741026 
L 252.58007 252.977094 
L 250.344002 255.213162 
z
" clip-path="url(#p560dfd7e14)" style="fill: #98df8a; fill-opacity: 0.7; stroke: #98df8a; stroke-opacity: 0.7; stroke-width: 0.715542"/>
    <path d="M 402.562125 290.887903 
L 398.089989 299.832175 
L 407.034261 299.832175 
z
" clip-path="url(#p560dfd7e14)" style="fill: #ff7f0e; fill-opacity: 0.7; stroke: #ff7f0e; stroke-opacity: 0.7; stroke-width: 0.715542"/>
    <path d="M 335.078486 296.5672 
L 330.60635 305.511472 
L 339.550622 305.511472 
z
" clip-path="url(#p560dfd7e14)" style="fill: #ff7f0e; fill-opacity: 0.7; stroke: #ff7f0e; stroke-opacity: 0.7; stroke-width: 0.715542"/>
    <path d="M 388.854511 308.192112 
C 390.040535 308.192112 391.178142 307.720899 392.016788 306.882253 
C 392.855434 306.043608 393.326647 304.906 393.326647 303.719976 
C 393.326647 302.533951 392.855434 301.396344 392.016788 300.557698 
C 391.178142 299.719052 390.040535 299.24784 388.854511 299.24784 
C 387.668486 299.24784 386.530879 299.719052 385.692233 300.557698 
C 384.853587 301.396344 384.382375 302.533951 384.382375 303.719976 
C 384.382375 304.906 384.853587 306.043608 385.692233 306.882253 
C 386.530879 307.720899 387.668486 308.192112 388.854511 308.192112 
z
" clip-path="url(#p560dfd7e14)" style="fill: #1f77b4; fill-opacity: 0.7; stroke: #1f77b4; stroke-opacity: 0.7; stroke-width: 0.715542"/>
    <path d="M 342.73567 312.717433 
C 343.921694 312.717433 345.059302 312.246221 345.897948 311.407575 
C 346.736593 310.568929 347.207806 309.431322 347.207806 308.245298 
C 347.207806 307.059273 346.736593 305.921666 345.897948 305.08302 
C 345.059302 304.244374 343.921694 303.773162 342.73567 303.773162 
C 341.549646 303.773162 340.412038 304.244374 339.573392 305.08302 
C 338.734746 305.921666 338.263534 307.059273 338.263534 308.245298 
C 338.263534 309.431322 338.734746 310.568929 339.573392 311.407575 
C 340.412038 312.246221 341.549646 312.717433 342.73567 312.717433 
z
" clip-path="url(#p560dfd7e14)" style="fill: #1f77b4; fill-opacity: 0.7; stroke: #1f77b4; stroke-opacity: 0.7; stroke-width: 0.715542"/>
    <path d="M 149.965999 293.313616 
L 152.947423 293.313616 
L 152.947423 290.332192 
L 155.928847 290.332192 
L 155.928847 287.350768 
L 152.947423 287.350768 
L 152.947423 284.369344 
L 149.965999 284.369344 
L 149.965999 287.350768 
L 146.984575 287.350768 
L 146.984575 290.332192 
L 149.965999 290.332192 
z
" clip-path="url(#p560dfd7e14)" style="fill: #2ca02c; fill-opacity: 0.7; stroke: #2ca02c; stroke-opacity: 0.7; stroke-width: 0.715542"/>
    <path d="M 311.670655 307.458829 
L 314.652079 307.458829 
L 314.652079 304.477405 
L 317.633503 304.477405 
L 317.633503 301.495981 
L 314.652079 301.495981 
L 314.652079 298.514557 
L 311.670655 298.514557 
L 311.670655 301.495981 
L 308.689231 301.495981 
L 308.689231 304.477405 
L 311.670655 304.477405 
z
" clip-path="url(#p560dfd7e14)" style="fill: #2ca02c; fill-opacity: 0.7; stroke: #2ca02c; stroke-opacity: 0.7; stroke-width: 0.715542"/>
    <path d="M 140.058805 274.353131 
L 146.38336 268.028576 
L 140.058805 261.70402 
L 133.73425 268.028576 
z
" clip-path="url(#p560dfd7e14)" style="fill: #ffbb78; fill-opacity: 0.7; stroke: #ffbb78; stroke-opacity: 0.7; stroke-width: 0.715542"/>
    <path d="M 460.204399 313.708388 
L 466.528954 307.383833 
L 460.204399 301.059277 
L 453.879844 307.383833 
z
" clip-path="url(#p560dfd7e14)" style="fill: #ffbb78; fill-opacity: 0.7; stroke: #ffbb78; stroke-opacity: 0.7; stroke-width: 0.715542"/>
    <path d="M 217.308491 278.367036 
L 223.633046 272.042481 
L 217.308491 265.717925 
L 210.983935 272.042481 
z
" clip-path="url(#p560dfd7e14)" style="fill: #ffbb78; fill-opacity: 0.7; stroke: #ffbb78; stroke-opacity: 0.7; stroke-width: 0.715542"/>
    <path d="M 388.57835 309.581936 
L 394.902905 303.257381 
L 388.57835 296.932825 
L 382.253795 303.257381 
z
" clip-path="url(#p560dfd7e14)" style="fill: #ffbb78; fill-opacity: 0.7; stroke: #ffbb78; stroke-opacity: 0.7; stroke-width: 0.715542"/>
    <path d="M 467.309261 32.106812 
L 471.781397 23.16254 
L 462.837125 23.16254 
z
" clip-path="url(#p560dfd7e14)" style="fill: #d62728; fill-opacity: 0.7; stroke: #d62728; stroke-opacity: 0.7; stroke-width: 0.715542"/>
    <path d="M 468.690065 260.789449 
L 473.162201 251.845178 
L 464.217929 251.845178 
z
" clip-path="url(#p560dfd7e14)" style="fill: #d62728; fill-opacity: 0.7; stroke: #d62728; stroke-opacity: 0.7; stroke-width: 0.715542"/>
    <path d="M 296.638581 310.496779 
L 305.582853 310.496779 
L 305.582853 301.552507 
L 296.638581 301.552507 
z
" clip-path="url(#p560dfd7e14)" style="fill: #aec7e8; fill-opacity: 0.7; stroke: #aec7e8; stroke-opacity: 0.7; stroke-width: 0.715542"/>
    <path d="M 311.501049 314.063842 
L 320.445321 314.063842 
L 320.445321 305.11957 
L 311.501049 305.11957 
z
" clip-path="url(#p560dfd7e14)" style="fill: #aec7e8; fill-opacity: 0.7; stroke: #aec7e8; stroke-opacity: 0.7; stroke-width: 0.715542"/>
    <path d="M 328.750218 276.611302 
L 330.986286 274.375234 
L 333.222354 276.611302 
L 335.458422 274.375234 
L 333.222354 272.139166 
L 335.458422 269.903098 
L 333.222354 267.66703 
L 330.986286 269.903098 
L 328.750218 267.66703 
L 326.51415 269.903098 
L 328.750218 272.139166 
L 326.51415 274.375234 
z
" clip-path="url(#p560dfd7e14)" style="fill: #98df8a; fill-opacity: 0.7; stroke: #98df8a; stroke-opacity: 0.7; stroke-width: 0.715542"/>
    <path d="M 387.446925 312.318932 
L 389.682993 310.082864 
L 391.919061 312.318932 
L 394.155129 310.082864 
L 391.919061 307.846796 
L 394.155129 305.610728 
L 391.919061 303.37466 
L 389.682993 305.610728 
L 387.446925 303.37466 
L 385.210857 305.610728 
L 387.446925 307.846796 
L 385.210857 310.082864 
z
" clip-path="url(#p560dfd7e14)" style="fill: #98df8a; fill-opacity: 0.7; stroke: #98df8a; stroke-opacity: 0.7; stroke-width: 0.715542"/>
    <path d="M 370.02537 279.09479 
L 365.553234 288.039062 
L 374.497506 288.039062 
z
" clip-path="url(#p560dfd7e14)" style="fill: #ff7f0e; fill-opacity: 0.7; stroke: #ff7f0e; stroke-opacity: 0.7; stroke-width: 0.715542"/>
    <path d="M 420.010461 285.266636 
L 415.538325 294.210908 
L 424.482597 294.210908 
z
" clip-path="url(#p560dfd7e14)" style="fill: #ff7f0e; fill-opacity: 0.7; stroke: #ff7f0e; stroke-opacity: 0.7; stroke-width: 0.715542"/>
    <path d="M 343.187569 313.344989 
C 344.373594 313.344989 345.511201 312.873777 346.349847 312.035131 
C 347.188493 311.196485 347.659705 310.058877 347.659705 308.872853 
C 347.659705 307.686829 347.188493 306.549221 346.349847 305.710575 
C 345.511201 304.87193 344.373594 304.400717 343.187569 304.400717 
C 342.001545 304.400717 340.863937 304.87193 340.025292 305.710575 
C 339.186646 306.549221 338.715433 307.686829 338.715433 308.872853 
C 338.715433 310.058877 339.186646 311.196485 340.025292 312.035131 
C 340.863937 312.873777 342.001545 313.344989 343.187569 313.344989 
z
" clip-path="url(#p560dfd7e14)" style="fill: #1f77b4; fill-opacity: 0.7; stroke: #1f77b4; stroke-opacity: 0.7; stroke-width: 0.715542"/>
    <path d="M 257.778589 311.129463 
C 258.964614 311.129463 260.102221 310.658251 260.940867 309.819605 
C 261.779513 308.980959 262.250725 307.843352 262.250725 306.657327 
C 262.250725 305.471303 261.779513 304.333695 260.940867 303.49505 
C 260.102221 302.656404 258.964614 302.185191 257.778589 302.185191 
C 256.592565 302.185191 255.454958 302.656404 254.616312 303.49505 
C 253.777666 304.333695 253.306453 305.471303 253.306453 306.657327 
C 253.306453 307.843352 253.777666 308.980959 254.616312 309.819605 
C 255.454958 310.658251 256.592565 311.129463 257.778589 311.129463 
z
" clip-path="url(#p560dfd7e14)" style="fill: #1f77b4; fill-opacity: 0.7; stroke: #1f77b4; stroke-opacity: 0.7; stroke-width: 0.715542"/>
    <path d="M 165.631844 295.072972 
L 168.613268 295.072972 
L 168.613268 292.091548 
L 171.594692 292.091548 
L 171.594692 289.110124 
L 168.613268 289.110124 
L 168.613268 286.1287 
L 165.631844 286.1287 
L 165.631844 289.110124 
L 162.65042 289.110124 
L 162.65042 292.091548 
L 165.631844 292.091548 
z
" clip-path="url(#p560dfd7e14)" style="fill: #2ca02c; fill-opacity: 0.7; stroke: #2ca02c; stroke-opacity: 0.7; stroke-width: 0.715542"/>
    <path d="M 260.25455 304.585975 
L 263.235974 304.585975 
L 263.235974 301.604551 
L 266.217398 301.604551 
L 266.217398 298.623127 
L 263.235974 298.623127 
L 263.235974 295.641704 
L 260.25455 295.641704 
L 260.25455 298.623127 
L 257.273126 298.623127 
L 257.273126 301.604551 
L 260.25455 301.604551 
z
" clip-path="url(#p560dfd7e14)" style="fill: #2ca02c; fill-opacity: 0.7; stroke: #2ca02c; stroke-opacity: 0.7; stroke-width: 0.715542"/>
    <path d="M 117.212782 260.64771 
L 123.537337 254.323155 
L 117.212782 247.998599 
L 110.888226 254.323155 
z
" clip-path="url(#p560dfd7e14)" style="fill: #ffbb78; fill-opacity: 0.7; stroke: #ffbb78; stroke-opacity: 0.7; stroke-width: 0.715542"/>
    <path d="M 251.55242 295.699724 
L 257.876976 289.375169 
L 251.55242 283.050614 
L 245.227865 289.375169 
z
" clip-path="url(#p560dfd7e14)" style="fill: #ffbb78; fill-opacity: 0.7; stroke: #ffbb78; stroke-opacity: 0.7; stroke-width: 0.715542"/>
    <path d="M 192.830609 232.228933 
L 197.302745 223.284661 
L 188.358473 223.284661 
z
" clip-path="url(#p560dfd7e14)" style="fill: #d62728; fill-opacity: 0.7; stroke: #d62728; stroke-opacity: 0.7; stroke-width: 0.715542"/>
    <path d="M 365.88296 225.291324 
L 370.355095 216.347052 
L 361.410824 216.347052 
z
" clip-path="url(#p560dfd7e14)" style="fill: #d62728; fill-opacity: 0.7; stroke: #d62728; stroke-opacity: 0.7; stroke-width: 0.715542"/>
    <path d="M 262.495074 307.233945 
L 271.439346 307.233945 
L 271.439346 298.289673 
L 262.495074 298.289673 
z
" clip-path="url(#p560dfd7e14)" style="fill: #aec7e8; fill-opacity: 0.7; stroke: #aec7e8; stroke-opacity: 0.7; stroke-width: 0.715542"/>
    <path d="M 242.887663 314.015123 
L 251.831934 314.015123 
L 251.831934 305.070851 
L 242.887663 305.070851 
z
" clip-path="url(#p560dfd7e14)" style="fill: #aec7e8; fill-opacity: 0.7; stroke: #aec7e8; stroke-opacity: 0.7; stroke-width: 0.715542"/>
    <path d="M 226.821806 270.019612 
L 229.057874 267.783544 
L 231.293942 270.019612 
L 233.53001 267.783544 
L 231.293942 265.547476 
L 233.53001 263.311408 
L 231.293942 261.075341 
L 229.057874 263.311408 
L 226.821806 261.075341 
L 224.585738 263.311408 
L 226.821806 265.547476 
L 224.585738 267.783544 
z
" clip-path="url(#p560dfd7e14)" style="fill: #98df8a; fill-opacity: 0.7; stroke: #98df8a; stroke-opacity: 0.7; stroke-width: 0.715542"/>
    <path d="M 300.857985 334.506812 
L 303.094053 332.270744 
L 305.330121 334.506812 
L 307.566189 332.270744 
L 305.330121 330.034676 
L 307.566189 327.798608 
L 305.330121 325.56254 
L 303.094053 327.798608 
L 300.857985 325.56254 
L 298.621917 327.798608 
L 300.857985 330.034676 
L 298.621917 332.270744 
z
" clip-path="url(#p560dfd7e14)" style="fill: #98df8a; fill-opacity: 0.7; stroke: #98df8a; stroke-opacity: 0.7; stroke-width: 0.715542"/>
    <path d="M 189.74263 291.863301 
L 185.270494 300.807573 
L 194.214766 300.807573 
z
" clip-path="url(#p560dfd7e14)" style="fill: #ff7f0e; fill-opacity: 0.7; stroke: #ff7f0e; stroke-opacity: 0.7; stroke-width: 0.715542"/>
    <path d="M 329.128478 293.979029 
L 324.656342 302.923301 
L 333.600614 302.923301 
z
" clip-path="url(#p560dfd7e14)" style="fill: #ff7f0e; fill-opacity: 0.7; stroke: #ff7f0e; stroke-opacity: 0.7; stroke-width: 0.715542"/>
    <path d="M 261.343573 309.687136 
C 262.529598 309.687136 263.667205 309.215924 264.505851 308.377278 
C 265.344497 307.538632 265.815709 306.401025 265.815709 305.215 
C 265.815709 304.028976 265.344497 302.891369 264.505851 302.052723 
C 263.667205 301.214077 262.529598 300.742864 261.343573 300.742864 
C 260.157549 300.742864 259.019941 301.214077 258.181296 302.052723 
C 257.34265 302.891369 256.871437 304.028976 256.871437 305.215 
C 256.871437 306.401025 257.34265 307.538632 258.181296 308.377278 
C 259.019941 309.215924 260.157549 309.687136 261.343573 309.687136 
z
" clip-path="url(#p560dfd7e14)" style="fill: #1f77b4; fill-opacity: 0.7; stroke: #1f77b4; stroke-opacity: 0.7; stroke-width: 0.715542"/>
    <path d="M 422.897596 306.118016 
C 424.08362 306.118016 425.221228 305.646804 426.059874 304.808158 
C 426.898519 303.969512 427.369732 302.831905 427.369732 301.64588 
C 427.369732 300.459856 426.898519 299.322248 426.059874 298.483603 
C 425.221228 297.644957 424.08362 297.173744 422.897596 297.173744 
C 421.711572 297.173744 420.573964 297.644957 419.735318 298.483603 
C 418.896672 299.322248 418.42546 300.459856 418.42546 301.64588 
C 418.42546 302.831905 418.896672 303.969512 419.735318 304.808158 
C 420.573964 305.646804 421.711572 306.118016 422.897596 306.118016 
z
" clip-path="url(#p560dfd7e14)" style="fill: #1f77b4; fill-opacity: 0.7; stroke: #1f77b4; stroke-opacity: 0.7; stroke-width: 0.715542"/>
    <path d="M 98.273733 295.137088 
L 101.255157 295.137088 
L 101.255157 292.155664 
L 104.236581 292.155664 
L 104.236581 289.17424 
L 101.255157 289.17424 
L 101.255157 286.192816 
L 98.273733 286.192816 
L 98.273733 289.17424 
L 95.292309 289.17424 
L 95.292309 292.155664 
L 98.273733 292.155664 
z
" clip-path="url(#p560dfd7e14)" style="fill: #2ca02c; fill-opacity: 0.7; stroke: #2ca02c; stroke-opacity: 0.7; stroke-width: 0.715542"/>
    <path d="M 262.614469 304.310319 
L 265.595892 304.310319 
L 265.595892 301.328895 
L 268.577316 301.328895 
L 268.577316 298.347471 
L 265.595892 298.347471 
L 265.595892 295.366047 
L 262.614469 295.366047 
L 262.614469 298.347471 
L 259.633045 298.347471 
L 259.633045 301.328895 
L 262.614469 301.328895 
z
" clip-path="url(#p560dfd7e14)" style="fill: #2ca02c; fill-opacity: 0.7; stroke: #2ca02c; stroke-opacity: 0.7; stroke-width: 0.715542"/>
    <path d="M 124.543594 260.867846 
L 130.868149 254.543291 
L 124.543594 248.218736 
L 118.219038 254.543291 
z
" clip-path="url(#p560dfd7e14)" style="fill: #ffbb78; fill-opacity: 0.7; stroke: #ffbb78; stroke-opacity: 0.7; stroke-width: 0.715542"/>
    <path d="M 323.379314 296.004005 
L 329.703869 289.679449 
L 323.379314 283.354894 
L 317.054758 289.679449 
z
" clip-path="url(#p560dfd7e14)" style="fill: #ffbb78; fill-opacity: 0.7; stroke: #ffbb78; stroke-opacity: 0.7; stroke-width: 0.715542"/>
    <path d="M 387.723085 313.284654 
L 389.959153 311.048586 
L 392.195221 313.284654 
L 394.431289 311.048586 
L 392.195221 308.812518 
L 394.431289 306.57645 
L 392.195221 304.340382 
L 389.959153 306.57645 
L 387.723085 304.340382 
L 385.487017 306.57645 
L 387.723085 308.812518 
L 385.487017 311.048586 
z
" clip-path="url(#p560dfd7e14)" style="fill: #800080; fill-opacity: 0.7; stroke: #800080; stroke-opacity: 0.7; stroke-width: 0.715542"/>
    <path d="M 332.415624 312.751417 
L 334.651692 310.515349 
L 336.88776 312.751417 
L 339.123828 310.515349 
L 336.88776 308.279281 
L 339.123828 306.043213 
L 336.88776 303.807145 
L 334.651692 306.043213 
L 332.415624 303.807145 
L 330.179556 306.043213 
L 332.415624 308.279281 
L 330.179556 310.515349 
z
" clip-path="url(#p560dfd7e14)" style="fill: #800080; fill-opacity: 0.7; stroke: #800080; stroke-opacity: 0.7; stroke-width: 0.715542"/>
    <path d="M 333.419845 316.844148 
L 335.655913 314.60808 
L 337.891981 316.844148 
L 340.128049 314.60808 
L 337.891981 312.372012 
L 340.128049 310.135944 
L 337.891981 307.899876 
L 335.655913 310.135944 
L 333.419845 307.899876 
L 331.183777 310.135944 
L 333.419845 312.372012 
L 331.183777 314.60808 
z
" clip-path="url(#p560dfd7e14)" style="fill: #800080; fill-opacity: 0.7; stroke: #800080; stroke-opacity: 0.7; stroke-width: 0.715542"/>
    <path d="M 330.383754 314.495774 
C 331.569778 314.495774 332.707386 314.024561 333.546032 313.185915 
C 334.384677 312.347269 334.85589 311.209662 334.85589 310.023638 
C 334.85589 308.837613 334.384677 307.700006 333.546032 306.86136 
C 332.707386 306.022714 331.569778 305.551502 330.383754 305.551502 
C 329.19773 305.551502 328.060122 306.022714 327.221476 306.86136 
C 326.38283 307.700006 325.911618 308.837613 325.911618 310.023638 
C 325.911618 311.209662 326.38283 312.347269 327.221476 313.185915 
C 328.060122 314.024561 329.19773 314.495774 330.383754 314.495774 
z
" clip-path="url(#p560dfd7e14)" style="fill-opacity: 0.7; stroke: #000000; stroke-opacity: 0.7; stroke-width: 0.715542"/>
   </g>
   <g id="patch_3">
    <path d="M 81.318164 345.154676 
L 81.318164 12.514676 
" style="fill: none; stroke: #cccccc; stroke-width: 1.25; stroke-linejoin: miter; stroke-linecap: square"/>
   </g>
   <g id="patch_4">
    <path d="M 487.136346 345.154676 
L 487.136346 12.514676 
" style="fill: none; stroke: #cccccc; stroke-width: 1.25; stroke-linejoin: miter; stroke-linecap: square"/>
   </g>
   <g id="patch_5">
    <path d="M 81.318164 345.154676 
L 487.136346 345.154676 
" style="fill: none; stroke: #cccccc; stroke-width: 1.25; stroke-linejoin: miter; stroke-linecap: square"/>
   </g>
   <g id="patch_6">
    <path d="M 81.318164 12.514676 
L 487.136346 12.514676 
" style="fill: none; stroke: #cccccc; stroke-width: 1.25; stroke-linejoin: miter; stroke-linecap: square"/>
   </g>
   <g id="patch_7">
    <path clip-path="url(#p560dfd7e14)" style="fill: none; stroke-dasharray: 5.18,2.24; stroke-dashoffset: 0; stroke: #ff0000; stroke-width: 1.4; stroke-linejoin: miter"/>
   </g>
   <g id="patch_8">
    <path d="M 2279.119511 35284.984275 
Q 2402.643999 35284.984275 2524.156025 35284.984275 
" style="fill: none; stroke: #ff0000; stroke-width: 1.8; stroke-linecap: round"/>
    <path d="M 2517.676025 35281.744275 
L 2524.156025 35284.984275 
L 2517.676025 35288.224275 
z
" style="fill: #ff0000; stroke: #ff0000; stroke-width: 1.8; stroke-linecap: round"/>
   </g>
  </g>
  <g id="axes_2">
   <g id="patch_9">
    <path d="M 568.299982 345.154676 
L 974.118164 345.154676 
L 974.118164 12.514676 
L 568.299982 12.514676 
z
" style="fill: #ffffff"/>
   </g>
   <g id="matplotlib.axis_3">
    <g id="xtick_8">
     <g id="line2d_17">
      <path d="M 568.299982 345.154676 
L 568.299982 12.514676 
" clip-path="url(#p21ccd133df)" style="fill: none; stroke: #cccccc; stroke-opacity: 0.3; stroke-linecap: round"/>
     </g>
     <g id="text_18">
      <!-- 0.00 -->
      <g style="fill: #262626" transform="translate(553.850236 365.284027) scale(0.1485 -0.1485)">
       <use xlink:href="#ArialMT-30"/>
       <use xlink:href="#ArialMT-2e" transform="translate(55.615234 0)"/>
       <use xlink:href="#ArialMT-30" transform="translate(83.398438 0)"/>
       <use xlink:href="#ArialMT-30" transform="translate(139.013672 0)"/>
      </g>
     </g>
    </g>
    <g id="xtick_9">
     <g id="line2d_18">
      <path d="M 649.463619 345.154676 
L 649.463619 12.514676 
" clip-path="url(#p21ccd133df)" style="fill: none; stroke: #cccccc; stroke-opacity: 0.3; stroke-linecap: round"/>
     </g>
     <g id="text_19">
      <!-- 0.02 -->
      <g style="fill: #262626" transform="translate(635.013873 365.284027) scale(0.1485 -0.1485)">
       <use xlink:href="#ArialMT-30"/>
       <use xlink:href="#ArialMT-2e" transform="translate(55.615234 0)"/>
       <use xlink:href="#ArialMT-30" transform="translate(83.398438 0)"/>
       <use xlink:href="#ArialMT-32" transform="translate(139.013672 0)"/>
      </g>
     </g>
    </g>
    <g id="xtick_10">
     <g id="line2d_19">
      <path d="M 730.627255 345.154676 
L 730.627255 12.514676 
" clip-path="url(#p21ccd133df)" style="fill: none; stroke: #cccccc; stroke-opacity: 0.3; stroke-linecap: round"/>
     </g>
     <g id="text_20">
      <!-- 0.04 -->
      <g style="fill: #262626" transform="translate(716.177509 365.284027) scale(0.1485 -0.1485)">
       <use xlink:href="#ArialMT-30"/>
       <use xlink:href="#ArialMT-2e" transform="translate(55.615234 0)"/>
       <use xlink:href="#ArialMT-30" transform="translate(83.398438 0)"/>
       <use xlink:href="#ArialMT-34" transform="translate(139.013672 0)"/>
      </g>
     </g>
    </g>
    <g id="xtick_11">
     <g id="line2d_20">
      <path d="M 811.790891 345.154676 
L 811.790891 12.514676 
" clip-path="url(#p21ccd133df)" style="fill: none; stroke: #cccccc; stroke-opacity: 0.3; stroke-linecap: round"/>
     </g>
     <g id="text_21">
      <!-- 0.06 -->
      <g style="fill: #262626" transform="translate(797.341145 365.284027) scale(0.1485 -0.1485)">
       <use xlink:href="#ArialMT-30"/>
       <use xlink:href="#ArialMT-2e" transform="translate(55.615234 0)"/>
       <use xlink:href="#ArialMT-30" transform="translate(83.398438 0)"/>
       <use xlink:href="#ArialMT-36" transform="translate(139.013672 0)"/>
      </g>
     </g>
    </g>
    <g id="xtick_12">
     <g id="line2d_21">
      <path d="M 892.954528 345.154676 
L 892.954528 12.514676 
" clip-path="url(#p21ccd133df)" style="fill: none; stroke: #cccccc; stroke-opacity: 0.3; stroke-linecap: round"/>
     </g>
     <g id="text_22">
      <!-- 0.08 -->
      <g style="fill: #262626" transform="translate(878.504782 365.284027) scale(0.1485 -0.1485)">
       <use xlink:href="#ArialMT-30"/>
       <use xlink:href="#ArialMT-2e" transform="translate(55.615234 0)"/>
       <use xlink:href="#ArialMT-30" transform="translate(83.398438 0)"/>
       <use xlink:href="#ArialMT-38" transform="translate(139.013672 0)"/>
      </g>
     </g>
    </g>
    <g id="xtick_13">
     <g id="line2d_22">
      <path d="M 974.118164 345.154676 
L 974.118164 12.514676 
" clip-path="url(#p21ccd133df)" style="fill: none; stroke: #cccccc; stroke-opacity: 0.3; stroke-linecap: round"/>
     </g>
     <g id="text_23">
      <!-- 0.10 -->
      <g style="fill: #262626" transform="translate(959.668418 365.284027) scale(0.1485 -0.1485)">
       <use xlink:href="#ArialMT-30"/>
       <use xlink:href="#ArialMT-2e" transform="translate(55.615234 0)"/>
       <use xlink:href="#ArialMT-31" transform="translate(83.398438 0)"/>
       <use xlink:href="#ArialMT-30" transform="translate(139.013672 0)"/>
      </g>
     </g>
    </g>
   </g>
   <g id="matplotlib.axis_4">
    <g id="ytick_10">
     <g id="line2d_23">
      <path d="M 568.299982 345.154676 
L 974.118164 345.154676 
" clip-path="url(#p21ccd133df)" style="fill: none; stroke: #cccccc; stroke-opacity: 0.3; stroke-linecap: round"/>
     </g>
     <g id="text_24">
      <!-- 0.00 -->
      <g style="fill: #262626" transform="translate(529.90049 350.469352) scale(0.1485 -0.1485)">
       <use xlink:href="#ArialMT-30"/>
       <use xlink:href="#ArialMT-2e" transform="translate(55.615234 0)"/>
       <use xlink:href="#ArialMT-30" transform="translate(83.398438 0)"/>
       <use xlink:href="#ArialMT-30" transform="translate(139.013672 0)"/>
      </g>
     </g>
    </g>
    <g id="ytick_11">
     <g id="line2d_24">
      <path d="M 568.299982 278.626676 
L 974.118164 278.626676 
" clip-path="url(#p21ccd133df)" style="fill: none; stroke: #cccccc; stroke-opacity: 0.3; stroke-linecap: round"/>
     </g>
     <g id="text_25">
      <!-- 0.02 -->
      <g style="fill: #262626" transform="translate(529.90049 283.941352) scale(0.1485 -0.1485)">
       <use xlink:href="#ArialMT-30"/>
       <use xlink:href="#ArialMT-2e" transform="translate(55.615234 0)"/>
       <use xlink:href="#ArialMT-30" transform="translate(83.398438 0)"/>
       <use xlink:href="#ArialMT-32" transform="translate(139.013672 0)"/>
      </g>
     </g>
    </g>
    <g id="ytick_12">
     <g id="line2d_25">
      <path d="M 568.299982 212.098676 
L 974.118164 212.098676 
" clip-path="url(#p21ccd133df)" style="fill: none; stroke: #cccccc; stroke-opacity: 0.3; stroke-linecap: round"/>
     </g>
     <g id="text_26">
      <!-- 0.04 -->
      <g style="fill: #262626" transform="translate(529.90049 217.413352) scale(0.1485 -0.1485)">
       <use xlink:href="#ArialMT-30"/>
       <use xlink:href="#ArialMT-2e" transform="translate(55.615234 0)"/>
       <use xlink:href="#ArialMT-30" transform="translate(83.398438 0)"/>
       <use xlink:href="#ArialMT-34" transform="translate(139.013672 0)"/>
      </g>
     </g>
    </g>
    <g id="ytick_13">
     <g id="line2d_26">
      <path d="M 568.299982 145.570676 
L 974.118164 145.570676 
" clip-path="url(#p21ccd133df)" style="fill: none; stroke: #cccccc; stroke-opacity: 0.3; stroke-linecap: round"/>
     </g>
     <g id="text_27">
      <!-- 0.06 -->
      <g style="fill: #262626" transform="translate(529.90049 150.885352) scale(0.1485 -0.1485)">
       <use xlink:href="#ArialMT-30"/>
       <use xlink:href="#ArialMT-2e" transform="translate(55.615234 0)"/>
       <use xlink:href="#ArialMT-30" transform="translate(83.398438 0)"/>
       <use xlink:href="#ArialMT-36" transform="translate(139.013672 0)"/>
      </g>
     </g>
    </g>
    <g id="ytick_14">
     <g id="line2d_27">
      <path d="M 568.299982 79.042676 
L 974.118164 79.042676 
" clip-path="url(#p21ccd133df)" style="fill: none; stroke: #cccccc; stroke-opacity: 0.3; stroke-linecap: round"/>
     </g>
     <g id="text_28">
      <!-- 0.08 -->
      <g style="fill: #262626" transform="translate(529.90049 84.357352) scale(0.1485 -0.1485)">
       <use xlink:href="#ArialMT-30"/>
       <use xlink:href="#ArialMT-2e" transform="translate(55.615234 0)"/>
       <use xlink:href="#ArialMT-30" transform="translate(83.398438 0)"/>
       <use xlink:href="#ArialMT-38" transform="translate(139.013672 0)"/>
      </g>
     </g>
    </g>
    <g id="ytick_15">
     <g id="line2d_28">
      <path d="M 568.299982 12.514676 
L 974.118164 12.514676 
" clip-path="url(#p21ccd133df)" style="fill: none; stroke: #cccccc; stroke-opacity: 0.3; stroke-linecap: round"/>
     </g>
     <g id="text_29">
      <!-- 0.10 -->
      <g style="fill: #262626" transform="translate(529.90049 17.829352) scale(0.1485 -0.1485)">
       <use xlink:href="#ArialMT-30"/>
       <use xlink:href="#ArialMT-2e" transform="translate(55.615234 0)"/>
       <use xlink:href="#ArialMT-31" transform="translate(83.398438 0)"/>
       <use xlink:href="#ArialMT-30" transform="translate(139.013672 0)"/>
      </g>
     </g>
    </g>
   </g>
   <g id="PathCollection_2">
    <path d="M 2491.326251 -1318.94971 
L 2495.798387 -1327.893982 
L 2486.854115 -1327.893982 
z
" clip-path="url(#p21ccd133df)" style="fill: #d62728; fill-opacity: 0.7; stroke: #d62728; stroke-opacity: 0.7; stroke-width: 0.715542"/>
    <path d="M 2598.0402 -1317.164417 
L 2602.512336 -1326.108688 
L 2593.568064 -1326.108688 
z
" clip-path="url(#p21ccd133df)" style="fill: #d62728; fill-opacity: 0.7; stroke: #d62728; stroke-opacity: 0.7; stroke-width: 0.715542"/>
    <path d="M 2584.964719 -1313.176142 
L 2593.908991 -1313.176142 
L 2593.908991 -1322.120414 
L 2584.964719 -1322.120414 
z
" clip-path="url(#p21ccd133df)" style="fill: #aec7e8; fill-opacity: 0.7; stroke: #aec7e8; stroke-opacity: 0.7; stroke-width: 0.715542"/>
    <path d="M 2557.336617 -1313.160451 
L 2566.280889 -1313.160451 
L 2566.280889 -1322.104723 
L 2557.336617 -1322.104723 
z
" clip-path="url(#p21ccd133df)" style="fill: #aec7e8; fill-opacity: 0.7; stroke: #aec7e8; stroke-opacity: 0.7; stroke-width: 0.715542"/>
    <path d="M 2618.692278 -1313.986744 
L 2620.928346 -1316.222812 
L 2623.164414 -1313.986744 
L 2625.400482 -1316.222812 
L 2623.164414 -1318.45888 
L 2625.400482 -1320.694948 
L 2623.164414 -1322.931016 
L 2620.928346 -1320.694948 
L 2618.692278 -1322.931016 
L 2616.45621 -1320.694948 
L 2618.692278 -1318.45888 
L 2616.45621 -1316.222812 
z
" clip-path="url(#p21ccd133df)" style="fill: #98df8a; fill-opacity: 0.7; stroke: #98df8a; stroke-opacity: 0.7; stroke-width: 0.715542"/>
    <path d="M 2475.779347 -1315.464547 
L 2478.015415 -1317.700615 
L 2480.251483 -1315.464547 
L 2482.487551 -1317.700615 
L 2480.251483 -1319.936683 
L 2482.487551 -1322.172751 
L 2480.251483 -1324.408819 
L 2478.015415 -1322.172751 
L 2475.779347 -1324.408819 
L 2473.543279 -1322.172751 
L 2475.779347 -1319.936683 
L 2473.543279 -1317.700615 
z
" clip-path="url(#p21ccd133df)" style="fill: #98df8a; fill-opacity: 0.7; stroke: #98df8a; stroke-opacity: 0.7; stroke-width: 0.715542"/>
    <path d="M 2669.074615 -1322.595553 
L 2664.602479 -1313.651281 
L 2673.546751 -1313.651281 
z
" clip-path="url(#p21ccd133df)" style="fill: #ff7f0e; fill-opacity: 0.7; stroke: #ff7f0e; stroke-opacity: 0.7; stroke-width: 0.715542"/>
    <path d="M 2581.807473 -1322.352576 
L 2577.335337 -1313.408304 
L 2586.279609 -1313.408304 
z
" clip-path="url(#p21ccd133df)" style="fill: #ff7f0e; fill-opacity: 0.7; stroke: #ff7f0e; stroke-opacity: 0.7; stroke-width: 0.715542"/>
    <path d="M 2651.348477 -1313.293618 
C 2652.534501 -1313.293618 2653.672109 -1313.764831 2654.510754 -1314.603477 
C 2655.3494 -1315.442123 2655.820613 -1316.57973 2655.820613 -1317.765754 
C 2655.820613 -1318.951779 2655.3494 -1320.089386 2654.510754 -1320.928032 
C 2653.672109 -1321.766678 2652.534501 -1322.23789 2651.348477 -1322.23789 
C 2650.162452 -1322.23789 2649.024845 -1321.766678 2648.186199 -1320.928032 
C 2647.347553 -1320.089386 2646.876341 -1318.951779 2646.876341 -1317.765754 
C 2646.876341 -1316.57973 2647.347553 -1315.442123 2648.186199 -1314.603477 
C 2649.024845 -1313.764831 2650.162452 -1313.293618 2651.348477 -1313.293618 
z
" clip-path="url(#p21ccd133df)" style="fill: #1f77b4; fill-opacity: 0.7; stroke: #1f77b4; stroke-opacity: 0.7; stroke-width: 0.715542"/>
    <path d="M 2591.709437 -1313.100012 
C 2592.895461 -1313.100012 2594.033069 -1313.571224 2594.871714 -1314.40987 
C 2595.71036 -1315.248516 2596.181573 -1316.386124 2596.181573 -1317.572148 
C 2596.181573 -1318.758172 2595.71036 -1319.89578 2594.871714 -1320.734426 
C 2594.033069 -1321.573071 2592.895461 -1322.044284 2591.709437 -1322.044284 
C 2590.523412 -1322.044284 2589.385805 -1321.573071 2588.547159 -1320.734426 
C 2587.708513 -1319.89578 2587.237301 -1318.758172 2587.237301 -1317.572148 
C 2587.237301 -1316.386124 2587.708513 -1315.248516 2588.547159 -1314.40987 
C 2589.385805 -1313.571224 2590.523412 -1313.100012 2591.709437 -1313.100012 
z
" clip-path="url(#p21ccd133df)" style="fill: #1f77b4; fill-opacity: 0.7; stroke: #1f77b4; stroke-opacity: 0.7; stroke-width: 0.715542"/>
    <path d="M 2342.864427 -1313.930164 
L 2345.845851 -1313.930164 
L 2345.845851 -1316.911588 
L 2348.827275 -1316.911588 
L 2348.827275 -1319.893012 
L 2345.845851 -1319.893012 
L 2345.845851 -1322.874436 
L 2342.864427 -1322.874436 
L 2342.864427 -1319.893012 
L 2339.883003 -1319.893012 
L 2339.883003 -1316.911588 
L 2342.864427 -1316.911588 
z
" clip-path="url(#p21ccd133df)" style="fill: #2ca02c; fill-opacity: 0.7; stroke: #2ca02c; stroke-opacity: 0.7; stroke-width: 0.715542"/>
    <path d="M 2551.974419 -1313.32499 
L 2554.955843 -1313.32499 
L 2554.955843 -1316.306414 
L 2557.937267 -1316.306414 
L 2557.937267 -1319.287838 
L 2554.955843 -1319.287838 
L 2554.955843 -1322.269262 
L 2551.974419 -1322.269262 
L 2551.974419 -1319.287838 
L 2548.992995 -1319.287838 
L 2548.992995 -1316.306414 
L 2551.974419 -1316.306414 
z
" clip-path="url(#p21ccd133df)" style="fill: #2ca02c; fill-opacity: 0.7; stroke: #2ca02c; stroke-opacity: 0.7; stroke-width: 0.715542"/>
    <path d="M 2329.615822 -1312.968181 
L 2335.940378 -1319.292737 
L 2329.615822 -1325.617292 
L 2323.291267 -1319.292737 
z
" clip-path="url(#p21ccd133df)" style="fill: #ffbb78; fill-opacity: 0.7; stroke: #ffbb78; stroke-opacity: 0.7; stroke-width: 0.715542"/>
    <path d="M 2743.615299 -1311.284449 
L 2749.939854 -1317.609004 
L 2743.615299 -1323.933559 
L 2737.290743 -1317.609004 
z
" clip-path="url(#p21ccd133df)" style="fill: #ffbb78; fill-opacity: 0.7; stroke: #ffbb78; stroke-opacity: 0.7; stroke-width: 0.715542"/>
    <path d="M 2429.512026 -1312.796455 
L 2435.836581 -1319.12101 
L 2429.512026 -1325.445565 
L 2423.187471 -1319.12101 
z
" clip-path="url(#p21ccd133df)" style="fill: #ffbb78; fill-opacity: 0.7; stroke: #ffbb78; stroke-opacity: 0.7; stroke-width: 0.715542"/>
    <path d="M 2650.991357 -1311.46099 
L 2657.315912 -1317.785546 
L 2650.991357 -1324.110101 
L 2644.666801 -1317.785546 
z
" clip-path="url(#p21ccd133df)" style="fill: #ffbb78; fill-opacity: 0.7; stroke: #ffbb78; stroke-opacity: 0.7; stroke-width: 0.715542"/>
    <path d="M 2752.803022 -1325.105352 
L 2757.275158 -1334.049624 
L 2748.330886 -1334.049624 
z
" clip-path="url(#p21ccd133df)" style="fill: #d62728; fill-opacity: 0.7; stroke: #d62728; stroke-opacity: 0.7; stroke-width: 0.715542"/>
    <path d="M 2754.588622 -1315.321643 
L 2759.060758 -1324.265914 
L 2750.116486 -1324.265914 
z
" clip-path="url(#p21ccd133df)" style="fill: #d62728; fill-opacity: 0.7; stroke: #d62728; stroke-opacity: 0.7; stroke-width: 0.715542"/>
    <path d="M 2533.409577 -1313.195018 
L 2542.353849 -1313.195018 
L 2542.353849 -1322.13929 
L 2533.409577 -1322.13929 
z
" clip-path="url(#p21ccd133df)" style="fill: #aec7e8; fill-opacity: 0.7; stroke: #aec7e8; stroke-opacity: 0.7; stroke-width: 0.715542"/>
    <path d="M 2552.629126 -1313.042409 
L 2561.573398 -1313.042409 
L 2561.573398 -1321.986681 
L 2552.629126 -1321.986681 
z
" clip-path="url(#p21ccd133df)" style="fill: #aec7e8; fill-opacity: 0.7; stroke: #aec7e8; stroke-opacity: 0.7; stroke-width: 0.715542"/>
    <path d="M 2574.279536 -1314.644738 
L 2576.515604 -1316.880806 
L 2578.751672 -1314.644738 
L 2580.98774 -1316.880806 
L 2578.751672 -1319.116874 
L 2580.98774 -1321.352942 
L 2578.751672 -1323.589009 
L 2576.515604 -1321.352942 
L 2574.279536 -1323.589009 
L 2572.043468 -1321.352942 
L 2574.279536 -1319.116874 
L 2572.043468 -1316.880806 
z
" clip-path="url(#p21ccd133df)" style="fill: #98df8a; fill-opacity: 0.7; stroke: #98df8a; stroke-opacity: 0.7; stroke-width: 0.715542"/>
    <path d="M 2650.183769 -1313.117061 
L 2652.419837 -1315.353129 
L 2654.655905 -1313.117061 
L 2656.891973 -1315.353129 
L 2654.655905 -1317.589197 
L 2656.891973 -1319.825265 
L 2654.655905 -1322.061333 
L 2652.419837 -1319.825265 
L 2650.183769 -1322.061333 
L 2647.947701 -1319.825265 
L 2650.183769 -1317.589197 
L 2647.947701 -1315.353129 
z
" clip-path="url(#p21ccd133df)" style="fill: #98df8a; fill-opacity: 0.7; stroke: #98df8a; stroke-opacity: 0.7; stroke-width: 0.715542"/>
    <path d="M 2626.999386 -1323.100097 
L 2622.52725 -1314.155825 
L 2631.471522 -1314.155825 
z
" clip-path="url(#p21ccd133df)" style="fill: #ff7f0e; fill-opacity: 0.7; stroke: #ff7f0e; stroke-opacity: 0.7; stroke-width: 0.715542"/>
    <path d="M 2691.638106 -1322.836047 
L 2687.16597 -1313.891775 
L 2696.110242 -1313.891775 
z
" clip-path="url(#p21ccd133df)" style="fill: #ff7f0e; fill-opacity: 0.7; stroke: #ff7f0e; stroke-opacity: 0.7; stroke-width: 0.715542"/>
    <path d="M 2592.293815 -1313.073163 
C 2593.479839 -1313.073163 2594.617447 -1313.544376 2595.456093 -1314.383022 
C 2596.294738 -1315.221668 2596.765951 -1316.359275 2596.765951 -1317.545299 
C 2596.765951 -1318.731324 2596.294738 -1319.868931 2595.456093 -1320.707577 
C 2594.617447 -1321.546223 2593.479839 -1322.017435 2592.293815 -1322.017435 
C 2591.107791 -1322.017435 2589.970183 -1321.546223 2589.131537 -1320.707577 
C 2588.292891 -1319.868931 2587.821679 -1318.731324 2587.821679 -1317.545299 
C 2587.821679 -1316.359275 2588.292891 -1315.221668 2589.131537 -1314.383022 
C 2589.970183 -1313.544376 2591.107791 -1313.073163 2592.293815 -1313.073163 
z
" clip-path="url(#p21ccd133df)" style="fill: #1f77b4; fill-opacity: 0.7; stroke: #1f77b4; stroke-opacity: 0.7; stroke-width: 0.715542"/>
    <path d="M 2481.846339 -1313.16795 
C 2483.032363 -1313.16795 2484.16997 -1313.639162 2485.008616 -1314.477808 
C 2485.847262 -1315.316454 2486.318475 -1316.454062 2486.318475 -1317.640086 
C 2486.318475 -1318.82611 2485.847262 -1319.963718 2485.008616 -1320.802364 
C 2484.16997 -1321.641009 2483.032363 -1322.112222 2481.846339 -1322.112222 
C 2480.660314 -1322.112222 2479.522707 -1321.641009 2478.684061 -1320.802364 
C 2477.845415 -1319.963718 2477.374203 -1318.82611 2477.374203 -1317.640086 
C 2477.374203 -1316.454062 2477.845415 -1315.316454 2478.684061 -1314.477808 
C 2479.522707 -1313.639162 2480.660314 -1313.16795 2481.846339 -1313.16795 
z
" clip-path="url(#p21ccd133df)" style="fill: #1f77b4; fill-opacity: 0.7; stroke: #1f77b4; stroke-opacity: 0.7; stroke-width: 0.715542"/>
    <path d="M 2363.12287 -1313.854894 
L 2366.104294 -1313.854894 
L 2366.104294 -1316.836318 
L 2369.085718 -1316.836318 
L 2369.085718 -1319.817741 
L 2366.104294 -1319.817741 
L 2366.104294 -1322.799165 
L 2363.12287 -1322.799165 
L 2363.12287 -1319.817741 
L 2360.141446 -1319.817741 
L 2360.141446 -1316.836318 
L 2363.12287 -1316.836318 
z
" clip-path="url(#p21ccd133df)" style="fill: #2ca02c; fill-opacity: 0.7; stroke: #2ca02c; stroke-opacity: 0.7; stroke-width: 0.715542"/>
    <path d="M 2485.485168 -1313.4479 
L 2488.466592 -1313.4479 
L 2488.466592 -1316.429323 
L 2491.448016 -1316.429323 
L 2491.448016 -1319.410747 
L 2488.466592 -1319.410747 
L 2488.466592 -1322.392171 
L 2485.485168 -1322.392171 
L 2485.485168 -1319.410747 
L 2482.503744 -1319.410747 
L 2482.503744 -1316.429323 
L 2485.485168 -1316.429323 
z
" clip-path="url(#p21ccd133df)" style="fill: #2ca02c; fill-opacity: 0.7; stroke: #2ca02c; stroke-opacity: 0.7; stroke-width: 0.715542"/>
    <path d="M 2300.072259 -1313.554539 
L 2306.396814 -1319.879094 
L 2300.072259 -1326.20365 
L 2293.747703 -1319.879094 
z
" clip-path="url(#p21ccd133df)" style="fill: #ffbb78; fill-opacity: 0.7; stroke: #ffbb78; stroke-opacity: 0.7; stroke-width: 0.715542"/>
    <path d="M 2473.794906 -1312.054912 
L 2480.119461 -1318.379467 
L 2473.794906 -1324.704022 
L 2467.470351 -1318.379467 
z
" clip-path="url(#p21ccd133df)" style="fill: #ffbb78; fill-opacity: 0.7; stroke: #ffbb78; stroke-opacity: 0.7; stroke-width: 0.715542"/>
    <path d="M 2397.858208 -1316.543545 
L 2402.330344 -1325.487817 
L 2393.386072 -1325.487817 
z
" clip-path="url(#p21ccd133df)" style="fill: #d62728; fill-opacity: 0.7; stroke: #d62728; stroke-opacity: 0.7; stroke-width: 0.715542"/>
    <path d="M 2621.642586 -1316.840356 
L 2626.114722 -1325.784628 
L 2617.17045 -1325.784628 
z
" clip-path="url(#p21ccd133df)" style="fill: #d62728; fill-opacity: 0.7; stroke: #d62728; stroke-opacity: 0.7; stroke-width: 0.715542"/>
    <path d="M 2489.256559 -1313.334612 
L 2498.200831 -1313.334612 
L 2498.200831 -1322.278884 
L 2489.256559 -1322.278884 
z
" clip-path="url(#p21ccd133df)" style="fill: #aec7e8; fill-opacity: 0.7; stroke: #aec7e8; stroke-opacity: 0.7; stroke-width: 0.715542"/>
    <path d="M 2463.901039 -1313.044493 
L 2472.845311 -1313.044493 
L 2472.845311 -1321.988765 
L 2463.901039 -1321.988765 
z
" clip-path="url(#p21ccd133df)" style="fill: #aec7e8; fill-opacity: 0.7; stroke: #aec7e8; stroke-opacity: 0.7; stroke-width: 0.715542"/>
    <path d="M 2442.469791 -1314.926749 
L 2444.705859 -1317.162817 
L 2446.941927 -1314.926749 
L 2449.177995 -1317.162817 
L 2446.941927 -1319.398885 
L 2449.177995 -1321.634953 
L 2446.941927 -1323.871021 
L 2444.705859 -1321.634953 
L 2442.469791 -1323.871021 
L 2440.233723 -1321.634953 
L 2442.469791 -1319.398885 
L 2440.233723 -1317.162817 
z
" clip-path="url(#p21ccd133df)" style="fill: #98df8a; fill-opacity: 0.7; stroke: #98df8a; stroke-opacity: 0.7; stroke-width: 0.715542"/>
    <path d="M 2538.210416 -1312.167799 
L 2540.446484 -1314.403867 
L 2542.682552 -1312.167799 
L 2544.91862 -1314.403867 
L 2542.682552 -1316.639935 
L 2544.91862 -1318.876003 
L 2542.682552 -1321.112071 
L 2540.446484 -1318.876003 
L 2538.210416 -1321.112071 
L 2535.974348 -1318.876003 
L 2538.210416 -1316.639935 
L 2535.974348 -1314.403867 
z
" clip-path="url(#p21ccd133df)" style="fill: #98df8a; fill-opacity: 0.7; stroke: #98df8a; stroke-opacity: 0.7; stroke-width: 0.715542"/>
    <path d="M 2393.864957 -1322.553823 
L 2389.392821 -1313.609551 
L 2398.337093 -1313.609551 
z
" clip-path="url(#p21ccd133df)" style="fill: #ff7f0e; fill-opacity: 0.7; stroke: #ff7f0e; stroke-opacity: 0.7; stroke-width: 0.715542"/>
    <path d="M 2574.11316 -1322.463305 
L 2569.641024 -1313.519034 
L 2578.585296 -1313.519034 
z
" clip-path="url(#p21ccd133df)" style="fill: #ff7f0e; fill-opacity: 0.7; stroke: #ff7f0e; stroke-opacity: 0.7; stroke-width: 0.715542"/>
    <path d="M 2486.456433 -1313.229657 
C 2487.642457 -1313.229657 2488.780065 -1313.700869 2489.618711 -1314.539515 
C 2490.457357 -1315.378161 2490.928569 -1316.515769 2490.928569 -1317.701793 
C 2490.928569 -1318.887817 2490.457357 -1320.025425 2489.618711 -1320.864071 
C 2488.780065 -1321.702716 2487.642457 -1322.173929 2486.456433 -1322.173929 
C 2485.270409 -1322.173929 2484.132801 -1321.702716 2483.294155 -1320.864071 
C 2482.45551 -1320.025425 2481.984297 -1318.887817 2481.984297 -1317.701793 
C 2481.984297 -1316.515769 2482.45551 -1315.378161 2483.294155 -1314.539515 
C 2484.132801 -1313.700869 2485.270409 -1313.229657 2486.456433 -1313.229657 
z
" clip-path="url(#p21ccd133df)" style="fill: #1f77b4; fill-opacity: 0.7; stroke: #1f77b4; stroke-opacity: 0.7; stroke-width: 0.715542"/>
    <path d="M 2695.371633 -1313.382354 
C 2696.557657 -1313.382354 2697.695265 -1313.853567 2698.533911 -1314.692213 
C 2699.372557 -1315.530858 2699.843769 -1316.668466 2699.843769 -1317.85449 
C 2699.843769 -1319.040515 2699.372557 -1320.178122 2698.533911 -1321.016768 
C 2697.695265 -1321.855414 2696.557657 -1322.326626 2695.371633 -1322.326626 
C 2694.185609 -1322.326626 2693.048001 -1321.855414 2692.209355 -1321.016768 
C 2691.37071 -1320.178122 2690.899497 -1319.040515 2690.899497 -1317.85449 
C 2690.899497 -1316.668466 2691.37071 -1315.530858 2692.209355 -1314.692213 
C 2693.048001 -1313.853567 2694.185609 -1313.382354 2695.371633 -1313.382354 
z
" clip-path="url(#p21ccd133df)" style="fill: #1f77b4; fill-opacity: 0.7; stroke: #1f77b4; stroke-opacity: 0.7; stroke-width: 0.715542"/>
    <path d="M 2276.018056 -1313.85215 
L 2278.99948 -1313.85215 
L 2278.99948 -1316.833574 
L 2281.980904 -1316.833574 
L 2281.980904 -1319.814998 
L 2278.99948 -1319.814998 
L 2278.99948 -1322.796422 
L 2276.018056 -1322.796422 
L 2276.018056 -1319.814998 
L 2273.036632 -1319.814998 
L 2273.036632 -1316.833574 
L 2276.018056 -1316.833574 
z
" clip-path="url(#p21ccd133df)" style="fill: #2ca02c; fill-opacity: 0.7; stroke: #2ca02c; stroke-opacity: 0.7; stroke-width: 0.715542"/>
    <path d="M 2488.536921 -1313.459693 
L 2491.518345 -1313.459693 
L 2491.518345 -1316.441117 
L 2494.499769 -1316.441117 
L 2494.499769 -1319.422541 
L 2491.518345 -1319.422541 
L 2491.518345 -1322.403965 
L 2488.536921 -1322.403965 
L 2488.536921 -1319.422541 
L 2485.555497 -1319.422541 
L 2485.555497 -1316.441117 
L 2488.536921 -1316.441117 
z
" clip-path="url(#p21ccd133df)" style="fill: #2ca02c; fill-opacity: 0.7; stroke: #2ca02c; stroke-opacity: 0.7; stroke-width: 0.715542"/>
    <path d="M 2309.552171 -1313.545121 
L 2315.876727 -1319.869676 
L 2309.552171 -1326.194232 
L 2303.227616 -1319.869676 
z
" clip-path="url(#p21ccd133df)" style="fill: #ffbb78; fill-opacity: 0.7; stroke: #ffbb78; stroke-opacity: 0.7; stroke-width: 0.715542"/>
    <path d="M 2566.678571 -1312.041894 
L 2573.003127 -1318.366449 
L 2566.678571 -1324.691004 
L 2560.354016 -1318.366449 
z
" clip-path="url(#p21ccd133df)" style="fill: #ffbb78; fill-opacity: 0.7; stroke: #ffbb78; stroke-opacity: 0.7; stroke-width: 0.715542"/>
    <path d="M 2650.540889 -1313.075745 
L 2652.776957 -1315.311813 
L 2655.013025 -1313.075745 
L 2657.249093 -1315.311813 
L 2655.013025 -1317.547881 
L 2657.249093 -1319.783949 
L 2655.013025 -1322.020017 
L 2652.776957 -1319.783949 
L 2650.540889 -1322.020017 
L 2648.304821 -1319.783949 
L 2650.540889 -1317.547881 
L 2648.304821 -1315.311813 
z
" clip-path="url(#p21ccd133df)" style="fill: #800080; fill-opacity: 0.7; stroke: #800080; stroke-opacity: 0.7; stroke-width: 0.715542"/>
    <path d="M 2579.019492 -1313.098558 
L 2581.25556 -1315.334626 
L 2583.491628 -1313.098558 
L 2585.727696 -1315.334626 
L 2583.491628 -1317.570694 
L 2585.727696 -1319.806762 
L 2583.491628 -1322.04283 
L 2581.25556 -1319.806762 
L 2579.019492 -1322.04283 
L 2576.783424 -1319.806762 
L 2579.019492 -1317.570694 
L 2576.783424 -1315.334626 
z
" clip-path="url(#p21ccd133df)" style="fill: #800080; fill-opacity: 0.7; stroke: #800080; stroke-opacity: 0.7; stroke-width: 0.715542"/>
    <path d="M 2580.318111 -1312.923459 
L 2582.554179 -1315.159527 
L 2584.790247 -1312.923459 
L 2587.026315 -1315.159527 
L 2584.790247 -1317.395595 
L 2587.026315 -1319.631663 
L 2584.790247 -1321.867731 
L 2582.554179 -1319.631663 
L 2580.318111 -1321.867731 
L 2578.082043 -1319.631663 
L 2580.318111 -1317.395595 
L 2578.082043 -1315.159527 
z
" clip-path="url(#p21ccd133df)" style="fill: #800080; fill-opacity: 0.7; stroke: #800080; stroke-opacity: 0.7; stroke-width: 0.715542"/>
    <path d="M 2575.736433 -1313.023929 
C 2576.922457 -1313.023929 2578.060065 -1313.495142 2578.898711 -1314.333788 
C 2579.737357 -1315.172434 2580.208569 -1316.310041 2580.208569 -1317.496065 
C 2580.208569 -1318.68209 2579.737357 -1319.819697 2578.898711 -1320.658343 
C 2578.060065 -1321.496989 2576.922457 -1321.968201 2575.736433 -1321.968201 
C 2574.550409 -1321.968201 2573.412801 -1321.496989 2572.574155 -1320.658343 
C 2571.73551 -1319.819697 2571.264297 -1318.68209 2571.264297 -1317.496065 
C 2571.264297 -1316.310041 2571.73551 -1315.172434 2572.574155 -1314.333788 
C 2573.412801 -1313.495142 2574.550409 -1313.023929 2575.736433 -1313.023929 
z
" clip-path="url(#p21ccd133df)" style="fill-opacity: 0.7; stroke: #000000; stroke-opacity: 0.7; stroke-width: 0.715542"/>
   </g>
   <g id="patch_10">
    <path d="M 568.299982 345.154676 
L 568.299982 12.514676 
" style="fill: none; stroke: #cccccc; stroke-width: 1.25; stroke-linejoin: miter; stroke-linecap: square"/>
   </g>
   <g id="patch_11">
    <path d="M 974.118164 345.154676 
L 974.118164 12.514676 
" style="fill: none; stroke: #cccccc; stroke-width: 1.25; stroke-linejoin: miter; stroke-linecap: square"/>
   </g>
   <g id="patch_12">
    <path d="M 568.299982 345.154676 
L 974.118164 345.154676 
" style="fill: none; stroke: #cccccc; stroke-width: 1.25; stroke-linejoin: miter; stroke-linecap: square"/>
   </g>
   <g id="patch_13">
    <path d="M 568.299982 12.514676 
L 974.118164 12.514676 
" style="fill: none; stroke: #cccccc; stroke-width: 1.25; stroke-linejoin: miter; stroke-linecap: square"/>
   </g>
  </g>
  <g id="text_30">
   <!-- Efficacy -->
   <g style="fill: #262626" transform="translate(479.459152 384.263163) scale(0.1944 -0.1944)">
    <defs>
     <path id="ArialMT-45" d="M 506 0 
L 506 4581 
L 3819 4581 
L 3819 4041 
L 1113 4041 
L 1113 2638 
L 3647 2638 
L 3647 2100 
L 1113 2100 
L 1113 541 
L 3925 541 
L 3925 0 
L 506 0 
z
" transform="scale(0.015625)"/>
     <path id="ArialMT-63" d="M 2588 1216 
L 3141 1144 
Q 3050 572 2676 248 
Q 2303 -75 1759 -75 
Q 1078 -75 664 370 
Q 250 816 250 1647 
Q 250 2184 428 2587 
Q 606 2991 970 3192 
Q 1334 3394 1763 3394 
Q 2303 3394 2647 3120 
Q 2991 2847 3088 2344 
L 2541 2259 
Q 2463 2594 2264 2762 
Q 2066 2931 1784 2931 
Q 1359 2931 1093 2626 
Q 828 2322 828 1663 
Q 828 994 1084 691 
Q 1341 388 1753 388 
Q 2084 388 2306 591 
Q 2528 794 2588 1216 
z
" transform="scale(0.015625)"/>
    </defs>
    <use xlink:href="#ArialMT-45"/>
    <use xlink:href="#ArialMT-66" transform="translate(66.699219 0)"/>
    <use xlink:href="#ArialMT-66" transform="translate(92.732422 0)"/>
    <use xlink:href="#ArialMT-69" transform="translate(120.515625 0)"/>
    <use xlink:href="#ArialMT-63" transform="translate(142.732422 0)"/>
    <use xlink:href="#ArialMT-61" transform="translate(192.732422 0)"/>
    <use xlink:href="#ArialMT-63" transform="translate(248.347656 0)"/>
    <use xlink:href="#ArialMT-79" transform="translate(298.347656 0)"/>
   </g>
  </g>
 </g>
 <defs>
  <clipPath id="p560dfd7e14">
   <rect x="81.318164" y="12.514676" width="405.818182" height="332.64"/>
  </clipPath>
  <clipPath id="p21ccd133df">
   <rect x="568.299982" y="12.514676" width="405.818182" height="332.64"/>
  </clipPath>
 </defs>
</svg>
