<?xml version="1.0" encoding="utf-8" standalone="no"?>
<!DOCTYPE svg PUBLIC "-//W3C//DTD SVG 1.1//EN"
  "http://www.w3.org/Graphics/SVG/1.1/DTD/svg11.dtd">
<svg xmlns:xlink="http://www.w3.org/1999/xlink" width="424.837406pt" height="325.062pt" viewBox="0 0 424.837406 325.062" xmlns="http://www.w3.org/2000/svg" version="1.1">
 <metadata>
  <rdf:RDF xmlns:dc="http://purl.org/dc/elements/1.1/" xmlns:cc="http://creativecommons.org/ns#" xmlns:rdf="http://www.w3.org/1999/02/22-rdf-syntax-ns#">
   <cc:Work>
    <dc:type rdf:resource="http://purl.org/dc/dcmitype/StillImage"/>
    <dc:date>2026-09-03T14:13:09.735227</dc:date>
    <dc:format>image/svg+xml</dc:format>
    <dc:creator>
     <cc:Agent>
      <dc:title>Matplotlib v3.11.0, https://matplotlib.org/</dc:title>
     </cc:Agent>
    </dc:creator>
   </cc:Work>
  </rdf:RDF>
 </metadata>
 <defs>
  <style type="text/css">*{stroke-linejoin: round; stroke-linecap: butt}</style>
 </defs>
 <g id="figure_1">
  <g id="patch_1">
   <path d="M 0 325.062 
L 424.837406 325.062 
L 424.837406 0 
L 0 0 
z
" style="fill: #ffffff"/>
  </g>
  <g id="axes_1">
   <g id="patch_2">
    <path d="M 60.517406 273.312 
L 417.637406 273.312 
L 417.637406 7.2 
L 60.517406 7.2 
z
" style="fill: #ffffff"/>
   </g>
   <g id="matplotlib.axis_1">
    <g id="xtick_1">
     <g id="line2d_1">
      <path d="M 76.264703 273.312 
L 76.264703 7.2 
" clip-path="url(#p4485a16d5b)" style="fill: none; stroke: #cccccc; stroke-opacity: 0.3; stroke-linecap: round"/>
     </g>
     <g id="text_1">
      <!-- 0.0 -->
      <g style="fill: #262626" transform="translate(64.456632 294.09452) scale(0.1485 -0.1485)">
       <defs>
        <path id="DejaVuSans-13" d="M 2034 4250 
Q 1547 4250 1301 3770 
Q 1056 3291 1056 2328 
Q 1056 1369 1301 889 
Q 1547 409 2034 409 
Q 2525 409 2770 889 
Q 3016 1369 3016 2328 
Q 3016 3291 2770 3770 
Q 2525 4250 2034 4250 
z
M 2034 4750 
Q 2819 4750 3233 4129 
Q 3647 3509 3647 2328 
Q 3647 1150 3233 529 
Q 2819 -91 2034 -91 
Q 1250 -91 836 529 
Q 422 1150 422 2328 
Q 422 3509 836 4129 
Q 1250 4750 2034 4750 
z
" transform="scale(0.015625)"/>
        <path id="DejaVuSans-11" d="M 684 794 
L 1344 794 
L 1344 0 
L 684 0 
L 684 794 
z
" transform="scale(0.015625)"/>
       </defs>
       <use xlink:href="#DejaVuSans-13"/>
       <use xlink:href="#DejaVuSans-11" transform="translate(63.625 0)"/>
       <use xlink:href="#DejaVuSans-13" transform="translate(95.40625 0)"/>
      </g>
     </g>
    </g>
    <g id="xtick_2">
     <g id="line2d_2">
      <path d="M 130.382519 273.312 
L 130.382519 7.2 
" clip-path="url(#p4485a16d5b)" style="fill: none; stroke: #cccccc; stroke-opacity: 0.3; stroke-linecap: round"/>
     </g>
     <g id="text_2">
      <!-- 0.2 -->
      <g style="fill: #262626" transform="translate(118.574448 294.09452) scale(0.1485 -0.1485)">
       <defs>
        <path id="DejaVuSans-15" d="M 1228 531 
L 3431 531 
L 3431 0 
L 469 0 
L 469 531 
Q 828 903 1448 1529 
Q 2069 2156 2228 2338 
Q 2531 2678 2651 2914 
Q 2772 3150 2772 3378 
Q 2772 3750 2511 3984 
Q 2250 4219 1831 4219 
Q 1534 4219 1204 4116 
Q 875 4013 500 3803 
L 500 4441 
Q 881 4594 1212 4672 
Q 1544 4750 1819 4750 
Q 2544 4750 2975 4387 
Q 3406 4025 3406 3419 
Q 3406 3131 3298 2873 
Q 3191 2616 2906 2266 
Q 2828 2175 2409 1742 
Q 1991 1309 1228 531 
z
" transform="scale(0.015625)"/>
       </defs>
       <use xlink:href="#DejaVuSans-13"/>
       <use xlink:href="#DejaVuSans-11" transform="translate(63.625 0)"/>
       <use xlink:href="#DejaVuSans-15" transform="translate(95.40625 0)"/>
      </g>
     </g>
    </g>
    <g id="xtick_3">
     <g id="line2d_3">
      <path d="M 184.500335 273.312 
L 184.500335 7.2 
" clip-path="url(#p4485a16d5b)" style="fill: none; stroke: #cccccc; stroke-opacity: 0.3; stroke-linecap: round"/>
     </g>
     <g id="text_3">
      <!-- 0.4 -->
      <g style="fill: #262626" transform="translate(172.692264 294.09452) scale(0.1485 -0.1485)">
       <defs>
        <path id="DejaVuSans-17" d="M 2419 4116 
L 825 1625 
L 2419 1625 
L 2419 4116 
z
M 2253 4666 
L 3047 4666 
L 3047 1625 
L 3713 1625 
L 3713 1100 
L 3047 1100 
L 3047 0 
L 2419 0 
L 2419 1100 
L 313 1100 
L 313 1709 
L 2253 4666 
z
" transform="scale(0.015625)"/>
       </defs>
       <use xlink:href="#DejaVuSans-13"/>
       <use xlink:href="#DejaVuSans-11" transform="translate(63.625 0)"/>
       <use xlink:href="#DejaVuSans-17" transform="translate(95.40625 0)"/>
      </g>
     </g>
    </g>
    <g id="xtick_4">
     <g id="line2d_4">
      <path d="M 238.618151 273.312 
L 238.618151 7.2 
" clip-path="url(#p4485a16d5b)" style="fill: none; stroke: #cccccc; stroke-opacity: 0.3; stroke-linecap: round"/>
     </g>
     <g id="text_4">
      <!-- 0.6 -->
      <g style="fill: #262626" transform="translate(226.81008 294.09452) scale(0.1485 -0.1485)">
       <defs>
        <path id="DejaVuSans-19" d="M 2113 2584 
Q 1688 2584 1439 2293 
Q 1191 2003 1191 1497 
Q 1191 994 1439 701 
Q 1688 409 2113 409 
Q 2538 409 2786 701 
Q 3034 994 3034 1497 
Q 3034 2003 2786 2293 
Q 2538 2584 2113 2584 
z
M 3366 4563 
L 3366 3988 
Q 3128 4100 2886 4159 
Q 2644 4219 2406 4219 
Q 1781 4219 1451 3797 
Q 1122 3375 1075 2522 
Q 1259 2794 1537 2939 
Q 1816 3084 2150 3084 
Q 2853 3084 3261 2657 
Q 3669 2231 3669 1497 
Q 3669 778 3244 343 
Q 2819 -91 2113 -91 
Q 1303 -91 875 529 
Q 447 1150 447 2328 
Q 447 3434 972 4092 
Q 1497 4750 2381 4750 
Q 2619 4750 2861 4703 
Q 3103 4656 3366 4563 
z
" transform="scale(0.015625)"/>
       </defs>
       <use xlink:href="#DejaVuSans-13"/>
       <use xlink:href="#DejaVuSans-11" transform="translate(63.625 0)"/>
       <use xlink:href="#DejaVuSans-19" transform="translate(95.40625 0)"/>
      </g>
     </g>
    </g>
    <g id="xtick_5">
     <g id="line2d_5">
      <path d="M 292.735967 273.312 
L 292.735967 7.2 
" clip-path="url(#p4485a16d5b)" style="fill: none; stroke: #cccccc; stroke-opacity: 0.3; stroke-linecap: round"/>
     </g>
     <g id="text_5">
      <!-- 0.8 -->
      <g style="fill: #262626" transform="translate(280.927897 294.09452) scale(0.1485 -0.1485)">
       <defs>
        <path id="DejaVuSans-1b" d="M 2034 2216 
Q 1584 2216 1326 1975 
Q 1069 1734 1069 1313 
Q 1069 891 1326 650 
Q 1584 409 2034 409 
Q 2484 409 2743 651 
Q 3003 894 3003 1313 
Q 3003 1734 2745 1975 
Q 2488 2216 2034 2216 
z
M 1403 2484 
Q 997 2584 770 2862 
Q 544 3141 544 3541 
Q 544 4100 942 4425 
Q 1341 4750 2034 4750 
Q 2731 4750 3128 4425 
Q 3525 4100 3525 3541 
Q 3525 3141 3298 2862 
Q 3072 2584 2669 2484 
Q 3125 2378 3379 2068 
Q 3634 1759 3634 1313 
Q 3634 634 3220 271 
Q 2806 -91 2034 -91 
Q 1263 -91 848 271 
Q 434 634 434 1313 
Q 434 1759 690 2068 
Q 947 2378 1403 2484 
z
M 1172 3481 
Q 1172 3119 1398 2916 
Q 1625 2713 2034 2713 
Q 2441 2713 2670 2916 
Q 2900 3119 2900 3481 
Q 2900 3844 2670 4047 
Q 2441 4250 2034 4250 
Q 1625 4250 1398 4047 
Q 1172 3844 1172 3481 
z
" transform="scale(0.015625)"/>
       </defs>
       <use xlink:href="#DejaVuSans-13"/>
       <use xlink:href="#DejaVuSans-11" transform="translate(63.625 0)"/>
       <use xlink:href="#DejaVuSans-1b" transform="translate(95.40625 0)"/>
      </g>
     </g>
    </g>
    <g id="xtick_6">
     <g id="line2d_6">
      <path d="M 346.853783 273.312 
L 346.853783 7.2 
" clip-path="url(#p4485a16d5b)" style="fill: none; stroke: #cccccc; stroke-opacity: 0.3; stroke-linecap: round"/>
     </g>
     <g id="text_6">
      <!-- 1.0 -->
      <g style="fill: #262626" transform="translate(335.045713 294.09452) scale(0.1485 -0.1485)">
       <defs>
        <path id="DejaVuSans-14" d="M 794 531 
L 1825 531 
L 1825 4091 
L 703 3866 
L 703 4441 
L 1819 4666 
L 2450 4666 
L 2450 531 
L 3481 531 
L 3481 0 
L 794 0 
L 794 531 
z
" transform="scale(0.015625)"/>
       </defs>
       <use xlink:href="#DejaVuSans-14"/>
       <use xlink:href="#DejaVuSans-11" transform="translate(63.625 0)"/>
       <use xlink:href="#DejaVuSans-13" transform="translate(95.40625 0)"/>
      </g>
     </g>
    </g>
    <g id="xtick_7">
     <g id="line2d_7">
      <path d="M 400.971599 273.312 
L 400.971599 7.2 
" clip-path="url(#p4485a16d5b)" style="fill: none; stroke: #cccccc; stroke-opacity: 0.3; stroke-linecap: round"/>
     </g>
     <g id="text_7">
      <!-- 1.2 -->
      <g style="fill: #262626" transform="translate(389.163529 294.09452) scale(0.1485 -0.1485)">
       <use xlink:href="#DejaVuSans-14"/>
       <use xlink:href="#DejaVuSans-11" transform="translate(63.625 0)"/>
       <use xlink:href="#DejaVuSans-15" transform="translate(95.40625 0)"/>
      </g>
     </g>
    </g>
    <g id="text_8">
     <!-- Forget m-entropy -->
     <g style="fill: #262626" transform="translate(168.537797 313.970203) scale(0.162 -0.162)">
      <defs>
       <path id="DejaVuSans-29" d="M 628 4666 
L 3309 4666 
L 3309 4134 
L 1259 4134 
L 1259 2759 
L 3109 2759 
L 3109 2228 
L 1259 2228 
L 1259 0 
L 628 0 
L 628 4666 
z
" transform="scale(0.015625)"/>
       <path id="DejaVuSans-52" d="M 1959 3097 
Q 1497 3097 1228 2736 
Q 959 2375 959 1747 
Q 959 1119 1226 758 
Q 1494 397 1959 397 
Q 2419 397 2687 759 
Q 2956 1122 2956 1747 
Q 2956 2369 2687 2733 
Q 2419 3097 1959 3097 
z
M 1959 3584 
Q 2709 3584 3137 3096 
Q 3566 2609 3566 1747 
Q 3566 888 3137 398 
Q 2709 -91 1959 -91 
Q 1206 -91 779 398 
Q 353 888 353 1747 
Q 353 2609 779 3096 
Q 1206 3584 1959 3584 
z
" transform="scale(0.015625)"/>
       <path id="DejaVuSans-55" d="M 2631 2963 
Q 2534 3019 2420 3045 
Q 2306 3072 2169 3072 
Q 1681 3072 1420 2755 
Q 1159 2438 1159 1844 
L 1159 0 
L 581 0 
L 581 3500 
L 1159 3500 
L 1159 2956 
Q 1341 3275 1631 3429 
Q 1922 3584 2338 3584 
Q 2397 3584 2469 3576 
Q 2541 3569 2628 3553 
L 2631 2963 
z
" transform="scale(0.015625)"/>
       <path id="DejaVuSans-4a" d="M 2906 1791 
Q 2906 2416 2648 2759 
Q 2391 3103 1925 3103 
Q 1463 3103 1205 2759 
Q 947 2416 947 1791 
Q 947 1169 1205 825 
Q 1463 481 1925 481 
Q 2391 481 2648 825 
Q 2906 1169 2906 1791 
z
M 3481 434 
Q 3481 -459 3084 -895 
Q 2688 -1331 1869 -1331 
Q 1566 -1331 1297 -1286 
Q 1028 -1241 775 -1147 
L 775 -588 
Q 1028 -725 1275 -790 
Q 1522 -856 1778 -856 
Q 2344 -856 2625 -561 
Q 2906 -266 2906 331 
L 2906 616 
Q 2728 306 2450 153 
Q 2172 0 1784 0 
Q 1141 0 747 490 
Q 353 981 353 1791 
Q 353 2603 747 3093 
Q 1141 3584 1784 3584 
Q 2172 3584 2450 3431 
Q 2728 3278 2906 2969 
L 2906 3500 
L 3481 3500 
L 3481 434 
z
" transform="scale(0.015625)"/>
       <path id="DejaVuSans-48" d="M 3597 1894 
L 3597 1613 
L 953 1613 
Q 991 1019 1311 708 
Q 1631 397 2203 397 
Q 2534 397 2845 478 
Q 3156 559 3463 722 
L 3463 178 
Q 3153 47 2828 -22 
Q 2503 -91 2169 -91 
Q 1331 -91 842 396 
Q 353 884 353 1716 
Q 353 2575 817 3079 
Q 1281 3584 2069 3584 
Q 2775 3584 3186 3129 
Q 3597 2675 3597 1894 
z
M 3022 2063 
Q 3016 2534 2758 2815 
Q 2500 3097 2075 3097 
Q 1594 3097 1305 2825 
Q 1016 2553 972 2059 
L 3022 2063 
z
" transform="scale(0.015625)"/>
       <path id="DejaVuSans-57" d="M 1172 4494 
L 1172 3500 
L 2356 3500 
L 2356 3053 
L 1172 3053 
L 1172 1153 
Q 1172 725 1289 603 
Q 1406 481 1766 481 
L 2356 481 
L 2356 0 
L 1766 0 
Q 1100 0 847 248 
Q 594 497 594 1153 
L 594 3053 
L 172 3053 
L 172 3500 
L 594 3500 
L 594 4494 
L 1172 4494 
z
" transform="scale(0.015625)"/>
       <path id="DejaVuSans-3" transform="scale(0.015625)"/>
       <path id="DejaVuSans-50" d="M 3328 2828 
Q 3544 3216 3844 3400 
Q 4144 3584 4550 3584 
Q 5097 3584 5394 3201 
Q 5691 2819 5691 2113 
L 5691 0 
L 5113 0 
L 5113 2094 
Q 5113 2597 4934 2840 
Q 4756 3084 4391 3084 
Q 3944 3084 3684 2787 
Q 3425 2491 3425 1978 
L 3425 0 
L 2847 0 
L 2847 2094 
Q 2847 2600 2669 2842 
Q 2491 3084 2119 3084 
Q 1678 3084 1418 2786 
Q 1159 2488 1159 1978 
L 1159 0 
L 581 0 
L 581 3500 
L 1159 3500 
L 1159 2956 
Q 1356 3278 1631 3431 
Q 1906 3584 2284 3584 
Q 2666 3584 2933 3390 
Q 3200 3197 3328 2828 
z
" transform="scale(0.015625)"/>
       <path id="DejaVuSans-10" d="M 313 2009 
L 1997 2009 
L 1997 1497 
L 313 1497 
L 313 2009 
z
" transform="scale(0.015625)"/>
       <path id="DejaVuSans-51" d="M 3513 2113 
L 3513 0 
L 2938 0 
L 2938 2094 
Q 2938 2591 2744 2837 
Q 2550 3084 2163 3084 
Q 1697 3084 1428 2787 
Q 1159 2491 1159 1978 
L 1159 0 
L 581 0 
L 581 3500 
L 1159 3500 
L 1159 2956 
Q 1366 3272 1645 3428 
Q 1925 3584 2291 3584 
Q 2894 3584 3203 3211 
Q 3513 2838 3513 2113 
z
" transform="scale(0.015625)"/>
       <path id="DejaVuSans-53" d="M 1159 525 
L 1159 -1331 
L 581 -1331 
L 581 3500 
L 1159 3500 
L 1159 2969 
Q 1341 3281 1617 3432 
Q 1894 3584 2278 3584 
Q 2916 3584 3314 3078 
Q 3713 2572 3713 1747 
Q 3713 922 3314 415 
Q 2916 -91 2278 -91 
Q 1894 -91 1617 61 
Q 1341 213 1159 525 
z
M 3116 1747 
Q 3116 2381 2855 2742 
Q 2594 3103 2138 3103 
Q 1681 3103 1420 2742 
Q 1159 2381 1159 1747 
Q 1159 1113 1420 752 
Q 1681 391 2138 391 
Q 2594 391 2855 752 
Q 3116 1113 3116 1747 
z
" transform="scale(0.015625)"/>
       <path id="DejaVuSans-5c" d="M 2059 -325 
Q 1816 -950 1584 -1140 
Q 1353 -1331 966 -1331 
L 506 -1331 
L 506 -850 
L 844 -850 
Q 1081 -850 1212 -737 
Q 1344 -625 1503 -206 
L 1606 56 
L 191 3500 
L 800 3500 
L 1894 763 
L 2988 3500 
L 3597 3500 
L 2059 -325 
z
" transform="scale(0.015625)"/>
      </defs>
      <use xlink:href="#DejaVuSans-29"/>
      <use xlink:href="#DejaVuSans-52" transform="translate(53.953125 0)"/>
      <use xlink:href="#DejaVuSans-55" transform="translate(115.140625 0)"/>
      <use xlink:href="#DejaVuSans-4a" transform="translate(154.5 0)"/>
      <use xlink:href="#DejaVuSans-48" transform="translate(217.984375 0)"/>
      <use xlink:href="#DejaVuSans-57" transform="translate(279.515625 0)"/>
      <use xlink:href="#DejaVuSans-3" transform="translate(318.71875 0)"/>
      <use xlink:href="#DejaVuSans-50" transform="translate(350.5 0)"/>
      <use xlink:href="#DejaVuSans-10" transform="translate(447.90625 0)"/>
      <use xlink:href="#DejaVuSans-48" transform="translate(483.984375 0)"/>
      <use xlink:href="#DejaVuSans-51" transform="translate(545.515625 0)"/>
      <use xlink:href="#DejaVuSans-57" transform="translate(608.890625 0)"/>
      <use xlink:href="#DejaVuSans-55" transform="translate(648.09375 0)"/>
      <use xlink:href="#DejaVuSans-52" transform="translate(687 0)"/>
      <use xlink:href="#DejaVuSans-53" transform="translate(748.1875 0)"/>
      <use xlink:href="#DejaVuSans-5c" transform="translate(811.671875 0)"/>
     </g>
    </g>
   </g>
   <g id="matplotlib.axis_2">
    <g id="ytick_1">
     <g id="line2d_8">
      <path d="M 60.517406 261.313688 
L 417.637406 261.313688 
" clip-path="url(#p4485a16d5b)" style="fill: none; stroke: #cccccc; stroke-opacity: 0.3; stroke-linecap: round"/>
     </g>
     <g id="text_9">
      <!-- 0.0 -->
      <g style="fill: #262626" transform="translate(27.401266 266.954948) scale(0.1485 -0.1485)">
       <use xlink:href="#DejaVuSans-13"/>
       <use xlink:href="#DejaVuSans-11" transform="translate(63.625 0)"/>
       <use xlink:href="#DejaVuSans-13" transform="translate(95.40625 0)"/>
      </g>
     </g>
    </g>
    <g id="ytick_2">
     <g id="line2d_9">
      <path d="M 60.517406 200.258549 
L 417.637406 200.258549 
" clip-path="url(#p4485a16d5b)" style="fill: none; stroke: #cccccc; stroke-opacity: 0.3; stroke-linecap: round"/>
     </g>
     <g id="text_10">
      <!-- 0.1 -->
      <g style="fill: #262626" transform="translate(27.401266 205.899809) scale(0.1485 -0.1485)">
       <use xlink:href="#DejaVuSans-13"/>
       <use xlink:href="#DejaVuSans-11" transform="translate(63.625 0)"/>
       <use xlink:href="#DejaVuSans-14" transform="translate(95.40625 0)"/>
      </g>
     </g>
    </g>
    <g id="ytick_3">
     <g id="line2d_10">
      <path d="M 60.517406 139.203409 
L 417.637406 139.203409 
" clip-path="url(#p4485a16d5b)" style="fill: none; stroke: #cccccc; stroke-opacity: 0.3; stroke-linecap: round"/>
     </g>
     <g id="text_11">
      <!-- 0.2 -->
      <g style="fill: #262626" transform="translate(27.401266 144.844669) scale(0.1485 -0.1485)">
       <use xlink:href="#DejaVuSans-13"/>
       <use xlink:href="#DejaVuSans-11" transform="translate(63.625 0)"/>
       <use xlink:href="#DejaVuSans-15" transform="translate(95.40625 0)"/>
      </g>
     </g>
    </g>
    <g id="ytick_4">
     <g id="line2d_11">
      <path d="M 60.517406 78.14827 
L 417.637406 78.14827 
" clip-path="url(#p4485a16d5b)" style="fill: none; stroke: #cccccc; stroke-opacity: 0.3; stroke-linecap: round"/>
     </g>
     <g id="text_12">
      <!-- 0.3 -->
      <g style="fill: #262626" transform="translate(27.401266 83.78953) scale(0.1485 -0.1485)">
       <defs>
        <path id="DejaVuSans-16" d="M 2597 2516 
Q 3050 2419 3304 2112 
Q 3559 1806 3559 1356 
Q 3559 666 3084 287 
Q 2609 -91 1734 -91 
Q 1441 -91 1130 -33 
Q 819 25 488 141 
L 488 750 
Q 750 597 1062 519 
Q 1375 441 1716 441 
Q 2309 441 2620 675 
Q 2931 909 2931 1356 
Q 2931 1769 2642 2001 
Q 2353 2234 1838 2234 
L 1294 2234 
L 1294 2753 
L 1863 2753 
Q 2328 2753 2575 2939 
Q 2822 3125 2822 3475 
Q 2822 3834 2567 4026 
Q 2313 4219 1838 4219 
Q 1578 4219 1281 4162 
Q 984 4106 628 3988 
L 628 4550 
Q 988 4650 1302 4700 
Q 1616 4750 1894 4750 
Q 2613 4750 3031 4423 
Q 3450 4097 3450 3541 
Q 3450 3153 3228 2886 
Q 3006 2619 2597 2516 
z
" transform="scale(0.015625)"/>
       </defs>
       <use xlink:href="#DejaVuSans-13"/>
       <use xlink:href="#DejaVuSans-11" transform="translate(63.625 0)"/>
       <use xlink:href="#DejaVuSans-16" transform="translate(95.40625 0)"/>
      </g>
     </g>
    </g>
    <g id="ytick_5">
     <g id="line2d_12">
      <path d="M 60.517406 17.093131 
L 417.637406 17.093131 
" clip-path="url(#p4485a16d5b)" style="fill: none; stroke: #cccccc; stroke-opacity: 0.3; stroke-linecap: round"/>
     </g>
     <g id="text_13">
      <!-- 0.4 -->
      <g style="fill: #262626" transform="translate(27.401266 22.73439) scale(0.1485 -0.1485)">
       <use xlink:href="#DejaVuSans-13"/>
       <use xlink:href="#DejaVuSans-11" transform="translate(63.625 0)"/>
       <use xlink:href="#DejaVuSans-17" transform="translate(95.40625 0)"/>
      </g>
     </g>
    </g>
    <g id="text_14">
     <!-- MIA efficacy -->
     <g style="fill: #262626" transform="translate(19.509469 189.230625) rotate(-90) scale(0.162 -0.162)">
      <defs>
       <path id="DejaVuSans-30" d="M 628 4666 
L 1569 4666 
L 2759 1491 
L 3956 4666 
L 4897 4666 
L 4897 0 
L 4281 0 
L 4281 4097 
L 3078 897 
L 2444 897 
L 1241 4097 
L 1241 0 
L 628 0 
L 628 4666 
z
" transform="scale(0.015625)"/>
       <path id="DejaVuSans-2c" d="M 628 4666 
L 1259 4666 
L 1259 0 
L 628 0 
L 628 4666 
z
" transform="scale(0.015625)"/>
       <path id="DejaVuSans-24" d="M 2188 4044 
L 1331 1722 
L 3047 1722 
L 2188 4044 
z
M 1831 4666 
L 2547 4666 
L 4325 0 
L 3669 0 
L 3244 1197 
L 1141 1197 
L 716 0 
L 50 0 
L 1831 4666 
z
" transform="scale(0.015625)"/>
       <path id="DejaVuSans-13b1" d="M 2375 4863 
L 2375 4384 
L 1825 4384 
Q 1516 4384 1394 4259 
Q 1275 4134 1275 3809 
L 1275 3500 
L 2853 3500 
L 2853 3744 
Q 2853 4328 3125 4594 
Q 3213 4681 3334 4741 
Q 3578 4863 3988 4863 
L 4531 4863 
L 4531 4384 
L 3981 4384 
Q 3672 4384 3551 4259 
Q 3431 4134 3431 3809 
L 3431 3500 
L 5588 3500 
L 5588 0 
L 5009 0 
L 5009 3053 
L 3431 3053 
L 3431 0 
L 2853 0 
L 2853 3053 
L 1275 3053 
L 1275 0 
L 697 0 
L 697 3053 
L 147 3053 
L 147 3500 
L 697 3500 
L 697 3744 
Q 697 4328 969 4595 
Q 1241 4863 1831 4863 
L 2375 4863 
z
M 5009 4856 
L 5588 4856 
L 5588 4128 
L 5009 4128 
L 5009 4856 
z
" transform="scale(0.015625)"/>
       <path id="DejaVuSans-46" d="M 3122 3366 
L 3122 2828 
Q 2878 2963 2633 3030 
Q 2388 3097 2138 3097 
Q 1578 3097 1268 2742 
Q 959 2388 959 1747 
Q 959 1106 1268 751 
Q 1578 397 2138 397 
Q 2388 397 2633 464 
Q 2878 531 3122 666 
L 3122 134 
Q 2881 22 2623 -34 
Q 2366 -91 2075 -91 
Q 1284 -91 818 406 
Q 353 903 353 1747 
Q 353 2603 823 3093 
Q 1294 3584 2113 3584 
Q 2378 3584 2631 3529 
Q 2884 3475 3122 3366 
z
" transform="scale(0.015625)"/>
       <path id="DejaVuSans-44" d="M 2194 1759 
Q 1497 1759 1228 1600 
Q 959 1441 959 1056 
Q 959 750 1161 570 
Q 1363 391 1709 391 
Q 2188 391 2477 730 
Q 2766 1069 2766 1631 
L 2766 1759 
L 2194 1759 
z
M 3341 1997 
L 3341 0 
L 2766 0 
L 2766 531 
Q 2569 213 2275 61 
Q 1981 -91 1556 -91 
Q 1019 -91 701 211 
Q 384 513 384 1019 
Q 384 1609 779 1909 
Q 1175 2209 1959 2209 
L 2766 2209 
L 2766 2266 
Q 2766 2663 2505 2880 
Q 2244 3097 1772 3097 
Q 1472 3097 1187 3025 
Q 903 2953 641 2809 
L 641 3341 
Q 956 3463 1253 3523 
Q 1550 3584 1831 3584 
Q 2591 3584 2966 3190 
Q 3341 2797 3341 1997 
z
" transform="scale(0.015625)"/>
      </defs>
      <use xlink:href="#DejaVuSans-30"/>
      <use xlink:href="#DejaVuSans-2c" transform="translate(86.28125 0)"/>
      <use xlink:href="#DejaVuSans-24" transform="translate(115.78125 0)"/>
      <use xlink:href="#DejaVuSans-3" transform="translate(184.1875 0)"/>
      <use xlink:href="#DejaVuSans-48" transform="translate(215.96875 0)"/>
      <use xlink:href="#DejaVuSans-13b1" transform="translate(277.5 0)"/>
      <use xlink:href="#DejaVuSans-46" transform="translate(374.1875 0)"/>
      <use xlink:href="#DejaVuSans-44" transform="translate(429.171875 0)"/>
      <use xlink:href="#DejaVuSans-46" transform="translate(490.453125 0)"/>
      <use xlink:href="#DejaVuSans-5c" transform="translate(545.4375 0)"/>
     </g>
    </g>
   </g>
   <g id="PathCollection_1">
    <path d="M 77.165697 236.093489 
C 78.351722 236.093489 79.489329 235.622276 80.327975 234.78363 
C 81.166621 233.944985 81.637833 232.807377 81.637833 231.621353 
C 81.637833 230.435329 81.166621 229.297721 80.327975 228.459075 
C 79.489329 227.620429 78.351722 227.149217 77.165697 227.149217 
C 75.979673 227.149217 74.842066 227.620429 74.00342 228.459075 
C 73.164774 229.297721 72.693561 230.435329 72.693561 231.621353 
C 72.693561 232.807377 73.164774 233.944985 74.00342 234.78363 
C 74.842066 235.622276 75.979673 236.093489 77.165697 236.093489 
z
" clip-path="url(#p4485a16d5b)" style="fill-opacity: 0.7; stroke: #000000; stroke-opacity: 0.7; stroke-width: 0.715542"/>
    <path d="M 228.479844 136.500345 
L 230.715912 134.264277 
L 232.95198 136.500345 
L 235.188048 134.264277 
L 232.95198 132.028209 
L 235.188048 129.792141 
L 232.95198 127.556073 
L 230.715912 129.792141 
L 228.479844 127.556073 
L 226.243776 129.792141 
L 228.479844 132.028209 
L 226.243776 134.264277 
z
" clip-path="url(#p4485a16d5b)" style="fill: #800080; fill-opacity: 0.7; stroke: #800080; stroke-opacity: 0.7; stroke-width: 0.715542"/>
    <path d="M 233.434174 136.094939 
L 235.670242 133.858871 
L 237.90631 136.094939 
L 240.142378 133.858871 
L 237.90631 131.622803 
L 240.142378 129.386735 
L 237.90631 127.150667 
L 235.670242 129.386735 
L 233.434174 127.150667 
L 231.198106 129.386735 
L 233.434174 131.622803 
L 231.198106 133.858871 
z
" clip-path="url(#p4485a16d5b)" style="fill: #800080; fill-opacity: 0.7; stroke: #800080; stroke-opacity: 0.7; stroke-width: 0.715542"/>
    <path d="M 232.080892 141.194264 
L 234.31696 138.958197 
L 236.553028 141.194264 
L 238.789096 138.958197 
L 236.553028 136.722129 
L 238.789096 134.486061 
L 236.553028 132.249993 
L 234.31696 134.486061 
L 232.080892 132.249993 
L 229.844824 134.486061 
L 232.080892 136.722129 
L 229.844824 138.958197 
z
" clip-path="url(#p4485a16d5b)" style="fill: #800080; fill-opacity: 0.7; stroke: #800080; stroke-opacity: 0.7; stroke-width: 0.715542"/>
    <path d="M 78.196865 227.83395 
C 79.382889 227.83395 80.520497 227.362737 81.359143 226.524091 
C 82.197789 225.685445 82.669001 224.547838 82.669001 223.361814 
C 82.669001 222.175789 82.197789 221.038182 81.359143 220.199536 
C 80.520497 219.36089 79.382889 218.889678 78.196865 218.889678 
C 77.010841 218.889678 75.873233 219.36089 75.034587 220.199536 
C 74.195942 221.038182 73.724729 222.175789 73.724729 223.361814 
C 73.724729 224.547838 74.195942 225.685445 75.034587 226.524091 
C 75.873233 227.362737 77.010841 227.83395 78.196865 227.83395 
z
" clip-path="url(#p4485a16d5b)" style="fill: #1f77b4; fill-opacity: 0.7; stroke: #1f77b4; stroke-opacity: 0.7; stroke-width: 0.715542"/>
    <path d="M 78.810907 225.63108 
C 79.996931 225.63108 81.134539 225.159868 81.973185 224.321222 
C 82.811831 223.482576 83.283043 222.344968 83.283043 221.158944 
C 83.283043 219.97292 82.811831 218.835312 81.973185 217.996666 
C 81.134539 217.158021 79.996931 216.686808 78.810907 216.686808 
C 77.624883 216.686808 76.487275 217.158021 75.648629 217.996666 
C 74.809984 218.835312 74.338771 219.97292 74.338771 221.158944 
C 74.338771 222.344968 74.809984 223.482576 75.648629 224.321222 
C 76.487275 225.159868 77.624883 225.63108 78.810907 225.63108 
z
" clip-path="url(#p4485a16d5b)" style="fill: #1f77b4; fill-opacity: 0.7; stroke: #1f77b4; stroke-opacity: 0.7; stroke-width: 0.715542"/>
    <path d="M 72.833824 237.710229 
L 81.778096 237.710229 
L 81.778096 228.765957 
L 72.833824 228.765957 
z
" clip-path="url(#p4485a16d5b)" style="fill: #aec7e8; fill-opacity: 0.7; stroke: #aec7e8; stroke-opacity: 0.7; stroke-width: 0.715542"/>
    <path d="M 73.49483 232.610904 
L 82.439102 232.610904 
L 82.439102 223.666632 
L 73.49483 223.666632 
z
" clip-path="url(#p4485a16d5b)" style="fill: #aec7e8; fill-opacity: 0.7; stroke: #aec7e8; stroke-opacity: 0.7; stroke-width: 0.715542"/>
    <path d="M 79.532041 211.182077 
L 75.059905 220.126349 
L 84.004177 220.126349 
z
" clip-path="url(#p4485a16d5b)" style="fill: #ff7f0e; fill-opacity: 0.7; stroke: #ff7f0e; stroke-opacity: 0.7; stroke-width: 0.715542"/>
    <path d="M 79.271287 218.113056 
L 74.799151 227.057328 
L 83.743423 227.057328 
z
" clip-path="url(#p4485a16d5b)" style="fill: #ff7f0e; fill-opacity: 0.7; stroke: #ff7f0e; stroke-opacity: 0.7; stroke-width: 0.715542"/>
    <path d="M 91.928415 266.651592 
L 98.25297 260.327037 
L 91.928415 254.002482 
L 85.60386 260.327037 
z
" clip-path="url(#p4485a16d5b)" style="fill: #ffbb78; fill-opacity: 0.7; stroke: #ffbb78; stroke-opacity: 0.7; stroke-width: 0.715542"/>
    <path d="M 91.405472 243.621594 
L 97.730027 237.297039 
L 91.405472 230.972483 
L 85.080917 237.297039 
z
" clip-path="url(#p4485a16d5b)" style="fill: #ffbb78; fill-opacity: 0.7; stroke: #ffbb78; stroke-opacity: 0.7; stroke-width: 0.715542"/>
    <path d="M 76.266305 228.175858 
L 79.247729 228.175858 
L 79.247729 225.194434 
L 82.229153 225.194434 
L 82.229153 222.21301 
L 79.247729 222.21301 
L 79.247729 219.231586 
L 76.266305 219.231586 
L 76.266305 222.21301 
L 73.284881 222.21301 
L 73.284881 225.194434 
L 76.266305 225.194434 
z
" clip-path="url(#p4485a16d5b)" style="fill: #2ca02c; fill-opacity: 0.7; stroke: #2ca02c; stroke-opacity: 0.7; stroke-width: 0.715542"/>
    <path d="M 82.980878 211.803312 
L 85.962302 211.803312 
L 85.962302 208.821888 
L 88.943726 208.821888 
L 88.943726 205.840464 
L 85.962302 205.840464 
L 85.962302 202.85904 
L 82.980878 202.85904 
L 82.980878 205.840464 
L 79.999454 205.840464 
L 79.999454 208.821888 
L 82.980878 208.821888 
z
" clip-path="url(#p4485a16d5b)" style="fill: #2ca02c; fill-opacity: 0.7; stroke: #2ca02c; stroke-opacity: 0.7; stroke-width: 0.715542"/>
    <path d="M 163.743057 241.036513 
L 165.979125 238.800445 
L 168.215193 241.036513 
L 170.451261 238.800445 
L 168.215193 236.564377 
L 170.451261 234.328309 
L 168.215193 232.092241 
L 165.979125 234.328309 
L 163.743057 232.092241 
L 161.506989 234.328309 
L 163.743057 236.564377 
L 161.506989 238.800445 
z
" clip-path="url(#p4485a16d5b)" style="fill: #98df8a; fill-opacity: 0.7; stroke: #98df8a; stroke-opacity: 0.7; stroke-width: 0.715542"/>
    <path d="M 261.525473 94.763052 
L 263.761541 92.526984 
L 265.997609 94.763052 
L 268.233677 92.526984 
L 265.997609 90.290916 
L 268.233677 88.054848 
L 265.997609 85.81878 
L 263.761541 88.054848 
L 261.525473 85.81878 
L 259.289405 88.054848 
L 261.525473 90.290916 
L 259.289405 92.526984 
z
" clip-path="url(#p4485a16d5b)" style="fill: #98df8a; fill-opacity: 0.7; stroke: #98df8a; stroke-opacity: 0.7; stroke-width: 0.715542"/>
    <path d="M 339.442659 192.441506 
L 343.914795 183.497234 
L 334.970524 183.497234 
z
" clip-path="url(#p4485a16d5b)" style="fill: #d62728; fill-opacity: 0.7; stroke: #d62728; stroke-opacity: 0.7; stroke-width: 0.715542"/>
    <path d="M 261.332111 167.887571 
L 265.804247 158.9433 
L 256.859975 158.9433 
z
" clip-path="url(#p4485a16d5b)" style="fill: #d62728; fill-opacity: 0.7; stroke: #d62728; stroke-opacity: 0.7; stroke-width: 0.715542"/>
    <path d="M 77.745751 225.13287 
C 78.931775 225.13287 80.069383 224.661658 80.908029 223.823012 
C 81.746674 222.984366 82.217887 221.846759 82.217887 220.660734 
C 82.217887 219.47471 81.746674 218.337102 80.908029 217.498457 
C 80.069383 216.659811 78.931775 216.188598 77.745751 216.188598 
C 76.559727 216.188598 75.422119 216.659811 74.583473 217.498457 
C 73.744827 218.337102 73.273615 219.47471 73.273615 220.660734 
C 73.273615 221.846759 73.744827 222.984366 74.583473 223.823012 
C 75.422119 224.661658 76.559727 225.13287 77.745751 225.13287 
z
" clip-path="url(#p4485a16d5b)" style="fill: #1f77b4; fill-opacity: 0.7; stroke: #1f77b4; stroke-opacity: 0.7; stroke-width: 0.715542"/>
    <path d="M 78.370332 225.269634 
C 79.556356 225.269634 80.693963 224.798421 81.532609 223.959775 
C 82.371255 223.12113 82.842468 221.983522 82.842468 220.797498 
C 82.842468 219.611473 82.371255 218.473866 81.532609 217.63522 
C 80.693963 216.796574 79.556356 216.325362 78.370332 216.325362 
C 77.184307 216.325362 76.0467 216.796574 75.208054 217.63522 
C 74.369408 218.473866 73.898196 219.611473 73.898196 220.797498 
C 73.898196 221.983522 74.369408 223.12113 75.208054 223.959775 
C 76.0467 224.798421 77.184307 225.269634 78.370332 225.269634 
z
" clip-path="url(#p4485a16d5b)" style="fill: #1f77b4; fill-opacity: 0.7; stroke: #1f77b4; stroke-opacity: 0.7; stroke-width: 0.715542"/>
    <path d="M 73.009549 234.022498 
L 81.953821 234.022498 
L 81.953821 225.078227 
L 73.009549 225.078227 
z
" clip-path="url(#p4485a16d5b)" style="fill: #aec7e8; fill-opacity: 0.7; stroke: #aec7e8; stroke-opacity: 0.7; stroke-width: 0.715542"/>
    <path d="M 73.031016 228.512883 
L 81.975288 228.512883 
L 81.975288 219.568611 
L 73.031016 219.568611 
z
" clip-path="url(#p4485a16d5b)" style="fill: #aec7e8; fill-opacity: 0.7; stroke: #aec7e8; stroke-opacity: 0.7; stroke-width: 0.715542"/>
    <path d="M 79.879211 217.971408 
L 75.407075 226.91568 
L 84.351347 226.91568 
z
" clip-path="url(#p4485a16d5b)" style="fill: #ff7f0e; fill-opacity: 0.7; stroke: #ff7f0e; stroke-opacity: 0.7; stroke-width: 0.715542"/>
    <path d="M 78.918015 225.307794 
L 74.445879 234.252066 
L 83.390151 234.252066 
z
" clip-path="url(#p4485a16d5b)" style="fill: #ff7f0e; fill-opacity: 0.7; stroke: #ff7f0e; stroke-opacity: 0.7; stroke-width: 0.715542"/>
    <path d="M 87.192799 209.68959 
L 93.517355 203.365034 
L 87.192799 197.040479 
L 80.868244 203.365034 
z
" clip-path="url(#p4485a16d5b)" style="fill: #ffbb78; fill-opacity: 0.7; stroke: #ffbb78; stroke-opacity: 0.7; stroke-width: 0.715542"/>
    <path d="M 86.494598 183.445648 
L 92.819153 177.121093 
L 86.494598 170.796538 
L 80.170042 177.121093 
z
" clip-path="url(#p4485a16d5b)" style="fill: #ffbb78; fill-opacity: 0.7; stroke: #ffbb78; stroke-opacity: 0.7; stroke-width: 0.715542"/>
    <path d="M 90.470885 265.337686 
L 96.79544 259.013131 
L 90.470885 252.688575 
L 84.146329 259.013131 
z
" clip-path="url(#p4485a16d5b)" style="fill: #ffbb78; fill-opacity: 0.7; stroke: #ffbb78; stroke-opacity: 0.7; stroke-width: 0.715542"/>
    <path d="M 89.534151 239.821522 
L 95.858706 233.496967 
L 89.534151 227.172411 
L 83.209596 233.496967 
z
" clip-path="url(#p4485a16d5b)" style="fill: #ffbb78; fill-opacity: 0.7; stroke: #ffbb78; stroke-opacity: 0.7; stroke-width: 0.715542"/>
    <path d="M 149.233797 208.262114 
L 151.469864 206.026046 
L 153.705932 208.262114 
L 155.942 206.026046 
L 153.705932 203.789978 
L 155.942 201.55391 
L 153.705932 199.317842 
L 151.469864 201.55391 
L 149.233797 199.317842 
L 146.997729 201.55391 
L 149.233797 203.789978 
L 146.997729 206.026046 
z
" clip-path="url(#p4485a16d5b)" style="fill: #98df8a; fill-opacity: 0.7; stroke: #98df8a; stroke-opacity: 0.7; stroke-width: 0.715542"/>
    <path d="M 196.544893 215.93064 
L 198.780961 213.694572 
L 201.017029 215.93064 
L 203.253097 213.694572 
L 201.017029 211.458504 
L 203.253097 209.222436 
L 201.017029 206.986368 
L 198.780961 209.222436 
L 196.544893 206.986368 
L 194.308825 209.222436 
L 196.544893 211.458504 
L 194.308825 213.694572 
z
" clip-path="url(#p4485a16d5b)" style="fill: #98df8a; fill-opacity: 0.7; stroke: #98df8a; stroke-opacity: 0.7; stroke-width: 0.715542"/>
    <path d="M 77.086369 222.060576 
L 80.067793 222.060576 
L 80.067793 219.079152 
L 83.049217 219.079152 
L 83.049217 216.097728 
L 80.067793 216.097728 
L 80.067793 213.116304 
L 77.086369 213.116304 
L 77.086369 216.097728 
L 74.104945 216.097728 
L 74.104945 219.079152 
L 77.086369 219.079152 
z
" clip-path="url(#p4485a16d5b)" style="fill: #2ca02c; fill-opacity: 0.7; stroke: #2ca02c; stroke-opacity: 0.7; stroke-width: 0.715542"/>
    <path d="M 80.766274 212.926727 
L 83.747698 212.926727 
L 83.747698 209.945303 
L 86.729122 209.945303 
L 86.729122 206.963879 
L 83.747698 206.963879 
L 83.747698 203.982455 
L 80.766274 203.982455 
L 80.766274 206.963879 
L 77.78485 206.963879 
L 77.78485 209.945303 
L 80.766274 209.945303 
z
" clip-path="url(#p4485a16d5b)" style="fill: #2ca02c; fill-opacity: 0.7; stroke: #2ca02c; stroke-opacity: 0.7; stroke-width: 0.715542"/>
    <path d="M 306.171886 143.675545 
L 310.644022 134.731273 
L 301.69975 134.731273 
z
" clip-path="url(#p4485a16d5b)" style="fill: #d62728; fill-opacity: 0.7; stroke: #d62728; stroke-opacity: 0.7; stroke-width: 0.715542"/>
    <path d="M 280.779863 265.57091 
L 285.251999 256.626638 
L 276.307727 256.626638 
z
" clip-path="url(#p4485a16d5b)" style="fill: #d62728; fill-opacity: 0.7; stroke: #d62728; stroke-opacity: 0.7; stroke-width: 0.715542"/>
    <path d="M 78.381001 221.122769 
C 79.567025 221.122769 80.704632 220.651556 81.543278 219.81291 
C 82.381924 218.974264 82.853137 217.836657 82.853137 216.650633 
C 82.853137 215.464608 82.381924 214.327001 81.543278 213.488355 
C 80.704632 212.649709 79.567025 212.178497 78.381001 212.178497 
C 77.194976 212.178497 76.057369 212.649709 75.218723 213.488355 
C 74.380077 214.327001 73.908865 215.464608 73.908865 216.650633 
C 73.908865 217.836657 74.380077 218.974264 75.218723 219.81291 
C 76.057369 220.651556 77.194976 221.122769 78.381001 221.122769 
z
" clip-path="url(#p4485a16d5b)" style="fill: #1f77b4; fill-opacity: 0.7; stroke: #1f77b4; stroke-opacity: 0.7; stroke-width: 0.715542"/>
    <path d="M 77.182375 232.449718 
C 78.3684 232.449718 79.506007 231.978506 80.344653 231.13986 
C 81.183299 230.301214 81.654511 229.163606 81.654511 227.977582 
C 81.654511 226.791558 81.183299 225.65395 80.344653 224.815304 
C 79.506007 223.976659 78.3684 223.505446 77.182375 223.505446 
C 75.996351 223.505446 74.858744 223.976659 74.020098 224.815304 
C 73.181452 225.65395 72.710239 226.791558 72.710239 227.977582 
C 72.710239 229.163606 73.181452 230.301214 74.020098 231.13986 
C 74.858744 231.978506 75.996351 232.449718 77.182375 232.449718 
z
" clip-path="url(#p4485a16d5b)" style="fill: #1f77b4; fill-opacity: 0.7; stroke: #1f77b4; stroke-opacity: 0.7; stroke-width: 0.715542"/>
    <path d="M 72.277998 237.871414 
L 81.222269 237.871414 
L 81.222269 228.927143 
L 72.277998 228.927143 
z
" clip-path="url(#p4485a16d5b)" style="fill: #aec7e8; fill-opacity: 0.7; stroke: #aec7e8; stroke-opacity: 0.7; stroke-width: 0.715542"/>
    <path d="M 73.149963 231.878242 
L 82.094235 231.878242 
L 82.094235 222.93397 
L 73.149963 222.93397 
z
" clip-path="url(#p4485a16d5b)" style="fill: #aec7e8; fill-opacity: 0.7; stroke: #aec7e8; stroke-opacity: 0.7; stroke-width: 0.715542"/>
    <path d="M 83.458889 214.987033 
L 78.986753 223.931305 
L 87.931025 223.931305 
z
" clip-path="url(#p4485a16d5b)" style="fill: #ff7f0e; fill-opacity: 0.7; stroke: #ff7f0e; stroke-opacity: 0.7; stroke-width: 0.715542"/>
    <path d="M 80.813066 214.327638 
L 76.34093 223.27191 
L 85.285202 223.27191 
z
" clip-path="url(#p4485a16d5b)" style="fill: #ff7f0e; fill-opacity: 0.7; stroke: #ff7f0e; stroke-opacity: 0.7; stroke-width: 0.715542"/>
    <path d="M 89.91358 240.500455 
L 96.238136 234.1759 
L 89.91358 227.851345 
L 83.589025 234.1759 
z
" clip-path="url(#p4485a16d5b)" style="fill: #ffbb78; fill-opacity: 0.7; stroke: #ffbb78; stroke-opacity: 0.7; stroke-width: 0.715542"/>
    <path d="M 88.993851 231.996695 
L 95.318406 225.67214 
L 88.993851 219.347585 
L 82.669296 225.67214 
z
" clip-path="url(#p4485a16d5b)" style="fill: #ffbb78; fill-opacity: 0.7; stroke: #ffbb78; stroke-opacity: 0.7; stroke-width: 0.715542"/>
    <path d="M 146.219147 124.699608 
L 148.455215 122.46354 
L 150.691283 124.699608 
L 152.927351 122.46354 
L 150.691283 120.227472 
L 152.927351 117.991404 
L 150.691283 115.755336 
L 148.455215 117.991404 
L 146.219147 115.755336 
L 143.983079 117.991404 
L 146.219147 120.227472 
L 143.983079 122.46354 
z
" clip-path="url(#p4485a16d5b)" style="fill: #98df8a; fill-opacity: 0.7; stroke: #98df8a; stroke-opacity: 0.7; stroke-width: 0.715542"/>
    <path d="M 188.084795 23.768136 
L 190.320863 21.532068 
L 192.556931 23.768136 
L 194.792999 21.532068 
L 192.556931 19.296 
L 194.792999 17.059932 
L 192.556931 14.823864 
L 190.320863 17.059932 
L 188.084795 14.823864 
L 185.848727 17.059932 
L 188.084795 19.296 
L 185.848727 21.532068 
z
" clip-path="url(#p4485a16d5b)" style="fill: #98df8a; fill-opacity: 0.7; stroke: #98df8a; stroke-opacity: 0.7; stroke-width: 0.715542"/>
    <path d="M 76.462343 227.155016 
L 79.443767 227.155016 
L 79.443767 224.173592 
L 82.42519 224.173592 
L 82.42519 221.192168 
L 79.443767 221.192168 
L 79.443767 218.210744 
L 76.462343 218.210744 
L 76.462343 221.192168 
L 73.480919 221.192168 
L 73.480919 224.173592 
L 76.462343 224.173592 
z
" clip-path="url(#p4485a16d5b)" style="fill: #2ca02c; fill-opacity: 0.7; stroke: #2ca02c; stroke-opacity: 0.7; stroke-width: 0.715542"/>
    <path d="M 86.155665 216.257895 
L 89.137089 216.257895 
L 89.137089 213.276471 
L 92.118513 213.276471 
L 92.118513 210.295047 
L 89.137089 210.295047 
L 89.137089 207.313623 
L 86.155665 207.313623 
L 86.155665 210.295047 
L 83.174241 210.295047 
L 83.174241 213.276471 
L 86.155665 213.276471 
z
" clip-path="url(#p4485a16d5b)" style="fill: #2ca02c; fill-opacity: 0.7; stroke: #2ca02c; stroke-opacity: 0.7; stroke-width: 0.715542"/>
    <path d="M 401.404679 241.148854 
L 405.876815 232.204582 
L 396.932543 232.204582 
z
" clip-path="url(#p4485a16d5b)" style="fill: #d62728; fill-opacity: 0.7; stroke: #d62728; stroke-opacity: 0.7; stroke-width: 0.715542"/>
    <path d="M 266.558861 265.688136 
L 271.030997 256.743864 
L 262.086725 256.743864 
z
" clip-path="url(#p4485a16d5b)" style="fill: #d62728; fill-opacity: 0.7; stroke: #d62728; stroke-opacity: 0.7; stroke-width: 0.715542"/>
   </g>
   <g id="patch_3">
    <path d="M 60.517406 273.312 
L 60.517406 7.2 
" style="fill: none; stroke: #cccccc; stroke-width: 1.25; stroke-linejoin: miter; stroke-linecap: square"/>
   </g>
   <g id="patch_4">
    <path d="M 417.637406 273.312 
L 417.637406 7.2 
" style="fill: none; stroke: #cccccc; stroke-width: 1.25; stroke-linejoin: miter; stroke-linecap: square"/>
   </g>
   <g id="patch_5">
    <path d="M 60.517406 273.312 
L 417.637406 273.312 
" style="fill: none; stroke: #cccccc; stroke-width: 1.25; stroke-linejoin: miter; stroke-linecap: square"/>
   </g>
   <g id="patch_6">
    <path d="M 60.517406 7.2 
L 417.637406 7.2 
" style="fill: none; stroke: #cccccc; stroke-width: 1.25; stroke-linejoin: miter; stroke-linecap: square"/>
   </g>
  </g>
 </g>
 <defs>
  <clipPath id="p4485a16d5b">
   <rect x="60.517406" y="7.2" width="357.12" height="266.112"/>
  </clipPath>
 </defs>
</svg>
