<?xml version="1.0" encoding="utf-8" standalone="no"?>
<!DOCTYPE svg PUBLIC "-//W3C//DTD SVG 1.1//EN"
  "http://www.w3.org/Graphics/SVG/1.1/DTD/svg11.dtd">
<svg xmlns:xlink="http://www.w3.org/1999/xlink" width="424.836141pt" height="325.062pt" viewBox="0 0 424.836141 325.062" xmlns="http://www.w3.org/2000/svg" version="1.1">
 <metadata>
  <rdf:RDF xmlns:dc="http://purl.org/dc/elements/1.1/" xmlns:cc="http://creativecommons.org/ns#" xmlns:rdf="http://www.w3.org/1999/02/22-rdf-syntax-ns#">
   <cc:Work>
    <dc:type rdf:resource="http://purl.org/dc/dcmitype/StillImage"/>
    <dc:date>2026-09-03T14:13:15.293329</dc:date>
    <dc:format>image/svg+xml</dc:format>
    <dc:creator>
     <cc:Agent>
      <dc:title>Matplotlib v3.11.0, https://matplotlib.org/</dc:title>
     </cc:Agent>
    </dc:creator>
   </cc:Work>
  </rdf:RDF>
 </metadata>
 <defs>
  <style type="text/css">*{stroke-linejoin: round; stroke-linecap: butt}</style>
 </defs>
 <g id="figure_1">
  <g id="patch_1">
   <path d="M 0 325.062 
L 424.836141 325.062 
L 424.836141 0 
L 0 0 
z
" style="fill: #ffffff"/>
  </g>
  <g id="axes_1">
   <g id="patch_2">
    <path d="M 60.516141 273.312 
L 417.636141 273.312 
L 417.636141 7.2 
L 60.516141 7.2 
z
" style="fill: #ffffff"/>
   </g>
   <g id="matplotlib.axis_1">
    <g id="xtick_1">
     <g id="line2d_1">
      <path d="M 67.515966 273.312 
L 67.515966 7.2 
" clip-path="url(#ped4d7d6c5a)" style="fill: none; stroke: #cccccc; stroke-opacity: 0.3; stroke-linecap: round"/>
     </g>
     <g id="text_1">
      <!-- 77.5 -->
      <g style="fill: #262626" transform="translate(50.983739 294.09452) scale(0.1485 -0.1485)">
       <defs>
        <path id="DejaVuSans-1a" d="M 525 4666 
L 3525 4666 
L 3525 4397 
L 1831 0 
L 1172 0 
L 2766 4134 
L 525 4134 
L 525 4666 
z
" transform="scale(0.015625)"/>
        <path id="DejaVuSans-11" d="M 684 794 
L 1344 794 
L 1344 0 
L 684 0 
L 684 794 
z
" transform="scale(0.015625)"/>
        <path id="DejaVuSans-18" d="M 691 4666 
L 3169 4666 
L 3169 4134 
L 1269 4134 
L 1269 2991 
Q 1406 3038 1543 3061 
Q 1681 3084 1819 3084 
Q 2600 3084 3056 2656 
Q 3513 2228 3513 1497 
Q 3513 744 3044 326 
Q 2575 -91 1722 -91 
Q 1428 -91 1123 -41 
Q 819 9 494 109 
L 494 744 
Q 775 591 1075 516 
Q 1375 441 1709 441 
Q 2250 441 2565 725 
Q 2881 1009 2881 1497 
Q 2881 1984 2565 2268 
Q 2250 2553 1709 2553 
Q 1456 2553 1204 2497 
Q 953 2441 691 2322 
L 691 4666 
z
" transform="scale(0.015625)"/>
       </defs>
       <use xlink:href="#DejaVuSans-1a"/>
       <use xlink:href="#DejaVuSans-1a" transform="translate(63.625 0)"/>
       <use xlink:href="#DejaVuSans-11" transform="translate(127.25 0)"/>
       <use xlink:href="#DejaVuSans-18" transform="translate(159.03125 0)"/>
      </g>
     </g>
    </g>
    <g id="xtick_2">
     <g id="line2d_2">
      <path d="M 121.19562 273.312 
L 121.19562 7.2 
" clip-path="url(#ped4d7d6c5a)" style="fill: none; stroke: #cccccc; stroke-opacity: 0.3; stroke-linecap: round"/>
     </g>
     <g id="text_2">
      <!-- 80.0 -->
      <g style="fill: #262626" transform="translate(104.663394 294.09452) scale(0.1485 -0.1485)">
       <defs>
        <path id="DejaVuSans-1b" d="M 2034 2216 
Q 1584 2216 1326 1975 
Q 1069 1734 1069 1313 
Q 1069 891 1326 650 
Q 1584 409 2034 409 
Q 2484 409 2743 651 
Q 3003 894 3003 1313 
Q 3003 1734 2745 1975 
Q 2488 2216 2034 2216 
z
M 1403 2484 
Q 997 2584 770 2862 
Q 544 3141 544 3541 
Q 544 4100 942 4425 
Q 1341 4750 2034 4750 
Q 2731 4750 3128 4425 
Q 3525 4100 3525 3541 
Q 3525 3141 3298 2862 
Q 3072 2584 2669 2484 
Q 3125 2378 3379 2068 
Q 3634 1759 3634 1313 
Q 3634 634 3220 271 
Q 2806 -91 2034 -91 
Q 1263 -91 848 271 
Q 434 634 434 1313 
Q 434 1759 690 2068 
Q 947 2378 1403 2484 
z
M 1172 3481 
Q 1172 3119 1398 2916 
Q 1625 2713 2034 2713 
Q 2441 2713 2670 2916 
Q 2900 3119 2900 3481 
Q 2900 3844 2670 4047 
Q 2441 4250 2034 4250 
Q 1625 4250 1398 4047 
Q 1172 3844 1172 3481 
z
" transform="scale(0.015625)"/>
        <path id="DejaVuSans-13" d="M 2034 4250 
Q 1547 4250 1301 3770 
Q 1056 3291 1056 2328 
Q 1056 1369 1301 889 
Q 1547 409 2034 409 
Q 2525 409 2770 889 
Q 3016 1369 3016 2328 
Q 3016 3291 2770 3770 
Q 2525 4250 2034 4250 
z
M 2034 4750 
Q 2819 4750 3233 4129 
Q 3647 3509 3647 2328 
Q 3647 1150 3233 529 
Q 2819 -91 2034 -91 
Q 1250 -91 836 529 
Q 422 1150 422 2328 
Q 422 3509 836 4129 
Q 1250 4750 2034 4750 
z
" transform="scale(0.015625)"/>
       </defs>
       <use xlink:href="#DejaVuSans-1b"/>
       <use xlink:href="#DejaVuSans-13" transform="translate(63.625 0)"/>
       <use xlink:href="#DejaVuSans-11" transform="translate(127.25 0)"/>
       <use xlink:href="#DejaVuSans-13" transform="translate(159.03125 0)"/>
      </g>
     </g>
    </g>
    <g id="xtick_3">
     <g id="line2d_3">
      <path d="M 174.875275 273.312 
L 174.875275 7.2 
" clip-path="url(#ped4d7d6c5a)" style="fill: none; stroke: #cccccc; stroke-opacity: 0.3; stroke-linecap: round"/>
     </g>
     <g id="text_3">
      <!-- 82.5 -->
      <g style="fill: #262626" transform="translate(158.343048 294.09452) scale(0.1485 -0.1485)">
       <defs>
        <path id="DejaVuSans-15" d="M 1228 531 
L 3431 531 
L 3431 0 
L 469 0 
L 469 531 
Q 828 903 1448 1529 
Q 2069 2156 2228 2338 
Q 2531 2678 2651 2914 
Q 2772 3150 2772 3378 
Q 2772 3750 2511 3984 
Q 2250 4219 1831 4219 
Q 1534 4219 1204 4116 
Q 875 4013 500 3803 
L 500 4441 
Q 881 4594 1212 4672 
Q 1544 4750 1819 4750 
Q 2544 4750 2975 4387 
Q 3406 4025 3406 3419 
Q 3406 3131 3298 2873 
Q 3191 2616 2906 2266 
Q 2828 2175 2409 1742 
Q 1991 1309 1228 531 
z
" transform="scale(0.015625)"/>
       </defs>
       <use xlink:href="#DejaVuSans-1b"/>
       <use xlink:href="#DejaVuSans-15" transform="translate(63.625 0)"/>
       <use xlink:href="#DejaVuSans-11" transform="translate(127.25 0)"/>
       <use xlink:href="#DejaVuSans-18" transform="translate(159.03125 0)"/>
      </g>
     </g>
    </g>
    <g id="xtick_4">
     <g id="line2d_4">
      <path d="M 228.554929 273.312 
L 228.554929 7.2 
" clip-path="url(#ped4d7d6c5a)" style="fill: none; stroke: #cccccc; stroke-opacity: 0.3; stroke-linecap: round"/>
     </g>
     <g id="text_4">
      <!-- 85.0 -->
      <g style="fill: #262626" transform="translate(212.022702 294.09452) scale(0.1485 -0.1485)">
       <use xlink:href="#DejaVuSans-1b"/>
       <use xlink:href="#DejaVuSans-18" transform="translate(63.625 0)"/>
       <use xlink:href="#DejaVuSans-11" transform="translate(127.25 0)"/>
       <use xlink:href="#DejaVuSans-13" transform="translate(159.03125 0)"/>
      </g>
     </g>
    </g>
    <g id="xtick_5">
     <g id="line2d_5">
      <path d="M 282.234583 273.312 
L 282.234583 7.2 
" clip-path="url(#ped4d7d6c5a)" style="fill: none; stroke: #cccccc; stroke-opacity: 0.3; stroke-linecap: round"/>
     </g>
     <g id="text_5">
      <!-- 87.5 -->
      <g style="fill: #262626" transform="translate(265.702357 294.09452) scale(0.1485 -0.1485)">
       <use xlink:href="#DejaVuSans-1b"/>
       <use xlink:href="#DejaVuSans-1a" transform="translate(63.625 0)"/>
       <use xlink:href="#DejaVuSans-11" transform="translate(127.25 0)"/>
       <use xlink:href="#DejaVuSans-18" transform="translate(159.03125 0)"/>
      </g>
     </g>
    </g>
    <g id="xtick_6">
     <g id="line2d_6">
      <path d="M 335.914237 273.312 
L 335.914237 7.2 
" clip-path="url(#ped4d7d6c5a)" style="fill: none; stroke: #cccccc; stroke-opacity: 0.3; stroke-linecap: round"/>
     </g>
     <g id="text_6">
      <!-- 90.0 -->
      <g style="fill: #262626" transform="translate(319.382011 294.09452) scale(0.1485 -0.1485)">
       <defs>
        <path id="DejaVuSans-1c" d="M 703 97 
L 703 672 
Q 941 559 1184 500 
Q 1428 441 1663 441 
Q 2288 441 2617 861 
Q 2947 1281 2994 2138 
Q 2813 1869 2534 1725 
Q 2256 1581 1919 1581 
Q 1219 1581 811 2004 
Q 403 2428 403 3163 
Q 403 3881 828 4315 
Q 1253 4750 1959 4750 
Q 2769 4750 3195 4129 
Q 3622 3509 3622 2328 
Q 3622 1225 3098 567 
Q 2575 -91 1691 -91 
Q 1453 -91 1209 -44 
Q 966 3 703 97 
z
M 1959 2075 
Q 2384 2075 2632 2365 
Q 2881 2656 2881 3163 
Q 2881 3666 2632 3958 
Q 2384 4250 1959 4250 
Q 1534 4250 1286 3958 
Q 1038 3666 1038 3163 
Q 1038 2656 1286 2365 
Q 1534 2075 1959 2075 
z
" transform="scale(0.015625)"/>
       </defs>
       <use xlink:href="#DejaVuSans-1c"/>
       <use xlink:href="#DejaVuSans-13" transform="translate(63.625 0)"/>
       <use xlink:href="#DejaVuSans-11" transform="translate(127.25 0)"/>
       <use xlink:href="#DejaVuSans-13" transform="translate(159.03125 0)"/>
      </g>
     </g>
    </g>
    <g id="xtick_7">
     <g id="line2d_7">
      <path d="M 389.593892 273.312 
L 389.593892 7.2 
" clip-path="url(#ped4d7d6c5a)" style="fill: none; stroke: #cccccc; stroke-opacity: 0.3; stroke-linecap: round"/>
     </g>
     <g id="text_7">
      <!-- 92.5 -->
      <g style="fill: #262626" transform="translate(373.061665 294.09452) scale(0.1485 -0.1485)">
       <use xlink:href="#DejaVuSans-1c"/>
       <use xlink:href="#DejaVuSans-15" transform="translate(63.625 0)"/>
       <use xlink:href="#DejaVuSans-11" transform="translate(127.25 0)"/>
       <use xlink:href="#DejaVuSans-18" transform="translate(159.03125 0)"/>
      </g>
     </g>
    </g>
    <g id="text_8">
     <!-- Test accuracy -->
     <g style="fill: #262626" transform="translate(184.005 313.970203) scale(0.162 -0.162)">
      <defs>
       <path id="DejaVuSans-37" d="M -19 4666 
L 3928 4666 
L 3928 4134 
L 2272 4134 
L 2272 0 
L 1638 0 
L 1638 4134 
L -19 4134 
L -19 4666 
z
" transform="scale(0.015625)"/>
       <path id="DejaVuSans-48" d="M 3597 1894 
L 3597 1613 
L 953 1613 
Q 991 1019 1311 708 
Q 1631 397 2203 397 
Q 2534 397 2845 478 
Q 3156 559 3463 722 
L 3463 178 
Q 3153 47 2828 -22 
Q 2503 -91 2169 -91 
Q 1331 -91 842 396 
Q 353 884 353 1716 
Q 353 2575 817 3079 
Q 1281 3584 2069 3584 
Q 2775 3584 3186 3129 
Q 3597 2675 3597 1894 
z
M 3022 2063 
Q 3016 2534 2758 2815 
Q 2500 3097 2075 3097 
Q 1594 3097 1305 2825 
Q 1016 2553 972 2059 
L 3022 2063 
z
" transform="scale(0.015625)"/>
       <path id="DejaVuSans-56" d="M 2834 3397 
L 2834 2853 
Q 2591 2978 2328 3040 
Q 2066 3103 1784 3103 
Q 1356 3103 1142 2972 
Q 928 2841 928 2578 
Q 928 2378 1081 2264 
Q 1234 2150 1697 2047 
L 1894 2003 
Q 2506 1872 2764 1633 
Q 3022 1394 3022 966 
Q 3022 478 2636 193 
Q 2250 -91 1575 -91 
Q 1294 -91 989 -36 
Q 684 19 347 128 
L 347 722 
Q 666 556 975 473 
Q 1284 391 1588 391 
Q 1994 391 2212 530 
Q 2431 669 2431 922 
Q 2431 1156 2273 1281 
Q 2116 1406 1581 1522 
L 1381 1569 
Q 847 1681 609 1914 
Q 372 2147 372 2553 
Q 372 3047 722 3315 
Q 1072 3584 1716 3584 
Q 2034 3584 2315 3537 
Q 2597 3491 2834 3397 
z
" transform="scale(0.015625)"/>
       <path id="DejaVuSans-57" d="M 1172 4494 
L 1172 3500 
L 2356 3500 
L 2356 3053 
L 1172 3053 
L 1172 1153 
Q 1172 725 1289 603 
Q 1406 481 1766 481 
L 2356 481 
L 2356 0 
L 1766 0 
Q 1100 0 847 248 
Q 594 497 594 1153 
L 594 3053 
L 172 3053 
L 172 3500 
L 594 3500 
L 594 4494 
L 1172 4494 
z
" transform="scale(0.015625)"/>
       <path id="DejaVuSans-3" transform="scale(0.015625)"/>
       <path id="DejaVuSans-44" d="M 2194 1759 
Q 1497 1759 1228 1600 
Q 959 1441 959 1056 
Q 959 750 1161 570 
Q 1363 391 1709 391 
Q 2188 391 2477 730 
Q 2766 1069 2766 1631 
L 2766 1759 
L 2194 1759 
z
M 3341 1997 
L 3341 0 
L 2766 0 
L 2766 531 
Q 2569 213 2275 61 
Q 1981 -91 1556 -91 
Q 1019 -91 701 211 
Q 384 513 384 1019 
Q 384 1609 779 1909 
Q 1175 2209 1959 2209 
L 2766 2209 
L 2766 2266 
Q 2766 2663 2505 2880 
Q 2244 3097 1772 3097 
Q 1472 3097 1187 3025 
Q 903 2953 641 2809 
L 641 3341 
Q 956 3463 1253 3523 
Q 1550 3584 1831 3584 
Q 2591 3584 2966 3190 
Q 3341 2797 3341 1997 
z
" transform="scale(0.015625)"/>
       <path id="DejaVuSans-46" d="M 3122 3366 
L 3122 2828 
Q 2878 2963 2633 3030 
Q 2388 3097 2138 3097 
Q 1578 3097 1268 2742 
Q 959 2388 959 1747 
Q 959 1106 1268 751 
Q 1578 397 2138 397 
Q 2388 397 2633 464 
Q 2878 531 3122 666 
L 3122 134 
Q 2881 22 2623 -34 
Q 2366 -91 2075 -91 
Q 1284 -91 818 406 
Q 353 903 353 1747 
Q 353 2603 823 3093 
Q 1294 3584 2113 3584 
Q 2378 3584 2631 3529 
Q 2884 3475 3122 3366 
z
" transform="scale(0.015625)"/>
       <path id="DejaVuSans-58" d="M 544 1381 
L 544 3500 
L 1119 3500 
L 1119 1403 
Q 1119 906 1312 657 
Q 1506 409 1894 409 
Q 2359 409 2629 706 
Q 2900 1003 2900 1516 
L 2900 3500 
L 3475 3500 
L 3475 0 
L 2900 0 
L 2900 538 
Q 2691 219 2414 64 
Q 2138 -91 1772 -91 
Q 1169 -91 856 284 
Q 544 659 544 1381 
z
M 1991 3584 
L 1991 3584 
z
" transform="scale(0.015625)"/>
       <path id="DejaVuSans-55" d="M 2631 2963 
Q 2534 3019 2420 3045 
Q 2306 3072 2169 3072 
Q 1681 3072 1420 2755 
Q 1159 2438 1159 1844 
L 1159 0 
L 581 0 
L 581 3500 
L 1159 3500 
L 1159 2956 
Q 1341 3275 1631 3429 
Q 1922 3584 2338 3584 
Q 2397 3584 2469 3576 
Q 2541 3569 2628 3553 
L 2631 2963 
z
" transform="scale(0.015625)"/>
       <path id="DejaVuSans-5c" d="M 2059 -325 
Q 1816 -950 1584 -1140 
Q 1353 -1331 966 -1331 
L 506 -1331 
L 506 -850 
L 844 -850 
Q 1081 -850 1212 -737 
Q 1344 -625 1503 -206 
L 1606 56 
L 191 3500 
L 800 3500 
L 1894 763 
L 2988 3500 
L 3597 3500 
L 2059 -325 
z
" transform="scale(0.015625)"/>
      </defs>
      <use xlink:href="#DejaVuSans-37"/>
      <use xlink:href="#DejaVuSans-48" transform="translate(44.09375 0)"/>
      <use xlink:href="#DejaVuSans-56" transform="translate(105.625 0)"/>
      <use xlink:href="#DejaVuSans-57" transform="translate(157.71875 0)"/>
      <use xlink:href="#DejaVuSans-3" transform="translate(196.921875 0)"/>
      <use xlink:href="#DejaVuSans-44" transform="translate(228.703125 0)"/>
      <use xlink:href="#DejaVuSans-46" transform="translate(289.984375 0)"/>
      <use xlink:href="#DejaVuSans-46" transform="translate(344.96875 0)"/>
      <use xlink:href="#DejaVuSans-58" transform="translate(399.953125 0)"/>
      <use xlink:href="#DejaVuSans-55" transform="translate(463.328125 0)"/>
      <use xlink:href="#DejaVuSans-44" transform="translate(504.4375 0)"/>
      <use xlink:href="#DejaVuSans-46" transform="translate(565.71875 0)"/>
      <use xlink:href="#DejaVuSans-5c" transform="translate(620.703125 0)"/>
     </g>
    </g>
   </g>
   <g id="matplotlib.axis_2">
    <g id="ytick_1">
     <g id="line2d_8">
      <path d="M 60.516141 269.671351 
L 417.636141 269.671351 
" clip-path="url(#ped4d7d6c5a)" style="fill: none; stroke: #cccccc; stroke-opacity: 0.3; stroke-linecap: round"/>
     </g>
     <g id="text_9">
      <!-- 0.2 -->
      <g style="fill: #262626" transform="translate(27.4 275.31261) scale(0.1485 -0.1485)">
       <use xlink:href="#DejaVuSans-13"/>
       <use xlink:href="#DejaVuSans-11" transform="translate(63.625 0)"/>
       <use xlink:href="#DejaVuSans-15" transform="translate(95.40625 0)"/>
      </g>
     </g>
    </g>
    <g id="ytick_2">
     <g id="line2d_9">
      <path d="M 60.516141 220.827288 
L 417.636141 220.827288 
" clip-path="url(#ped4d7d6c5a)" style="fill: none; stroke: #cccccc; stroke-opacity: 0.3; stroke-linecap: round"/>
     </g>
     <g id="text_10">
      <!-- 0.4 -->
      <g style="fill: #262626" transform="translate(27.4 226.468548) scale(0.1485 -0.1485)">
       <defs>
        <path id="DejaVuSans-17" d="M 2419 4116 
L 825 1625 
L 2419 1625 
L 2419 4116 
z
M 2253 4666 
L 3047 4666 
L 3047 1625 
L 3713 1625 
L 3713 1100 
L 3047 1100 
L 3047 0 
L 2419 0 
L 2419 1100 
L 313 1100 
L 313 1709 
L 2253 4666 
z
" transform="scale(0.015625)"/>
       </defs>
       <use xlink:href="#DejaVuSans-13"/>
       <use xlink:href="#DejaVuSans-11" transform="translate(63.625 0)"/>
       <use xlink:href="#DejaVuSans-17" transform="translate(95.40625 0)"/>
      </g>
     </g>
    </g>
    <g id="ytick_3">
     <g id="line2d_10">
      <path d="M 60.516141 171.983225 
L 417.636141 171.983225 
" clip-path="url(#ped4d7d6c5a)" style="fill: none; stroke: #cccccc; stroke-opacity: 0.3; stroke-linecap: round"/>
     </g>
     <g id="text_11">
      <!-- 0.6 -->
      <g style="fill: #262626" transform="translate(27.4 177.624485) scale(0.1485 -0.1485)">
       <defs>
        <path id="DejaVuSans-19" d="M 2113 2584 
Q 1688 2584 1439 2293 
Q 1191 2003 1191 1497 
Q 1191 994 1439 701 
Q 1688 409 2113 409 
Q 2538 409 2786 701 
Q 3034 994 3034 1497 
Q 3034 2003 2786 2293 
Q 2538 2584 2113 2584 
z
M 3366 4563 
L 3366 3988 
Q 3128 4100 2886 4159 
Q 2644 4219 2406 4219 
Q 1781 4219 1451 3797 
Q 1122 3375 1075 2522 
Q 1259 2794 1537 2939 
Q 1816 3084 2150 3084 
Q 2853 3084 3261 2657 
Q 3669 2231 3669 1497 
Q 3669 778 3244 343 
Q 2819 -91 2113 -91 
Q 1303 -91 875 529 
Q 447 1150 447 2328 
Q 447 3434 972 4092 
Q 1497 4750 2381 4750 
Q 2619 4750 2861 4703 
Q 3103 4656 3366 4563 
z
" transform="scale(0.015625)"/>
       </defs>
       <use xlink:href="#DejaVuSans-13"/>
       <use xlink:href="#DejaVuSans-11" transform="translate(63.625 0)"/>
       <use xlink:href="#DejaVuSans-19" transform="translate(95.40625 0)"/>
      </g>
     </g>
    </g>
    <g id="ytick_4">
     <g id="line2d_11">
      <path d="M 60.516141 123.139163 
L 417.636141 123.139163 
" clip-path="url(#ped4d7d6c5a)" style="fill: none; stroke: #cccccc; stroke-opacity: 0.3; stroke-linecap: round"/>
     </g>
     <g id="text_12">
      <!-- 0.8 -->
      <g style="fill: #262626" transform="translate(27.4 128.780422) scale(0.1485 -0.1485)">
       <use xlink:href="#DejaVuSans-13"/>
       <use xlink:href="#DejaVuSans-11" transform="translate(63.625 0)"/>
       <use xlink:href="#DejaVuSans-1b" transform="translate(95.40625 0)"/>
      </g>
     </g>
    </g>
    <g id="ytick_5">
     <g id="line2d_12">
      <path d="M 60.516141 74.2951 
L 417.636141 74.2951 
" clip-path="url(#ped4d7d6c5a)" style="fill: none; stroke: #cccccc; stroke-opacity: 0.3; stroke-linecap: round"/>
     </g>
     <g id="text_13">
      <!-- 1.0 -->
      <g style="fill: #262626" transform="translate(27.4 79.93636) scale(0.1485 -0.1485)">
       <defs>
        <path id="DejaVuSans-14" d="M 794 531 
L 1825 531 
L 1825 4091 
L 703 3866 
L 703 4441 
L 1819 4666 
L 2450 4666 
L 2450 531 
L 3481 531 
L 3481 0 
L 794 0 
L 794 531 
z
" transform="scale(0.015625)"/>
       </defs>
       <use xlink:href="#DejaVuSans-14"/>
       <use xlink:href="#DejaVuSans-11" transform="translate(63.625 0)"/>
       <use xlink:href="#DejaVuSans-13" transform="translate(95.40625 0)"/>
      </g>
     </g>
    </g>
    <g id="ytick_6">
     <g id="line2d_13">
      <path d="M 60.516141 25.451037 
L 417.636141 25.451037 
" clip-path="url(#ped4d7d6c5a)" style="fill: none; stroke: #cccccc; stroke-opacity: 0.3; stroke-linecap: round"/>
     </g>
     <g id="text_14">
      <!-- 1.2 -->
      <g style="fill: #262626" transform="translate(27.4 31.092297) scale(0.1485 -0.1485)">
       <use xlink:href="#DejaVuSans-14"/>
       <use xlink:href="#DejaVuSans-11" transform="translate(63.625 0)"/>
       <use xlink:href="#DejaVuSans-15" transform="translate(95.40625 0)"/>
      </g>
     </g>
    </g>
    <g id="text_15">
     <!-- Test m-entropy -->
     <g style="fill: #262626" transform="translate(19.508203 200.930062) rotate(-90) scale(0.162 -0.162)">
      <defs>
       <path id="DejaVuSans-50" d="M 3328 2828 
Q 3544 3216 3844 3400 
Q 4144 3584 4550 3584 
Q 5097 3584 5394 3201 
Q 5691 2819 5691 2113 
L 5691 0 
L 5113 0 
L 5113 2094 
Q 5113 2597 4934 2840 
Q 4756 3084 4391 3084 
Q 3944 3084 3684 2787 
Q 3425 2491 3425 1978 
L 3425 0 
L 2847 0 
L 2847 2094 
Q 2847 2600 2669 2842 
Q 2491 3084 2119 3084 
Q 1678 3084 1418 2786 
Q 1159 2488 1159 1978 
L 1159 0 
L 581 0 
L 581 3500 
L 1159 3500 
L 1159 2956 
Q 1356 3278 1631 3431 
Q 1906 3584 2284 3584 
Q 2666 3584 2933 3390 
Q 3200 3197 3328 2828 
z
" transform="scale(0.015625)"/>
       <path id="DejaVuSans-10" d="M 313 2009 
L 1997 2009 
L 1997 1497 
L 313 1497 
L 313 2009 
z
" transform="scale(0.015625)"/>
       <path id="DejaVuSans-51" d="M 3513 2113 
L 3513 0 
L 2938 0 
L 2938 2094 
Q 2938 2591 2744 2837 
Q 2550 3084 2163 3084 
Q 1697 3084 1428 2787 
Q 1159 2491 1159 1978 
L 1159 0 
L 581 0 
L 581 3500 
L 1159 3500 
L 1159 2956 
Q 1366 3272 1645 3428 
Q 1925 3584 2291 3584 
Q 2894 3584 3203 3211 
Q 3513 2838 3513 2113 
z
" transform="scale(0.015625)"/>
       <path id="DejaVuSans-52" d="M 1959 3097 
Q 1497 3097 1228 2736 
Q 959 2375 959 1747 
Q 959 1119 1226 758 
Q 1494 397 1959 397 
Q 2419 397 2687 759 
Q 2956 1122 2956 1747 
Q 2956 2369 2687 2733 
Q 2419 3097 1959 3097 
z
M 1959 3584 
Q 2709 3584 3137 3096 
Q 3566 2609 3566 1747 
Q 3566 888 3137 398 
Q 2709 -91 1959 -91 
Q 1206 -91 779 398 
Q 353 888 353 1747 
Q 353 2609 779 3096 
Q 1206 3584 1959 3584 
z
" transform="scale(0.015625)"/>
       <path id="DejaVuSans-53" d="M 1159 525 
L 1159 -1331 
L 581 -1331 
L 581 3500 
L 1159 3500 
L 1159 2969 
Q 1341 3281 1617 3432 
Q 1894 3584 2278 3584 
Q 2916 3584 3314 3078 
Q 3713 2572 3713 1747 
Q 3713 922 3314 415 
Q 2916 -91 2278 -91 
Q 1894 -91 1617 61 
Q 1341 213 1159 525 
z
M 3116 1747 
Q 3116 2381 2855 2742 
Q 2594 3103 2138 3103 
Q 1681 3103 1420 2742 
Q 1159 2381 1159 1747 
Q 1159 1113 1420 752 
Q 1681 391 2138 391 
Q 2594 391 2855 752 
Q 3116 1113 3116 1747 
z
" transform="scale(0.015625)"/>
      </defs>
      <use xlink:href="#DejaVuSans-37"/>
      <use xlink:href="#DejaVuSans-48" transform="translate(44.09375 0)"/>
      <use xlink:href="#DejaVuSans-56" transform="translate(105.625 0)"/>
      <use xlink:href="#DejaVuSans-57" transform="translate(157.71875 0)"/>
      <use xlink:href="#DejaVuSans-3" transform="translate(196.921875 0)"/>
      <use xlink:href="#DejaVuSans-50" transform="translate(228.703125 0)"/>
      <use xlink:href="#DejaVuSans-10" transform="translate(326.109375 0)"/>
      <use xlink:href="#DejaVuSans-48" transform="translate(362.1875 0)"/>
      <use xlink:href="#DejaVuSans-51" transform="translate(423.71875 0)"/>
      <use xlink:href="#DejaVuSans-57" transform="translate(487.09375 0)"/>
      <use xlink:href="#DejaVuSans-55" transform="translate(526.296875 0)"/>
      <use xlink:href="#DejaVuSans-52" transform="translate(565.203125 0)"/>
      <use xlink:href="#DejaVuSans-53" transform="translate(626.390625 0)"/>
      <use xlink:href="#DejaVuSans-5c" transform="translate(689.875 0)"/>
     </g>
    </g>
   </g>
   <g id="PathCollection_1">
    <path d="M 398.826792 184.923375 
C 400.012816 184.923375 401.150424 184.452163 401.98907 183.613517 
C 402.827716 182.774871 403.298928 181.637264 403.298928 180.451239 
C 403.298928 179.265215 402.827716 178.127607 401.98907 177.288962 
C 401.150424 176.450316 400.012816 175.979103 398.826792 175.979103 
C 397.640768 175.979103 396.50316 176.450316 395.664514 177.288962 
C 394.825869 178.127607 394.354656 179.265215 394.354656 180.451239 
C 394.354656 181.637264 394.825869 182.774871 395.664514 183.613517 
C 396.50316 184.452163 397.640768 184.923375 398.826792 184.923375 
z
" clip-path="url(#ped4d7d6c5a)" style="fill-opacity: 0.7; stroke: #000000; stroke-opacity: 0.7; stroke-width: 0.715542"/>
    <path d="M 391.437477 174.607726 
L 393.673545 172.371658 
L 395.909613 174.607726 
L 398.145681 172.371658 
L 395.909613 170.13559 
L 398.145681 167.899522 
L 395.909613 165.663454 
L 393.673545 167.899522 
L 391.437477 165.663454 
L 389.201409 167.899522 
L 391.437477 170.13559 
L 389.201409 172.371658 
z
" clip-path="url(#ped4d7d6c5a)" style="fill: #800080; fill-opacity: 0.7; stroke: #800080; stroke-opacity: 0.7; stroke-width: 0.715542"/>
    <path d="M 383.492889 172.212878 
L 385.728957 169.97681 
L 387.965025 172.212878 
L 390.201093 169.97681 
L 387.965025 167.740742 
L 390.201093 165.504674 
L 387.965025 163.268606 
L 385.728957 165.504674 
L 383.492889 163.268606 
L 381.256821 165.504674 
L 383.492889 167.740742 
L 381.256821 169.97681 
z
" clip-path="url(#ped4d7d6c5a)" style="fill: #800080; fill-opacity: 0.7; stroke: #800080; stroke-opacity: 0.7; stroke-width: 0.715542"/>
    <path d="M 384.137042 173.384143 
L 386.37311 171.148075 
L 388.609178 173.384143 
L 390.845246 171.148075 
L 388.609178 168.912007 
L 390.845246 166.675939 
L 388.609178 164.439871 
L 386.37311 166.675939 
L 384.137042 164.439871 
L 381.900974 166.675939 
L 384.137042 168.912007 
L 381.900974 171.148075 
z
" clip-path="url(#ped4d7d6c5a)" style="fill: #800080; fill-opacity: 0.7; stroke: #800080; stroke-opacity: 0.7; stroke-width: 0.715542"/>
    <path d="M 392.81467 169.0813 
C 394.000694 169.0813 395.138302 168.610088 395.976947 167.771442 
C 396.815593 166.932796 397.286806 165.795188 397.286806 164.609164 
C 397.286806 163.42314 396.815593 162.285532 395.976947 161.446886 
C 395.138302 160.608241 394.000694 160.137028 392.81467 160.137028 
C 391.628645 160.137028 390.491038 160.608241 389.652392 161.446886 
C 388.813746 162.285532 388.342534 163.42314 388.342534 164.609164 
C 388.342534 165.795188 388.813746 166.932796 389.652392 167.771442 
C 390.491038 168.610088 391.628645 169.0813 392.81467 169.0813 
z
" clip-path="url(#ped4d7d6c5a)" style="fill: #1f77b4; fill-opacity: 0.7; stroke: #1f77b4; stroke-opacity: 0.7; stroke-width: 0.715542"/>
    <path d="M 397.967915 167.968791 
C 399.15394 167.968791 400.291547 167.497578 401.130193 166.658932 
C 401.968839 165.820287 402.440051 164.682679 402.440051 163.496655 
C 402.440051 162.31063 401.968839 161.173023 401.130193 160.334377 
C 400.291547 159.495731 399.15394 159.024519 397.967915 159.024519 
C 396.781891 159.024519 395.644284 159.495731 394.805638 160.334377 
C 393.966992 161.173023 393.49578 162.31063 393.49578 163.496655 
C 393.49578 164.682679 393.966992 165.820287 394.805638 166.658932 
C 395.644284 167.497578 396.781891 167.968791 397.967915 167.968791 
z
" clip-path="url(#ped4d7d6c5a)" style="fill: #1f77b4; fill-opacity: 0.7; stroke: #1f77b4; stroke-opacity: 0.7; stroke-width: 0.715542"/>
    <path d="M 394.354656 184.134353 
L 403.298928 184.134353 
L 403.298928 175.190082 
L 394.354656 175.190082 
z
" clip-path="url(#ped4d7d6c5a)" style="fill: #aec7e8; fill-opacity: 0.7; stroke: #aec7e8; stroke-opacity: 0.7; stroke-width: 0.715542"/>
    <path d="M 388.342534 179.228348 
L 397.286806 179.228348 
L 397.286806 170.284076 
L 388.342534 170.284076 
z
" clip-path="url(#ped4d7d6c5a)" style="fill: #aec7e8; fill-opacity: 0.7; stroke: #aec7e8; stroke-opacity: 0.7; stroke-width: 0.715542"/>
    <path d="M 386.802551 156.53638 
L 382.330415 165.480652 
L 391.274687 165.480652 
z
" clip-path="url(#ped4d7d6c5a)" style="fill: #ff7f0e; fill-opacity: 0.7; stroke: #ff7f0e; stroke-opacity: 0.7; stroke-width: 0.715542"/>
    <path d="M 389.164453 161.617122 
L 384.692317 170.561394 
L 393.636589 170.561394 
z
" clip-path="url(#ped4d7d6c5a)" style="fill: #ff7f0e; fill-opacity: 0.7; stroke: #ff7f0e; stroke-opacity: 0.7; stroke-width: 0.715542"/>
    <path d="M 378.428524 254.735888 
L 384.753079 248.411332 
L 378.428524 242.086777 
L 372.103968 248.411332 
z
" clip-path="url(#ped4d7d6c5a)" style="fill: #ffbb78; fill-opacity: 0.7; stroke: #ffbb78; stroke-opacity: 0.7; stroke-width: 0.715542"/>
    <path d="M 385.728954 264.790022 
L 392.05351 258.465466 
L 385.728954 252.140911 
L 379.404399 258.465466 
z
" clip-path="url(#ped4d7d6c5a)" style="fill: #ffbb78; fill-opacity: 0.7; stroke: #ffbb78; stroke-opacity: 0.7; stroke-width: 0.715542"/>
    <path d="M 392.182831 182.870011 
L 395.164255 182.870011 
L 395.164255 179.888587 
L 398.145679 179.888587 
L 398.145679 176.907163 
L 395.164255 176.907163 
L 395.164255 173.925739 
L 392.182831 173.925739 
L 392.182831 176.907163 
L 389.201407 176.907163 
L 389.201407 179.888587 
L 392.182831 179.888587 
z
" clip-path="url(#ped4d7d6c5a)" style="fill: #2ca02c; fill-opacity: 0.7; stroke: #2ca02c; stroke-opacity: 0.7; stroke-width: 0.715542"/>
    <path d="M 371.569845 166.106935 
L 374.551269 166.106935 
L 374.551269 163.125511 
L 377.532693 163.125511 
L 377.532693 160.144087 
L 374.551269 160.144087 
L 374.551269 157.162663 
L 371.569845 157.162663 
L 371.569845 160.144087 
L 368.588421 160.144087 
L 368.588421 163.125511 
L 371.569845 163.125511 
z
" clip-path="url(#ped4d7d6c5a)" style="fill: #2ca02c; fill-opacity: 0.7; stroke: #2ca02c; stroke-opacity: 0.7; stroke-width: 0.715542"/>
    <path d="M 284.722324 216.26101 
L 286.958392 214.024942 
L 289.19446 216.26101 
L 291.430528 214.024942 
L 289.19446 211.788874 
L 291.430528 209.552806 
L 289.19446 207.316738 
L 286.958392 209.552806 
L 284.722324 207.316738 
L 282.486256 209.552806 
L 284.722324 211.788874 
L 282.486256 214.024942 
z
" clip-path="url(#ped4d7d6c5a)" style="fill: #98df8a; fill-opacity: 0.7; stroke: #98df8a; stroke-opacity: 0.7; stroke-width: 0.715542"/>
    <path d="M 161.473839 145.869058 
L 163.709907 143.63299 
L 165.945975 145.869058 
L 168.182043 143.63299 
L 165.945975 141.396922 
L 168.182043 139.160854 
L 165.945975 136.924786 
L 163.709907 139.160854 
L 161.473839 136.924786 
L 159.237771 139.160854 
L 161.473839 141.396922 
L 159.237771 143.63299 
z
" clip-path="url(#ped4d7d6c5a)" style="fill: #98df8a; fill-opacity: 0.7; stroke: #98df8a; stroke-opacity: 0.7; stroke-width: 0.715542"/>
    <path d="M 124.4164 65.571939 
L 128.888536 56.627667 
L 119.944264 56.627667 
z
" clip-path="url(#ped4d7d6c5a)" style="fill: #d62728; fill-opacity: 0.7; stroke: #d62728; stroke-opacity: 0.7; stroke-width: 0.715542"/>
    <path d="M 194.844103 81.463109 
L 199.316239 72.518837 
L 190.371967 72.518837 
z
" clip-path="url(#ped4d7d6c5a)" style="fill: #d62728; fill-opacity: 0.7; stroke: #d62728; stroke-opacity: 0.7; stroke-width: 0.715542"/>
    <path d="M 399.470949 174.434725 
C 400.656974 174.434725 401.794581 173.963512 402.633227 173.124866 
C 403.471873 172.28622 403.943085 171.148613 403.943085 169.962589 
C 403.943085 168.776564 403.471873 167.638957 402.633227 166.800311 
C 401.794581 165.961665 400.656974 165.490453 399.470949 165.490453 
C 398.284925 165.490453 397.147317 165.961665 396.308672 166.800311 
C 395.470026 167.638957 394.998813 168.776564 394.998813 169.962589 
C 394.998813 171.148613 395.470026 172.28622 396.308672 173.124866 
C 397.147317 173.963512 398.284925 174.434725 399.470949 174.434725 
z
" clip-path="url(#ped4d7d6c5a)" style="fill: #1f77b4; fill-opacity: 0.7; stroke: #1f77b4; stroke-opacity: 0.7; stroke-width: 0.715542"/>
    <path d="M 393.673543 162.906453 
C 394.859567 162.906453 395.997175 162.43524 396.835821 161.596594 
C 397.674467 160.757949 398.145679 159.620341 398.145679 158.434317 
C 398.145679 157.248292 397.674467 156.110685 396.835821 155.272039 
C 395.997175 154.433393 394.859567 153.962181 393.673543 153.962181 
C 392.487519 153.962181 391.349911 154.433393 390.511265 155.272039 
C 389.67262 156.110685 389.201407 157.248292 389.201407 158.434317 
C 389.201407 159.620341 389.67262 160.757949 390.511265 161.596594 
C 391.349911 162.43524 392.487519 162.906453 393.673543 162.906453 
z
" clip-path="url(#ped4d7d6c5a)" style="fill: #1f77b4; fill-opacity: 0.7; stroke: #1f77b4; stroke-opacity: 0.7; stroke-width: 0.715542"/>
    <path d="M 394.784094 183.080536 
L 403.728366 183.080536 
L 403.728366 174.136264 
L 394.784094 174.136264 
z
" clip-path="url(#ped4d7d6c5a)" style="fill: #aec7e8; fill-opacity: 0.7; stroke: #aec7e8; stroke-opacity: 0.7; stroke-width: 0.715542"/>
    <path d="M 393.066342 182.118458 
L 402.010614 182.118458 
L 402.010614 173.174186 
L 393.066342 173.174186 
z
" clip-path="url(#ped4d7d6c5a)" style="fill: #aec7e8; fill-opacity: 0.7; stroke: #aec7e8; stroke-opacity: 0.7; stroke-width: 0.715542"/>
    <path d="M 388.949736 160.075004 
L 384.4776 169.019275 
L 393.421872 169.019275 
z
" clip-path="url(#ped4d7d6c5a)" style="fill: #ff7f0e; fill-opacity: 0.7; stroke: #ff7f0e; stroke-opacity: 0.7; stroke-width: 0.715542"/>
    <path d="M 391.741076 167.854799 
L 387.26894 176.799071 
L 396.213212 176.799071 
z
" clip-path="url(#ped4d7d6c5a)" style="fill: #ff7f0e; fill-opacity: 0.7; stroke: #ff7f0e; stroke-opacity: 0.7; stroke-width: 0.715542"/>
    <path d="M 393.888265 267.540555 
L 400.21282 261.216 
L 393.888265 254.891445 
L 387.56371 261.216 
z
" clip-path="url(#ped4d7d6c5a)" style="fill: #ffbb78; fill-opacity: 0.7; stroke: #ffbb78; stroke-opacity: 0.7; stroke-width: 0.715542"/>
    <path d="M 394.532421 266.494287 
L 400.856976 260.169732 
L 394.532421 253.845177 
L 388.207866 260.169732 
z
" clip-path="url(#ped4d7d6c5a)" style="fill: #ffbb78; fill-opacity: 0.7; stroke: #ffbb78; stroke-opacity: 0.7; stroke-width: 0.715542"/>
    <path d="M 376.710774 255.423661 
L 383.03533 249.099106 
L 376.710774 242.774551 
L 370.386219 249.099106 
z
" clip-path="url(#ped4d7d6c5a)" style="fill: #ffbb78; fill-opacity: 0.7; stroke: #ffbb78; stroke-opacity: 0.7; stroke-width: 0.715542"/>
    <path d="M 379.072681 258.532408 
L 385.397236 252.207852 
L 379.072681 245.883297 
L 372.748125 252.207852 
z
" clip-path="url(#ped4d7d6c5a)" style="fill: #ffbb78; fill-opacity: 0.7; stroke: #ffbb78; stroke-opacity: 0.7; stroke-width: 0.715542"/>
    <path d="M 301.470375 229.305228 
L 303.706443 227.06916 
L 305.942511 229.305228 
L 308.178579 227.06916 
L 305.942511 224.833092 
L 308.178579 222.597024 
L 305.942511 220.360956 
L 303.706443 222.597024 
L 301.470375 220.360956 
L 299.234307 222.597024 
L 301.470375 224.833092 
L 299.234307 227.06916 
z
" clip-path="url(#ped4d7d6c5a)" style="fill: #98df8a; fill-opacity: 0.7; stroke: #98df8a; stroke-opacity: 0.7; stroke-width: 0.715542"/>
    <path d="M 221.595048 193.04092 
L 223.831116 190.804852 
L 226.067184 193.04092 
L 228.303252 190.804852 
L 226.067184 188.568784 
L 228.303252 186.332716 
L 226.067184 184.096648 
L 223.831116 186.332716 
L 221.595048 184.096648 
L 219.35898 186.332716 
L 221.595048 188.568784 
L 219.35898 190.804852 
z
" clip-path="url(#ped4d7d6c5a)" style="fill: #98df8a; fill-opacity: 0.7; stroke: #98df8a; stroke-opacity: 0.7; stroke-width: 0.715542"/>
    <path d="M 389.606207 183.146433 
L 392.587631 183.146433 
L 392.587631 180.165009 
L 395.569055 180.165009 
L 395.569055 177.183585 
L 392.587631 177.183585 
L 392.587631 174.202161 
L 389.606207 174.202161 
L 389.606207 177.183585 
L 386.624784 177.183585 
L 386.624784 180.165009 
L 389.606207 180.165009 
z
" clip-path="url(#ped4d7d6c5a)" style="fill: #2ca02c; fill-opacity: 0.7; stroke: #2ca02c; stroke-opacity: 0.7; stroke-width: 0.715542"/>
    <path d="M 369.637376 166.35422 
L 372.6188 166.35422 
L 372.6188 163.372796 
L 375.600224 163.372796 
L 375.600224 160.391372 
L 372.6188 160.391372 
L 372.6188 157.409949 
L 369.637376 157.409949 
L 369.637376 160.391372 
L 366.655952 160.391372 
L 366.655952 163.372796 
L 369.637376 163.372796 
z
" clip-path="url(#ped4d7d6c5a)" style="fill: #2ca02c; fill-opacity: 0.7; stroke: #2ca02c; stroke-opacity: 0.7; stroke-width: 0.715542"/>
    <path d="M 124.845836 83.965983 
L 129.317972 75.021711 
L 120.3737 75.021711 
z
" clip-path="url(#ped4d7d6c5a)" style="fill: #d62728; fill-opacity: 0.7; stroke: #d62728; stroke-opacity: 0.7; stroke-width: 0.715542"/>
    <path d="M 209.015535 100.981803 
L 213.487671 92.037532 
L 204.543399 92.037532 
z
" clip-path="url(#ped4d7d6c5a)" style="fill: #d62728; fill-opacity: 0.7; stroke: #d62728; stroke-opacity: 0.7; stroke-width: 0.715542"/>
    <path d="M 398.826792 170.678313 
C 400.012816 170.678313 401.150424 170.2071 401.98907 169.368454 
C 402.827716 168.529809 403.298928 167.392201 403.298928 166.206177 
C 403.298928 165.020152 402.827716 163.882545 401.98907 163.043899 
C 401.150424 162.205253 400.012816 161.734041 398.826792 161.734041 
C 397.640768 161.734041 396.50316 162.205253 395.664514 163.043899 
C 394.825869 163.882545 394.354656 165.020152 394.354656 166.206177 
C 394.354656 167.392201 394.825869 168.529809 395.664514 169.368454 
C 396.50316 170.2071 397.640768 170.678313 398.826792 170.678313 
z
" clip-path="url(#ped4d7d6c5a)" style="fill: #1f77b4; fill-opacity: 0.7; stroke: #1f77b4; stroke-opacity: 0.7; stroke-width: 0.715542"/>
    <path d="M 396.464888 163.783794 
C 397.650912 163.783794 398.788519 163.312581 399.627165 162.473936 
C 400.465811 161.63529 400.937023 160.497682 400.937023 159.311658 
C 400.937023 158.125634 400.465811 156.988026 399.627165 156.14938 
C 398.788519 155.310734 397.650912 154.839522 396.464888 154.839522 
C 395.278863 154.839522 394.141256 155.310734 393.30261 156.14938 
C 392.463964 156.988026 391.992752 158.125634 391.992752 159.311658 
C 391.992752 160.497682 392.463964 161.63529 393.30261 162.473936 
C 394.141256 163.312581 395.278863 163.783794 396.464888 163.783794 
z
" clip-path="url(#ped4d7d6c5a)" style="fill: #1f77b4; fill-opacity: 0.7; stroke: #1f77b4; stroke-opacity: 0.7; stroke-width: 0.715542"/>
    <path d="M 396.931277 184.963206 
L 405.875549 184.963206 
L 405.875549 176.018934 
L 396.931277 176.018934 
z
" clip-path="url(#ped4d7d6c5a)" style="fill: #aec7e8; fill-opacity: 0.7; stroke: #aec7e8; stroke-opacity: 0.7; stroke-width: 0.715542"/>
    <path d="M 395.428247 184.488228 
L 404.372519 184.488228 
L 404.372519 175.543956 
L 395.428247 175.543956 
z
" clip-path="url(#ped4d7d6c5a)" style="fill: #aec7e8; fill-opacity: 0.7; stroke: #aec7e8; stroke-opacity: 0.7; stroke-width: 0.715542"/>
    <path d="M 376.710772 154.405555 
L 372.238636 163.349827 
L 381.182908 163.349827 
z
" clip-path="url(#ped4d7d6c5a)" style="fill: #ff7f0e; fill-opacity: 0.7; stroke: #ff7f0e; stroke-opacity: 0.7; stroke-width: 0.715542"/>
    <path d="M 382.508178 160.149716 
L 378.036042 169.093988 
L 386.980314 169.093988 
z
" clip-path="url(#ped4d7d6c5a)" style="fill: #ff7f0e; fill-opacity: 0.7; stroke: #ff7f0e; stroke-opacity: 0.7; stroke-width: 0.715542"/>
    <path d="M 378.857962 252.984522 
L 385.182517 246.659966 
L 378.857962 240.335411 
L 372.533406 246.659966 
z
" clip-path="url(#ped4d7d6c5a)" style="fill: #ffbb78; fill-opacity: 0.7; stroke: #ffbb78; stroke-opacity: 0.7; stroke-width: 0.715542"/>
    <path d="M 382.508175 262.528431 
L 388.83273 256.203875 
L 382.508175 249.87932 
L 376.18362 256.203875 
z
" clip-path="url(#ped4d7d6c5a)" style="fill: #ffbb78; fill-opacity: 0.7; stroke: #ffbb78; stroke-opacity: 0.7; stroke-width: 0.715542"/>
    <path d="M 287.298948 222.770856 
L 289.535016 220.534788 
L 291.771084 222.770856 
L 294.007152 220.534788 
L 291.771084 218.29872 
L 294.007152 216.062652 
L 291.771084 213.826584 
L 289.535016 216.062652 
L 287.298948 213.826584 
L 285.06288 216.062652 
L 287.298948 218.29872 
L 285.06288 220.534788 
z
" clip-path="url(#ped4d7d6c5a)" style="fill: #98df8a; fill-opacity: 0.7; stroke: #98df8a; stroke-opacity: 0.7; stroke-width: 0.715542"/>
    <path d="M 243.06691 195.846912 
L 245.302978 193.610844 
L 247.539046 195.846912 
L 249.775114 193.610844 
L 247.539046 191.374776 
L 249.775114 189.138708 
L 247.539046 186.90264 
L 245.302978 189.138708 
L 243.06691 186.90264 
L 240.830842 189.138708 
L 243.06691 191.374776 
L 240.830842 193.610844 
z
" clip-path="url(#ped4d7d6c5a)" style="fill: #98df8a; fill-opacity: 0.7; stroke: #98df8a; stroke-opacity: 0.7; stroke-width: 0.715542"/>
    <path d="M 391.323956 182.999739 
L 394.30538 182.999739 
L 394.30538 180.018315 
L 397.286804 180.018315 
L 397.286804 177.036891 
L 394.30538 177.036891 
L 394.30538 174.055467 
L 391.323956 174.055467 
L 391.323956 177.036891 
L 388.342532 177.036891 
L 388.342532 180.018315 
L 391.323956 180.018315 
z
" clip-path="url(#ped4d7d6c5a)" style="fill: #2ca02c; fill-opacity: 0.7; stroke: #2ca02c; stroke-opacity: 0.7; stroke-width: 0.715542"/>
    <path d="M 368.134346 164.377822 
L 371.11577 164.377822 
L 371.11577 161.396398 
L 374.097194 161.396398 
L 374.097194 158.414974 
L 371.11577 158.414974 
L 371.11577 155.43355 
L 368.134346 155.43355 
L 368.134346 158.414974 
L 365.152922 158.414974 
L 365.152922 161.396398 
L 368.134346 161.396398 
z
" clip-path="url(#ped4d7d6c5a)" style="fill: #2ca02c; fill-opacity: 0.7; stroke: #2ca02c; stroke-opacity: 0.7; stroke-width: 0.715542"/>
    <path d="M 76.748868 23.768136 
L 81.221004 14.823864 
L 72.276732 14.823864 
z
" clip-path="url(#ped4d7d6c5a)" style="fill: #d62728; fill-opacity: 0.7; stroke: #d62728; stroke-opacity: 0.7; stroke-width: 0.715542"/>
    <path d="M 206.009474 90.697438 
L 210.48161 81.753167 
L 201.537338 81.753167 
z
" clip-path="url(#ped4d7d6c5a)" style="fill: #d62728; fill-opacity: 0.7; stroke: #d62728; stroke-opacity: 0.7; stroke-width: 0.715542"/>
   </g>
   <g id="patch_3">
    <path d="M 60.516141 273.312 
L 60.516141 7.2 
" style="fill: none; stroke: #cccccc; stroke-width: 1.25; stroke-linejoin: miter; stroke-linecap: square"/>
   </g>
   <g id="patch_4">
    <path d="M 417.636141 273.312 
L 417.636141 7.2 
" style="fill: none; stroke: #cccccc; stroke-width: 1.25; stroke-linejoin: miter; stroke-linecap: square"/>
   </g>
   <g id="patch_5">
    <path d="M 60.516141 273.312 
L 417.636141 273.312 
" style="fill: none; stroke: #cccccc; stroke-width: 1.25; stroke-linejoin: miter; stroke-linecap: square"/>
   </g>
   <g id="patch_6">
    <path d="M 60.516141 7.2 
L 417.636141 7.2 
" style="fill: none; stroke: #cccccc; stroke-width: 1.25; stroke-linejoin: miter; stroke-linecap: square"/>
   </g>
  </g>
 </g>
 <defs>
  <clipPath id="ped4d7d6c5a">
   <rect x="60.516141" y="7.2" width="357.12" height="266.112"/>
  </clipPath>
 </defs>
</svg>
