<?xml version="1.0" encoding="utf-8" standalone="no"?>
<!DOCTYPE svg PUBLIC "-//W3C//DTD SVG 1.1//EN"
  "http://www.w3.org/Graphics/SVG/1.1/DTD/svg11.dtd">
<svg xmlns:xlink="http://www.w3.org/1999/xlink" width="428.734898pt" height="322.795477pt" viewBox="0 0 428.734898 322.795477" xmlns="http://www.w3.org/2000/svg" version="1.1">
 <metadata>
  <rdf:RDF xmlns:dc="http://purl.org/dc/elements/1.1/" xmlns:cc="http://creativecommons.org/ns#" xmlns:rdf="http://www.w3.org/1999/02/22-rdf-syntax-ns#">
   <cc:Work>
    <dc:type rdf:resource="http://purl.org/dc/dcmitype/StillImage"/>
    <dc:date>2026-08-31T16:53:39.271272</dc:date>
    <dc:format>image/svg+xml</dc:format>
    <dc:creator>
     <cc:Agent>
      <dc:title>Matplotlib v3.10.0, https://matplotlib.org/</dc:title>
     </cc:Agent>
    </dc:creator>
   </cc:Work>
  </rdf:RDF>
 </metadata>
 <defs>
  <style type="text/css">*{stroke-linejoin: round; stroke-linecap: butt}</style>
 </defs>
 <g id="figure_1">
  <g id="patch_1">
   <path d="M 0 322.795477 
L 428.734898 322.795477 
L 428.734898 0 
L 0 0 
z
" style="fill: #ffffff"/>
  </g>
  <g id="axes_1">
   <g id="patch_2">
    <path d="M 64.414898 273.312 
L 421.534898 273.312 
L 421.534898 7.2 
L 64.414898 7.2 
z
" style="fill: #ffffff"/>
   </g>
   <g id="matplotlib.axis_1">
    <g id="xtick_1">
     <g id="line2d_1">
      <path d="M 64.790582 273.312 
L 64.790582 7.2 
" clip-path="url(#pd6584f8023)" style="fill: none; stroke: #cccccc; stroke-opacity: 0.3; stroke-linecap: round"/>
     </g>
     <g id="text_1">
      <!-- 0.80 -->
      <g style="fill: #262626" transform="translate(50.340836 293.441352) scale(0.1485 -0.1485)">
       <defs>
        <path id="ArialMT-30" d="M 266 2259 
Q 266 3072 433 3567 
Q 600 4063 929 4331 
Q 1259 4600 1759 4600 
Q 2128 4600 2406 4451 
Q 2684 4303 2865 4023 
Q 3047 3744 3150 3342 
Q 3253 2941 3253 2259 
Q 3253 1453 3087 958 
Q 2922 463 2592 192 
Q 2263 -78 1759 -78 
Q 1097 -78 719 397 
Q 266 969 266 2259 
z
M 844 2259 
Q 844 1131 1108 757 
Q 1372 384 1759 384 
Q 2147 384 2411 759 
Q 2675 1134 2675 2259 
Q 2675 3391 2411 3762 
Q 2147 4134 1753 4134 
Q 1366 4134 1134 3806 
Q 844 3388 844 2259 
z
" transform="scale(0.015625)"/>
        <path id="ArialMT-2e" d="M 581 0 
L 581 641 
L 1222 641 
L 1222 0 
L 581 0 
z
" transform="scale(0.015625)"/>
        <path id="ArialMT-38" d="M 1131 2484 
Q 781 2613 612 2850 
Q 444 3088 444 3419 
Q 444 3919 803 4259 
Q 1163 4600 1759 4600 
Q 2359 4600 2725 4251 
Q 3091 3903 3091 3403 
Q 3091 3084 2923 2848 
Q 2756 2613 2416 2484 
Q 2838 2347 3058 2040 
Q 3278 1734 3278 1309 
Q 3278 722 2862 322 
Q 2447 -78 1769 -78 
Q 1091 -78 675 323 
Q 259 725 259 1325 
Q 259 1772 486 2073 
Q 713 2375 1131 2484 
z
M 1019 3438 
Q 1019 3113 1228 2906 
Q 1438 2700 1772 2700 
Q 2097 2700 2305 2904 
Q 2513 3109 2513 3406 
Q 2513 3716 2298 3927 
Q 2084 4138 1766 4138 
Q 1444 4138 1231 3931 
Q 1019 3725 1019 3438 
z
M 838 1322 
Q 838 1081 952 856 
Q 1066 631 1291 507 
Q 1516 384 1775 384 
Q 2178 384 2440 643 
Q 2703 903 2703 1303 
Q 2703 1709 2433 1975 
Q 2163 2241 1756 2241 
Q 1359 2241 1098 1978 
Q 838 1716 838 1322 
z
" transform="scale(0.015625)"/>
       </defs>
       <use xlink:href="#ArialMT-30"/>
       <use xlink:href="#ArialMT-2e" transform="translate(55.615234 0)"/>
       <use xlink:href="#ArialMT-38" transform="translate(83.398438 0)"/>
       <use xlink:href="#ArialMT-30" transform="translate(139.013672 0)"/>
      </g>
     </g>
    </g>
    <g id="xtick_2">
     <g id="line2d_2">
      <path d="M 149.913188 273.312 
L 149.913188 7.2 
" clip-path="url(#pd6584f8023)" style="fill: none; stroke: #cccccc; stroke-opacity: 0.3; stroke-linecap: round"/>
     </g>
     <g id="text_2">
      <!-- 0.85 -->
      <g style="fill: #262626" transform="translate(135.463442 293.441352) scale(0.1485 -0.1485)">
       <defs>
        <path id="ArialMT-35" d="M 266 1200 
L 856 1250 
Q 922 819 1161 601 
Q 1400 384 1738 384 
Q 2144 384 2425 690 
Q 2706 997 2706 1503 
Q 2706 1984 2436 2262 
Q 2166 2541 1728 2541 
Q 1456 2541 1237 2417 
Q 1019 2294 894 2097 
L 366 2166 
L 809 4519 
L 3088 4519 
L 3088 3981 
L 1259 3981 
L 1013 2750 
Q 1425 3038 1878 3038 
Q 2478 3038 2890 2622 
Q 3303 2206 3303 1553 
Q 3303 931 2941 478 
Q 2500 -78 1738 -78 
Q 1113 -78 717 272 
Q 322 622 266 1200 
z
" transform="scale(0.015625)"/>
       </defs>
       <use xlink:href="#ArialMT-30"/>
       <use xlink:href="#ArialMT-2e" transform="translate(55.615234 0)"/>
       <use xlink:href="#ArialMT-38" transform="translate(83.398438 0)"/>
       <use xlink:href="#ArialMT-35" transform="translate(139.013672 0)"/>
      </g>
     </g>
    </g>
    <g id="xtick_3">
     <g id="line2d_3">
      <path d="M 235.035794 273.312 
L 235.035794 7.2 
" clip-path="url(#pd6584f8023)" style="fill: none; stroke: #cccccc; stroke-opacity: 0.3; stroke-linecap: round"/>
     </g>
     <g id="text_3">
      <!-- 0.90 -->
      <g style="fill: #262626" transform="translate(220.586048 293.441352) scale(0.1485 -0.1485)">
       <defs>
        <path id="ArialMT-39" d="M 350 1059 
L 891 1109 
Q 959 728 1153 556 
Q 1347 384 1650 384 
Q 1909 384 2104 503 
Q 2300 622 2425 820 
Q 2550 1019 2634 1356 
Q 2719 1694 2719 2044 
Q 2719 2081 2716 2156 
Q 2547 1888 2255 1720 
Q 1963 1553 1622 1553 
Q 1053 1553 659 1965 
Q 266 2378 266 3053 
Q 266 3750 677 4175 
Q 1088 4600 1706 4600 
Q 2153 4600 2523 4359 
Q 2894 4119 3086 3673 
Q 3278 3228 3278 2384 
Q 3278 1506 3087 986 
Q 2897 466 2520 194 
Q 2144 -78 1638 -78 
Q 1100 -78 759 220 
Q 419 519 350 1059 
z
M 2653 3081 
Q 2653 3566 2395 3850 
Q 2138 4134 1775 4134 
Q 1400 4134 1122 3828 
Q 844 3522 844 3034 
Q 844 2597 1108 2323 
Q 1372 2050 1759 2050 
Q 2150 2050 2401 2323 
Q 2653 2597 2653 3081 
z
" transform="scale(0.015625)"/>
       </defs>
       <use xlink:href="#ArialMT-30"/>
       <use xlink:href="#ArialMT-2e" transform="translate(55.615234 0)"/>
       <use xlink:href="#ArialMT-39" transform="translate(83.398438 0)"/>
       <use xlink:href="#ArialMT-30" transform="translate(139.013672 0)"/>
      </g>
     </g>
    </g>
    <g id="xtick_4">
     <g id="line2d_4">
      <path d="M 320.158401 273.312 
L 320.158401 7.2 
" clip-path="url(#pd6584f8023)" style="fill: none; stroke: #cccccc; stroke-opacity: 0.3; stroke-linecap: round"/>
     </g>
     <g id="text_4">
      <!-- 0.95 -->
      <g style="fill: #262626" transform="translate(305.708654 293.441352) scale(0.1485 -0.1485)">
       <use xlink:href="#ArialMT-30"/>
       <use xlink:href="#ArialMT-2e" transform="translate(55.615234 0)"/>
       <use xlink:href="#ArialMT-39" transform="translate(83.398438 0)"/>
       <use xlink:href="#ArialMT-35" transform="translate(139.013672 0)"/>
      </g>
     </g>
    </g>
    <g id="xtick_5">
     <g id="line2d_5">
      <path d="M 405.281007 273.312 
L 405.281007 7.2 
" clip-path="url(#pd6584f8023)" style="fill: none; stroke: #cccccc; stroke-opacity: 0.3; stroke-linecap: round"/>
     </g>
     <g id="text_5">
      <!-- 1.00 -->
      <g style="fill: #262626" transform="translate(390.831261 293.441352) scale(0.1485 -0.1485)">
       <defs>
        <path id="ArialMT-31" d="M 2384 0 
L 1822 0 
L 1822 3584 
Q 1619 3391 1289 3197 
Q 959 3003 697 2906 
L 697 3450 
Q 1169 3672 1522 3987 
Q 1875 4303 2022 4600 
L 2384 4600 
L 2384 0 
z
" transform="scale(0.015625)"/>
       </defs>
       <use xlink:href="#ArialMT-31"/>
       <use xlink:href="#ArialMT-2e" transform="translate(55.615234 0)"/>
       <use xlink:href="#ArialMT-30" transform="translate(83.398438 0)"/>
       <use xlink:href="#ArialMT-30" transform="translate(139.013672 0)"/>
      </g>
     </g>
    </g>
    <g id="text_6">
     <!-- Efficacy -->
     <g style="fill: #262626" transform="translate(214.759055 312.185883) scale(0.162 -0.162)">
      <defs>
       <path id="ArialMT-45" d="M 506 0 
L 506 4581 
L 3819 4581 
L 3819 4041 
L 1113 4041 
L 1113 2638 
L 3647 2638 
L 3647 2100 
L 1113 2100 
L 1113 541 
L 3925 541 
L 3925 0 
L 506 0 
z
" transform="scale(0.015625)"/>
       <path id="ArialMT-66" d="M 556 0 
L 556 2881 
L 59 2881 
L 59 3319 
L 556 3319 
L 556 3672 
Q 556 4006 616 4169 
Q 697 4388 901 4523 
Q 1106 4659 1475 4659 
Q 1713 4659 2000 4603 
L 1916 4113 
Q 1741 4144 1584 4144 
Q 1328 4144 1222 4034 
Q 1116 3925 1116 3625 
L 1116 3319 
L 1763 3319 
L 1763 2881 
L 1116 2881 
L 1116 0 
L 556 0 
z
" transform="scale(0.015625)"/>
       <path id="ArialMT-69" d="M 425 3934 
L 425 4581 
L 988 4581 
L 988 3934 
L 425 3934 
z
M 425 0 
L 425 3319 
L 988 3319 
L 988 0 
L 425 0 
z
" transform="scale(0.015625)"/>
       <path id="ArialMT-63" d="M 2588 1216 
L 3141 1144 
Q 3050 572 2676 248 
Q 2303 -75 1759 -75 
Q 1078 -75 664 370 
Q 250 816 250 1647 
Q 250 2184 428 2587 
Q 606 2991 970 3192 
Q 1334 3394 1763 3394 
Q 2303 3394 2647 3120 
Q 2991 2847 3088 2344 
L 2541 2259 
Q 2463 2594 2264 2762 
Q 2066 2931 1784 2931 
Q 1359 2931 1093 2626 
Q 828 2322 828 1663 
Q 828 994 1084 691 
Q 1341 388 1753 388 
Q 2084 388 2306 591 
Q 2528 794 2588 1216 
z
" transform="scale(0.015625)"/>
       <path id="ArialMT-61" d="M 2588 409 
Q 2275 144 1986 34 
Q 1697 -75 1366 -75 
Q 819 -75 525 192 
Q 231 459 231 875 
Q 231 1119 342 1320 
Q 453 1522 633 1644 
Q 813 1766 1038 1828 
Q 1203 1872 1538 1913 
Q 2219 1994 2541 2106 
Q 2544 2222 2544 2253 
Q 2544 2597 2384 2738 
Q 2169 2928 1744 2928 
Q 1347 2928 1158 2789 
Q 969 2650 878 2297 
L 328 2372 
Q 403 2725 575 2942 
Q 747 3159 1072 3276 
Q 1397 3394 1825 3394 
Q 2250 3394 2515 3294 
Q 2781 3194 2906 3042 
Q 3031 2891 3081 2659 
Q 3109 2516 3109 2141 
L 3109 1391 
Q 3109 606 3145 398 
Q 3181 191 3288 0 
L 2700 0 
Q 2613 175 2588 409 
z
M 2541 1666 
Q 2234 1541 1622 1453 
Q 1275 1403 1131 1340 
Q 988 1278 909 1158 
Q 831 1038 831 891 
Q 831 666 1001 516 
Q 1172 366 1500 366 
Q 1825 366 2078 508 
Q 2331 650 2450 897 
Q 2541 1088 2541 1459 
L 2541 1666 
z
" transform="scale(0.015625)"/>
       <path id="ArialMT-79" d="M 397 -1278 
L 334 -750 
Q 519 -800 656 -800 
Q 844 -800 956 -737 
Q 1069 -675 1141 -563 
Q 1194 -478 1313 -144 
Q 1328 -97 1363 -6 
L 103 3319 
L 709 3319 
L 1400 1397 
Q 1534 1031 1641 628 
Q 1738 1016 1872 1384 
L 2581 3319 
L 3144 3319 
L 1881 -56 
Q 1678 -603 1566 -809 
Q 1416 -1088 1222 -1217 
Q 1028 -1347 759 -1347 
Q 597 -1347 397 -1278 
z
" transform="scale(0.015625)"/>
      </defs>
      <use xlink:href="#ArialMT-45"/>
      <use xlink:href="#ArialMT-66" transform="translate(66.699219 0)"/>
      <use xlink:href="#ArialMT-66" transform="translate(92.732422 0)"/>
      <use xlink:href="#ArialMT-69" transform="translate(120.515625 0)"/>
      <use xlink:href="#ArialMT-63" transform="translate(142.732422 0)"/>
      <use xlink:href="#ArialMT-61" transform="translate(192.732422 0)"/>
      <use xlink:href="#ArialMT-63" transform="translate(248.347656 0)"/>
      <use xlink:href="#ArialMT-79" transform="translate(298.347656 0)"/>
     </g>
    </g>
   </g>
   <g id="matplotlib.axis_2">
    <g id="ytick_1">
     <g id="line2d_6">
      <path d="M 64.414898 235.668441 
L 421.534898 235.668441 
" clip-path="url(#pd6584f8023)" style="fill: none; stroke: #cccccc; stroke-opacity: 0.3; stroke-linecap: round"/>
     </g>
     <g id="text_7">
      <!-- 0.05 -->
      <g style="fill: #262626" transform="translate(26.015406 240.983117) scale(0.1485 -0.1485)">
       <use xlink:href="#ArialMT-30"/>
       <use xlink:href="#ArialMT-2e" transform="translate(55.615234 0)"/>
       <use xlink:href="#ArialMT-30" transform="translate(83.398438 0)"/>
       <use xlink:href="#ArialMT-35" transform="translate(139.013672 0)"/>
      </g>
     </g>
    </g>
    <g id="ytick_2">
     <g id="line2d_7">
      <path d="M 64.414898 171.535132 
L 421.534898 171.535132 
" clip-path="url(#pd6584f8023)" style="fill: none; stroke: #cccccc; stroke-opacity: 0.3; stroke-linecap: round"/>
     </g>
     <g id="text_8">
      <!-- 0.10 -->
      <g style="fill: #262626" transform="translate(26.015406 176.849808) scale(0.1485 -0.1485)">
       <use xlink:href="#ArialMT-30"/>
       <use xlink:href="#ArialMT-2e" transform="translate(55.615234 0)"/>
       <use xlink:href="#ArialMT-31" transform="translate(83.398438 0)"/>
       <use xlink:href="#ArialMT-30" transform="translate(139.013672 0)"/>
      </g>
     </g>
    </g>
    <g id="ytick_3">
     <g id="line2d_8">
      <path d="M 64.414898 107.401823 
L 421.534898 107.401823 
" clip-path="url(#pd6584f8023)" style="fill: none; stroke: #cccccc; stroke-opacity: 0.3; stroke-linecap: round"/>
     </g>
     <g id="text_9">
      <!-- 0.15 -->
      <g style="fill: #262626" transform="translate(26.015406 112.716499) scale(0.1485 -0.1485)">
       <use xlink:href="#ArialMT-30"/>
       <use xlink:href="#ArialMT-2e" transform="translate(55.615234 0)"/>
       <use xlink:href="#ArialMT-31" transform="translate(83.398438 0)"/>
       <use xlink:href="#ArialMT-35" transform="translate(139.013672 0)"/>
      </g>
     </g>
    </g>
    <g id="ytick_4">
     <g id="line2d_9">
      <path d="M 64.414898 43.268514 
L 421.534898 43.268514 
" clip-path="url(#pd6584f8023)" style="fill: none; stroke: #cccccc; stroke-opacity: 0.3; stroke-linecap: round"/>
     </g>
     <g id="text_10">
      <!-- 0.20 -->
      <g style="fill: #262626" transform="translate(26.015406 48.58319) scale(0.1485 -0.1485)">
       <defs>
        <path id="ArialMT-32" d="M 3222 541 
L 3222 0 
L 194 0 
Q 188 203 259 391 
Q 375 700 629 1000 
Q 884 1300 1366 1694 
Q 2113 2306 2375 2664 
Q 2638 3022 2638 3341 
Q 2638 3675 2398 3904 
Q 2159 4134 1775 4134 
Q 1369 4134 1125 3890 
Q 881 3647 878 3216 
L 300 3275 
Q 359 3922 746 4261 
Q 1134 4600 1788 4600 
Q 2447 4600 2831 4234 
Q 3216 3869 3216 3328 
Q 3216 3053 3103 2787 
Q 2991 2522 2730 2228 
Q 2469 1934 1863 1422 
Q 1356 997 1212 845 
Q 1069 694 975 541 
L 3222 541 
z
" transform="scale(0.015625)"/>
       </defs>
       <use xlink:href="#ArialMT-30"/>
       <use xlink:href="#ArialMT-2e" transform="translate(55.615234 0)"/>
       <use xlink:href="#ArialMT-32" transform="translate(83.398438 0)"/>
       <use xlink:href="#ArialMT-30" transform="translate(139.013672 0)"/>
      </g>
     </g>
    </g>
    <g id="text_11">
     <!-- AUC -->
     <g style="fill: #262626" transform="translate(18.795656 157.358391) rotate(-90) scale(0.162 -0.162)">
      <defs>
       <path id="ArialMT-41" d="M -9 0 
L 1750 4581 
L 2403 4581 
L 4278 0 
L 3588 0 
L 3053 1388 
L 1138 1388 
L 634 0 
L -9 0 
z
M 1313 1881 
L 2866 1881 
L 2388 3150 
Q 2169 3728 2063 4100 
Q 1975 3659 1816 3225 
L 1313 1881 
z
" transform="scale(0.015625)"/>
       <path id="ArialMT-55" d="M 3500 4581 
L 4106 4581 
L 4106 1934 
Q 4106 1244 3950 837 
Q 3794 431 3386 176 
Q 2978 -78 2316 -78 
Q 1672 -78 1262 144 
Q 853 366 678 786 
Q 503 1206 503 1934 
L 503 4581 
L 1109 4581 
L 1109 1938 
Q 1109 1341 1220 1058 
Q 1331 775 1601 622 
Q 1872 469 2263 469 
Q 2931 469 3215 772 
Q 3500 1075 3500 1938 
L 3500 4581 
z
" transform="scale(0.015625)"/>
       <path id="ArialMT-43" d="M 3763 1606 
L 4369 1453 
Q 4178 706 3683 314 
Q 3188 -78 2472 -78 
Q 1731 -78 1267 223 
Q 803 525 561 1097 
Q 319 1669 319 2325 
Q 319 3041 592 3573 
Q 866 4106 1370 4382 
Q 1875 4659 2481 4659 
Q 3169 4659 3637 4309 
Q 4106 3959 4291 3325 
L 3694 3184 
Q 3534 3684 3231 3912 
Q 2928 4141 2469 4141 
Q 1941 4141 1586 3887 
Q 1231 3634 1087 3207 
Q 944 2781 944 2328 
Q 944 1744 1114 1308 
Q 1284 872 1643 656 
Q 2003 441 2422 441 
Q 2931 441 3284 734 
Q 3638 1028 3763 1606 
z
" transform="scale(0.015625)"/>
      </defs>
      <use xlink:href="#ArialMT-41"/>
      <use xlink:href="#ArialMT-55" transform="translate(66.699219 0)"/>
      <use xlink:href="#ArialMT-43" transform="translate(138.916016 0)"/>
     </g>
    </g>
   </g>
   <g id="LineCollection_1">
    <path d="M 399.156542 237.980613 
L 401.608426 237.980613 
" clip-path="url(#pd6584f8023)" style="fill: none; stroke: #1f77b4; stroke-opacity: 0.6; stroke-width: 1.2"/>
   </g>
   <g id="LineCollection_2">
    <path d="M 400.382484 238.520177 
L 400.382484 237.441048 
" clip-path="url(#pd6584f8023)" style="fill: none; stroke: #1f77b4; stroke-opacity: 0.6; stroke-width: 1.2"/>
   </g>
   <g id="line2d_10">
    <defs>
     <path id="m88fd25797c" d="M 0 3 
L 0 -3 
" style="stroke: #1f77b4; stroke-opacity: 0.6"/>
    </defs>
    <g clip-path="url(#pd6584f8023)">
     <use xlink:href="#m88fd25797c" x="399.156542" y="237.980613" style="fill: #1f77b4; fill-opacity: 0.6; stroke: #1f77b4; stroke-opacity: 0.6"/>
    </g>
   </g>
   <g id="line2d_11">
    <g clip-path="url(#pd6584f8023)">
     <use xlink:href="#m88fd25797c" x="401.608426" y="237.980613" style="fill: #1f77b4; fill-opacity: 0.6; stroke: #1f77b4; stroke-opacity: 0.6"/>
    </g>
   </g>
   <g id="line2d_12">
    <defs>
     <path id="mfa65f7ec42" d="M 3 0 
L -3 -0 
" style="stroke: #1f77b4; stroke-opacity: 0.6"/>
    </defs>
    <g clip-path="url(#pd6584f8023)">
     <use xlink:href="#mfa65f7ec42" x="400.382484" y="238.520177" style="fill: #1f77b4; fill-opacity: 0.6; stroke: #1f77b4; stroke-opacity: 0.6"/>
    </g>
   </g>
   <g id="line2d_13">
    <g clip-path="url(#pd6584f8023)">
     <use xlink:href="#mfa65f7ec42" x="400.382484" y="237.441048" style="fill: #1f77b4; fill-opacity: 0.6; stroke: #1f77b4; stroke-opacity: 0.6"/>
    </g>
   </g>
   <g id="LineCollection_3">
    <path d="M 402.272653 237.941199 
L 403.104826 237.941199 
" clip-path="url(#pd6584f8023)" style="fill: none; stroke: #1f77b4; stroke-opacity: 0.6; stroke-width: 1.2"/>
   </g>
   <g id="LineCollection_4">
    <path d="M 402.68874 238.675571 
L 402.68874 237.206827 
" clip-path="url(#pd6584f8023)" style="fill: none; stroke: #1f77b4; stroke-opacity: 0.6; stroke-width: 1.2"/>
   </g>
   <g id="line2d_14">
    <g clip-path="url(#pd6584f8023)">
     <use xlink:href="#m88fd25797c" x="402.272653" y="237.941199" style="fill: #1f77b4; fill-opacity: 0.6; stroke: #1f77b4; stroke-opacity: 0.6"/>
    </g>
   </g>
   <g id="line2d_15">
    <g clip-path="url(#pd6584f8023)">
     <use xlink:href="#m88fd25797c" x="403.104826" y="237.941199" style="fill: #1f77b4; fill-opacity: 0.6; stroke: #1f77b4; stroke-opacity: 0.6"/>
    </g>
   </g>
   <g id="line2d_16">
    <g clip-path="url(#pd6584f8023)">
     <use xlink:href="#mfa65f7ec42" x="402.68874" y="238.675571" style="fill: #1f77b4; fill-opacity: 0.6; stroke: #1f77b4; stroke-opacity: 0.6"/>
    </g>
   </g>
   <g id="line2d_17">
    <g clip-path="url(#pd6584f8023)">
     <use xlink:href="#mfa65f7ec42" x="402.68874" y="237.206827" style="fill: #1f77b4; fill-opacity: 0.6; stroke: #1f77b4; stroke-opacity: 0.6"/>
    </g>
   </g>
   <g id="LineCollection_5">
    <path d="M 403.862508 236.21584 
L 404.76552 236.21584 
" clip-path="url(#pd6584f8023)" style="fill: none; stroke: #aec7e8; stroke-opacity: 0.6; stroke-width: 1.2"/>
   </g>
   <g id="LineCollection_6">
    <path d="M 404.314014 236.694941 
L 404.314014 235.73674 
" clip-path="url(#pd6584f8023)" style="fill: none; stroke: #aec7e8; stroke-opacity: 0.6; stroke-width: 1.2"/>
   </g>
   <g id="line2d_18">
    <defs>
     <path id="m5268923f93" d="M 0 3 
L 0 -3 
" style="stroke: #aec7e8; stroke-opacity: 0.6"/>
    </defs>
    <g clip-path="url(#pd6584f8023)">
     <use xlink:href="#m5268923f93" x="403.862508" y="236.21584" style="fill: #aec7e8; fill-opacity: 0.6; stroke: #aec7e8; stroke-opacity: 0.6"/>
    </g>
   </g>
   <g id="line2d_19">
    <g clip-path="url(#pd6584f8023)">
     <use xlink:href="#m5268923f93" x="404.76552" y="236.21584" style="fill: #aec7e8; fill-opacity: 0.6; stroke: #aec7e8; stroke-opacity: 0.6"/>
    </g>
   </g>
   <g id="line2d_20">
    <defs>
     <path id="mb8b3a8212b" d="M 3 0 
L -3 -0 
" style="stroke: #aec7e8; stroke-opacity: 0.6"/>
    </defs>
    <g clip-path="url(#pd6584f8023)">
     <use xlink:href="#mb8b3a8212b" x="404.314014" y="236.694941" style="fill: #aec7e8; fill-opacity: 0.6; stroke: #aec7e8; stroke-opacity: 0.6"/>
    </g>
   </g>
   <g id="line2d_21">
    <g clip-path="url(#pd6584f8023)">
     <use xlink:href="#mb8b3a8212b" x="404.314014" y="235.73674" style="fill: #aec7e8; fill-opacity: 0.6; stroke: #aec7e8; stroke-opacity: 0.6"/>
    </g>
   </g>
   <g id="LineCollection_7">
    <path d="M 111.207767 153.006405 
L 392.949183 153.006405 
" clip-path="url(#pd6584f8023)" style="fill: none; stroke: #aec7e8; stroke-opacity: 0.6; stroke-width: 1.2"/>
   </g>
   <g id="LineCollection_8">
    <path d="M 252.078475 230.539784 
L 252.078475 75.473026 
" clip-path="url(#pd6584f8023)" style="fill: none; stroke: #aec7e8; stroke-opacity: 0.6; stroke-width: 1.2"/>
   </g>
   <g id="line2d_22">
    <g clip-path="url(#pd6584f8023)">
     <use xlink:href="#m5268923f93" x="111.207767" y="153.006405" style="fill: #aec7e8; fill-opacity: 0.6; stroke: #aec7e8; stroke-opacity: 0.6"/>
    </g>
   </g>
   <g id="line2d_23">
    <g clip-path="url(#pd6584f8023)">
     <use xlink:href="#m5268923f93" x="392.949183" y="153.006405" style="fill: #aec7e8; fill-opacity: 0.6; stroke: #aec7e8; stroke-opacity: 0.6"/>
    </g>
   </g>
   <g id="line2d_24">
    <g clip-path="url(#pd6584f8023)">
     <use xlink:href="#mb8b3a8212b" x="252.078475" y="230.539784" style="fill: #aec7e8; fill-opacity: 0.6; stroke: #aec7e8; stroke-opacity: 0.6"/>
    </g>
   </g>
   <g id="line2d_25">
    <g clip-path="url(#pd6584f8023)">
     <use xlink:href="#mb8b3a8212b" x="252.078475" y="75.473026" style="fill: #aec7e8; fill-opacity: 0.6; stroke: #aec7e8; stroke-opacity: 0.6"/>
    </g>
   </g>
   <g id="LineCollection_9">
    <path d="M 396.759645 239.302617 
L 399.674285 239.302617 
" clip-path="url(#pd6584f8023)" style="fill: none; stroke: #ff7f0e; stroke-opacity: 0.6; stroke-width: 1.2"/>
   </g>
   <g id="LineCollection_10">
    <path d="M 398.216965 240.080649 
L 398.216965 238.524584 
" clip-path="url(#pd6584f8023)" style="fill: none; stroke: #ff7f0e; stroke-opacity: 0.6; stroke-width: 1.2"/>
   </g>
   <g id="line2d_26">
    <defs>
     <path id="m726efaf38b" d="M 0 3 
L 0 -3 
" style="stroke: #ff7f0e; stroke-opacity: 0.6"/>
    </defs>
    <g clip-path="url(#pd6584f8023)">
     <use xlink:href="#m726efaf38b" x="396.759645" y="239.302617" style="fill: #ff7f0e; fill-opacity: 0.6; stroke: #ff7f0e; stroke-opacity: 0.6"/>
    </g>
   </g>
   <g id="line2d_27">
    <g clip-path="url(#pd6584f8023)">
     <use xlink:href="#m726efaf38b" x="399.674285" y="239.302617" style="fill: #ff7f0e; fill-opacity: 0.6; stroke: #ff7f0e; stroke-opacity: 0.6"/>
    </g>
   </g>
   <g id="line2d_28">
    <defs>
     <path id="m9df09f226d" d="M 3 0 
L -3 -0 
" style="stroke: #ff7f0e; stroke-opacity: 0.6"/>
    </defs>
    <g clip-path="url(#pd6584f8023)">
     <use xlink:href="#m9df09f226d" x="398.216965" y="240.080649" style="fill: #ff7f0e; fill-opacity: 0.6; stroke: #ff7f0e; stroke-opacity: 0.6"/>
    </g>
   </g>
   <g id="line2d_29">
    <g clip-path="url(#pd6584f8023)">
     <use xlink:href="#m9df09f226d" x="398.216965" y="238.524584" style="fill: #ff7f0e; fill-opacity: 0.6; stroke: #ff7f0e; stroke-opacity: 0.6"/>
    </g>
   </g>
   <g id="LineCollection_11">
    <path d="M 243.309099 97.182161 
L 252.276573 97.182161 
" clip-path="url(#pd6584f8023)" style="fill: none; stroke: #ff7f0e; stroke-opacity: 0.6; stroke-width: 1.2"/>
   </g>
   <g id="LineCollection_12">
    <path d="M 247.792836 98.591911 
L 247.792836 95.772411 
" clip-path="url(#pd6584f8023)" style="fill: none; stroke: #ff7f0e; stroke-opacity: 0.6; stroke-width: 1.2"/>
   </g>
   <g id="line2d_30">
    <g clip-path="url(#pd6584f8023)">
     <use xlink:href="#m726efaf38b" x="243.309099" y="97.182161" style="fill: #ff7f0e; fill-opacity: 0.6; stroke: #ff7f0e; stroke-opacity: 0.6"/>
    </g>
   </g>
   <g id="line2d_31">
    <g clip-path="url(#pd6584f8023)">
     <use xlink:href="#m726efaf38b" x="252.276573" y="97.182161" style="fill: #ff7f0e; fill-opacity: 0.6; stroke: #ff7f0e; stroke-opacity: 0.6"/>
    </g>
   </g>
   <g id="line2d_32">
    <g clip-path="url(#pd6584f8023)">
     <use xlink:href="#m9df09f226d" x="247.792836" y="98.591911" style="fill: #ff7f0e; fill-opacity: 0.6; stroke: #ff7f0e; stroke-opacity: 0.6"/>
    </g>
   </g>
   <g id="line2d_33">
    <g clip-path="url(#pd6584f8023)">
     <use xlink:href="#m9df09f226d" x="247.792836" y="95.772411" style="fill: #ff7f0e; fill-opacity: 0.6; stroke: #ff7f0e; stroke-opacity: 0.6"/>
    </g>
   </g>
   <g id="LineCollection_13">
    <path d="M 404.764868 254.154417 
L 405.26144 254.154417 
" clip-path="url(#pd6584f8023)" style="fill: none; stroke: #ffbb78; stroke-opacity: 0.6; stroke-width: 1.2"/>
   </g>
   <g id="LineCollection_14">
    <path d="M 405.013154 258.415896 
L 405.013154 249.892938 
" clip-path="url(#pd6584f8023)" style="fill: none; stroke: #ffbb78; stroke-opacity: 0.6; stroke-width: 1.2"/>
   </g>
   <g id="line2d_34">
    <defs>
     <path id="mcada8c839d" d="M 0 3 
L 0 -3 
" style="stroke: #ffbb78; stroke-opacity: 0.6"/>
    </defs>
    <g clip-path="url(#pd6584f8023)">
     <use xlink:href="#mcada8c839d" x="404.764868" y="254.154417" style="fill: #ffbb78; fill-opacity: 0.6; stroke: #ffbb78; stroke-opacity: 0.6"/>
    </g>
   </g>
   <g id="line2d_35">
    <g clip-path="url(#pd6584f8023)">
     <use xlink:href="#mcada8c839d" x="405.26144" y="254.154417" style="fill: #ffbb78; fill-opacity: 0.6; stroke: #ffbb78; stroke-opacity: 0.6"/>
    </g>
   </g>
   <g id="line2d_36">
    <defs>
     <path id="mdf3ebc80b0" d="M 3 0 
L -3 -0 
" style="stroke: #ffbb78; stroke-opacity: 0.6"/>
    </defs>
    <g clip-path="url(#pd6584f8023)">
     <use xlink:href="#mdf3ebc80b0" x="405.013154" y="258.415896" style="fill: #ffbb78; fill-opacity: 0.6; stroke: #ffbb78; stroke-opacity: 0.6"/>
    </g>
   </g>
   <g id="line2d_37">
    <g clip-path="url(#pd6584f8023)">
     <use xlink:href="#mdf3ebc80b0" x="405.013154" y="249.892938" style="fill: #ffbb78; fill-opacity: 0.6; stroke: #ffbb78; stroke-opacity: 0.6"/>
    </g>
   </g>
   <g id="LineCollection_15">
    <path d="M 404.064763 259.169966 
L 405.08989 259.169966 
" clip-path="url(#pd6584f8023)" style="fill: none; stroke: #ffbb78; stroke-opacity: 0.6; stroke-width: 1.2"/>
   </g>
   <g id="LineCollection_16">
    <path d="M 404.577326 261.216 
L 404.577326 257.123932 
" clip-path="url(#pd6584f8023)" style="fill: none; stroke: #ffbb78; stroke-opacity: 0.6; stroke-width: 1.2"/>
   </g>
   <g id="line2d_38">
    <g clip-path="url(#pd6584f8023)">
     <use xlink:href="#mcada8c839d" x="404.064763" y="259.169966" style="fill: #ffbb78; fill-opacity: 0.6; stroke: #ffbb78; stroke-opacity: 0.6"/>
    </g>
   </g>
   <g id="line2d_39">
    <g clip-path="url(#pd6584f8023)">
     <use xlink:href="#mcada8c839d" x="405.08989" y="259.169966" style="fill: #ffbb78; fill-opacity: 0.6; stroke: #ffbb78; stroke-opacity: 0.6"/>
    </g>
   </g>
   <g id="line2d_40">
    <g clip-path="url(#pd6584f8023)">
     <use xlink:href="#mdf3ebc80b0" x="404.577326" y="261.216" style="fill: #ffbb78; fill-opacity: 0.6; stroke: #ffbb78; stroke-opacity: 0.6"/>
    </g>
   </g>
   <g id="line2d_41">
    <g clip-path="url(#pd6584f8023)">
     <use xlink:href="#mdf3ebc80b0" x="404.577326" y="257.123932" style="fill: #ffbb78; fill-opacity: 0.6; stroke: #ffbb78; stroke-opacity: 0.6"/>
    </g>
   </g>
   <g id="LineCollection_17">
    <path d="M 209.022803 68.092449 
L 343.256794 68.092449 
" clip-path="url(#pd6584f8023)" style="fill: none; stroke: #ff9896; stroke-opacity: 0.6; stroke-width: 1.2"/>
   </g>
   <g id="LineCollection_18">
    <path d="M 276.139798 94.356231 
L 276.139798 41.828667 
" clip-path="url(#pd6584f8023)" style="fill: none; stroke: #ff9896; stroke-opacity: 0.6; stroke-width: 1.2"/>
   </g>
   <g id="line2d_42">
    <defs>
     <path id="m1f3fc43af0" d="M 0 3 
L 0 -3 
" style="stroke: #ff9896; stroke-opacity: 0.6"/>
    </defs>
    <g clip-path="url(#pd6584f8023)">
     <use xlink:href="#m1f3fc43af0" x="209.022803" y="68.092449" style="fill: #ff9896; fill-opacity: 0.6; stroke: #ff9896; stroke-opacity: 0.6"/>
    </g>
   </g>
   <g id="line2d_43">
    <g clip-path="url(#pd6584f8023)">
     <use xlink:href="#m1f3fc43af0" x="343.256794" y="68.092449" style="fill: #ff9896; fill-opacity: 0.6; stroke: #ff9896; stroke-opacity: 0.6"/>
    </g>
   </g>
   <g id="line2d_44">
    <defs>
     <path id="m6e15d545c4" d="M 3 0 
L -3 -0 
" style="stroke: #ff9896; stroke-opacity: 0.6"/>
    </defs>
    <g clip-path="url(#pd6584f8023)">
     <use xlink:href="#m6e15d545c4" x="276.139798" y="94.356231" style="fill: #ff9896; fill-opacity: 0.6; stroke: #ff9896; stroke-opacity: 0.6"/>
    </g>
   </g>
   <g id="line2d_45">
    <g clip-path="url(#pd6584f8023)">
     <use xlink:href="#m6e15d545c4" x="276.139798" y="41.828667" style="fill: #ff9896; fill-opacity: 0.6; stroke: #ff9896; stroke-opacity: 0.6"/>
    </g>
   </g>
   <g id="LineCollection_19">
    <path d="M 220.552069 55.06901 
L 277.040226 55.06901 
" clip-path="url(#pd6584f8023)" style="fill: none; stroke: #ff9896; stroke-opacity: 0.6; stroke-width: 1.2"/>
   </g>
   <g id="LineCollection_20">
    <path d="M 248.796147 90.84202 
L 248.796147 19.296 
" clip-path="url(#pd6584f8023)" style="fill: none; stroke: #ff9896; stroke-opacity: 0.6; stroke-width: 1.2"/>
   </g>
   <g id="line2d_46">
    <g clip-path="url(#pd6584f8023)">
     <use xlink:href="#m1f3fc43af0" x="220.552069" y="55.06901" style="fill: #ff9896; fill-opacity: 0.6; stroke: #ff9896; stroke-opacity: 0.6"/>
    </g>
   </g>
   <g id="line2d_47">
    <g clip-path="url(#pd6584f8023)">
     <use xlink:href="#m1f3fc43af0" x="277.040226" y="55.06901" style="fill: #ff9896; fill-opacity: 0.6; stroke: #ff9896; stroke-opacity: 0.6"/>
    </g>
   </g>
   <g id="line2d_48">
    <g clip-path="url(#pd6584f8023)">
     <use xlink:href="#m6e15d545c4" x="248.796147" y="90.84202" style="fill: #ff9896; fill-opacity: 0.6; stroke: #ff9896; stroke-opacity: 0.6"/>
    </g>
   </g>
   <g id="line2d_49">
    <g clip-path="url(#pd6584f8023)">
     <use xlink:href="#m6e15d545c4" x="248.796147" y="19.296" style="fill: #ff9896; fill-opacity: 0.6; stroke: #ff9896; stroke-opacity: 0.6"/>
    </g>
   </g>
   <g id="LineCollection_21">
    <path d="M 403.598249 159.893509 
L 405.302171 159.893509 
" clip-path="url(#pd6584f8023)" style="fill: none; stroke: #98df8a; stroke-opacity: 0.6; stroke-width: 1.2"/>
   </g>
   <g id="LineCollection_22">
    <path d="M 404.45021 244.600131 
L 404.45021 75.186886 
" clip-path="url(#pd6584f8023)" style="fill: none; stroke: #98df8a; stroke-opacity: 0.6; stroke-width: 1.2"/>
   </g>
   <g id="line2d_50">
    <defs>
     <path id="mb0122bf2ba" d="M 0 3 
L 0 -3 
" style="stroke: #98df8a; stroke-opacity: 0.6"/>
    </defs>
    <g clip-path="url(#pd6584f8023)">
     <use xlink:href="#mb0122bf2ba" x="403.598249" y="159.893509" style="fill: #98df8a; fill-opacity: 0.6; stroke: #98df8a; stroke-opacity: 0.6"/>
    </g>
   </g>
   <g id="line2d_51">
    <g clip-path="url(#pd6584f8023)">
     <use xlink:href="#mb0122bf2ba" x="405.302171" y="159.893509" style="fill: #98df8a; fill-opacity: 0.6; stroke: #98df8a; stroke-opacity: 0.6"/>
    </g>
   </g>
   <g id="line2d_52">
    <defs>
     <path id="m1979e68602" d="M 3 0 
L -3 -0 
" style="stroke: #98df8a; stroke-opacity: 0.6"/>
    </defs>
    <g clip-path="url(#pd6584f8023)">
     <use xlink:href="#m1979e68602" x="404.45021" y="244.600131" style="fill: #98df8a; fill-opacity: 0.6; stroke: #98df8a; stroke-opacity: 0.6"/>
    </g>
   </g>
   <g id="line2d_53">
    <g clip-path="url(#pd6584f8023)">
     <use xlink:href="#m1979e68602" x="404.45021" y="75.186886" style="fill: #98df8a; fill-opacity: 0.6; stroke: #98df8a; stroke-opacity: 0.6"/>
    </g>
   </g>
   <g id="LineCollection_23">
    <path d="M 403.33524 161.744317 
L 405.093033 161.744317 
" clip-path="url(#pd6584f8023)" style="fill: none; stroke: #98df8a; stroke-opacity: 0.6; stroke-width: 1.2"/>
   </g>
   <g id="LineCollection_24">
    <path d="M 404.214137 231.364445 
L 404.214137 92.124189 
" clip-path="url(#pd6584f8023)" style="fill: none; stroke: #98df8a; stroke-opacity: 0.6; stroke-width: 1.2"/>
   </g>
   <g id="line2d_54">
    <g clip-path="url(#pd6584f8023)">
     <use xlink:href="#mb0122bf2ba" x="403.33524" y="161.744317" style="fill: #98df8a; fill-opacity: 0.6; stroke: #98df8a; stroke-opacity: 0.6"/>
    </g>
   </g>
   <g id="line2d_55">
    <g clip-path="url(#pd6584f8023)">
     <use xlink:href="#mb0122bf2ba" x="405.093033" y="161.744317" style="fill: #98df8a; fill-opacity: 0.6; stroke: #98df8a; stroke-opacity: 0.6"/>
    </g>
   </g>
   <g id="line2d_56">
    <g clip-path="url(#pd6584f8023)">
     <use xlink:href="#m1979e68602" x="404.214137" y="231.364445" style="fill: #98df8a; fill-opacity: 0.6; stroke: #98df8a; stroke-opacity: 0.6"/>
    </g>
   </g>
   <g id="line2d_57">
    <g clip-path="url(#pd6584f8023)">
     <use xlink:href="#m1979e68602" x="404.214137" y="92.124189" style="fill: #98df8a; fill-opacity: 0.6; stroke: #98df8a; stroke-opacity: 0.6"/>
    </g>
   </g>
   <g id="LineCollection_25">
    <path d="M 404.886038 233.898302 
L 404.886038 233.898302 
" clip-path="url(#pd6584f8023)" style="fill: none; stroke: #000000; stroke-opacity: 0.6; stroke-width: 1.2"/>
   </g>
   <g id="LineCollection_26">
    <path d="M 404.886038 233.898302 
L 404.886038 233.898302 
" clip-path="url(#pd6584f8023)" style="fill: none; stroke: #000000; stroke-opacity: 0.6; stroke-width: 1.2"/>
   </g>
   <g id="line2d_58">
    <defs>
     <path id="m0a2a646394" d="M 0 3 
L 0 -3 
" style="stroke: #000000; stroke-opacity: 0.6"/>
    </defs>
    <g clip-path="url(#pd6584f8023)">
     <use xlink:href="#m0a2a646394" x="404.886038" y="233.898302" style="fill-opacity: 0.6; stroke: #000000; stroke-opacity: 0.6"/>
    </g>
   </g>
   <g id="line2d_59">
    <g clip-path="url(#pd6584f8023)">
     <use xlink:href="#m0a2a646394" x="404.886038" y="233.898302" style="fill-opacity: 0.6; stroke: #000000; stroke-opacity: 0.6"/>
    </g>
   </g>
   <g id="line2d_60">
    <defs>
     <path id="m543fbdad99" d="M 3 0 
L -3 -0 
" style="stroke: #000000; stroke-opacity: 0.6"/>
    </defs>
    <g clip-path="url(#pd6584f8023)">
     <use xlink:href="#m543fbdad99" x="404.886038" y="233.898302" style="fill-opacity: 0.6; stroke: #000000; stroke-opacity: 0.6"/>
    </g>
   </g>
   <g id="line2d_61">
    <g clip-path="url(#pd6584f8023)">
     <use xlink:href="#m543fbdad99" x="404.886038" y="233.898302" style="fill-opacity: 0.6; stroke: #000000; stroke-opacity: 0.6"/>
    </g>
   </g>
   <g id="LineCollection_27">
    <path d="M 333.274889 222.078062 
L 343.615124 222.078062 
" clip-path="url(#pd6584f8023)" style="fill: none; stroke: #2ca02c; stroke-opacity: 0.6; stroke-width: 1.2"/>
   </g>
   <g id="LineCollection_28">
    <path d="M 338.445006 222.983132 
L 338.445006 221.172991 
" clip-path="url(#pd6584f8023)" style="fill: none; stroke: #2ca02c; stroke-opacity: 0.6; stroke-width: 1.2"/>
   </g>
   <g id="line2d_62">
    <defs>
     <path id="me0f443530b" d="M 0 3 
L 0 -3 
" style="stroke: #2ca02c; stroke-opacity: 0.6"/>
    </defs>
    <g clip-path="url(#pd6584f8023)">
     <use xlink:href="#me0f443530b" x="333.274889" y="222.078062" style="fill: #2ca02c; fill-opacity: 0.6; stroke: #2ca02c; stroke-opacity: 0.6"/>
    </g>
   </g>
   <g id="line2d_63">
    <g clip-path="url(#pd6584f8023)">
     <use xlink:href="#me0f443530b" x="343.615124" y="222.078062" style="fill: #2ca02c; fill-opacity: 0.6; stroke: #2ca02c; stroke-opacity: 0.6"/>
    </g>
   </g>
   <g id="line2d_64">
    <defs>
     <path id="m86fe74fa31" d="M 3 0 
L -3 -0 
" style="stroke: #2ca02c; stroke-opacity: 0.6"/>
    </defs>
    <g clip-path="url(#pd6584f8023)">
     <use xlink:href="#m86fe74fa31" x="338.445006" y="222.983132" style="fill: #2ca02c; fill-opacity: 0.6; stroke: #2ca02c; stroke-opacity: 0.6"/>
    </g>
   </g>
   <g id="line2d_65">
    <g clip-path="url(#pd6584f8023)">
     <use xlink:href="#m86fe74fa31" x="338.445006" y="221.172991" style="fill: #2ca02c; fill-opacity: 0.6; stroke: #2ca02c; stroke-opacity: 0.6"/>
    </g>
   </g>
   <g id="LineCollection_29">
    <path d="M 166.746709 103.815677 
L 182.046731 103.815677 
" clip-path="url(#pd6584f8023)" style="fill: none; stroke: #2ca02c; stroke-opacity: 0.6; stroke-width: 1.2"/>
   </g>
   <g id="LineCollection_30">
    <path d="M 174.39672 108.44881 
L 174.39672 99.182544 
" clip-path="url(#pd6584f8023)" style="fill: none; stroke: #2ca02c; stroke-opacity: 0.6; stroke-width: 1.2"/>
   </g>
   <g id="line2d_66">
    <g clip-path="url(#pd6584f8023)">
     <use xlink:href="#me0f443530b" x="166.746709" y="103.815677" style="fill: #2ca02c; fill-opacity: 0.6; stroke: #2ca02c; stroke-opacity: 0.6"/>
    </g>
   </g>
   <g id="line2d_67">
    <g clip-path="url(#pd6584f8023)">
     <use xlink:href="#me0f443530b" x="182.046731" y="103.815677" style="fill: #2ca02c; fill-opacity: 0.6; stroke: #2ca02c; stroke-opacity: 0.6"/>
    </g>
   </g>
   <g id="line2d_68">
    <g clip-path="url(#pd6584f8023)">
     <use xlink:href="#m86fe74fa31" x="174.39672" y="108.44881" style="fill: #2ca02c; fill-opacity: 0.6; stroke: #2ca02c; stroke-opacity: 0.6"/>
    </g>
   </g>
   <g id="line2d_69">
    <g clip-path="url(#pd6584f8023)">
     <use xlink:href="#m86fe74fa31" x="174.39672" y="99.182544" style="fill: #2ca02c; fill-opacity: 0.6; stroke: #2ca02c; stroke-opacity: 0.6"/>
    </g>
   </g>
   <g id="LineCollection_31">
    <path d="M 109.698927 64.262231 
L 140.161615 64.262231 
" clip-path="url(#pd6584f8023)" style="fill: none; stroke: #800080; stroke-opacity: 0.6; stroke-width: 1.2"/>
   </g>
   <g id="LineCollection_32">
    <path d="M 124.930271 69.808751 
L 124.930271 58.715711 
" clip-path="url(#pd6584f8023)" style="fill: none; stroke: #800080; stroke-opacity: 0.6; stroke-width: 1.2"/>
   </g>
   <g id="line2d_70">
    <defs>
     <path id="mf94adc068c" d="M 0 3 
L 0 -3 
" style="stroke: #800080; stroke-opacity: 0.6"/>
    </defs>
    <g clip-path="url(#pd6584f8023)">
     <use xlink:href="#mf94adc068c" x="109.698927" y="64.262231" style="fill: #800080; fill-opacity: 0.6; stroke: #800080; stroke-opacity: 0.6"/>
    </g>
   </g>
   <g id="line2d_71">
    <g clip-path="url(#pd6584f8023)">
     <use xlink:href="#mf94adc068c" x="140.161615" y="64.262231" style="fill: #800080; fill-opacity: 0.6; stroke: #800080; stroke-opacity: 0.6"/>
    </g>
   </g>
   <g id="line2d_72">
    <defs>
     <path id="mad49aacaae" d="M 3 0 
L -3 -0 
" style="stroke: #800080; stroke-opacity: 0.6"/>
    </defs>
    <g clip-path="url(#pd6584f8023)">
     <use xlink:href="#mad49aacaae" x="124.930271" y="69.808751" style="fill: #800080; fill-opacity: 0.6; stroke: #800080; stroke-opacity: 0.6"/>
    </g>
   </g>
   <g id="line2d_73">
    <g clip-path="url(#pd6584f8023)">
     <use xlink:href="#mad49aacaae" x="124.930271" y="58.715711" style="fill: #800080; fill-opacity: 0.6; stroke: #800080; stroke-opacity: 0.6"/>
    </g>
   </g>
   <g id="LineCollection_33">
    <path d="M 80.647626 69.031199 
L 219.91421 69.031199 
" clip-path="url(#pd6584f8023)" style="fill: none; stroke: #d62728; stroke-opacity: 0.6; stroke-width: 1.2"/>
   </g>
   <g id="LineCollection_34">
    <path d="M 150.280918 86.039719 
L 150.280918 52.022679 
" clip-path="url(#pd6584f8023)" style="fill: none; stroke: #d62728; stroke-opacity: 0.6; stroke-width: 1.2"/>
   </g>
   <g id="line2d_74">
    <defs>
     <path id="mf7ffa6411d" d="M 0 3 
L 0 -3 
" style="stroke: #d62728; stroke-opacity: 0.6"/>
    </defs>
    <g clip-path="url(#pd6584f8023)">
     <use xlink:href="#mf7ffa6411d" x="80.647626" y="69.031199" style="fill: #d62728; fill-opacity: 0.6; stroke: #d62728; stroke-opacity: 0.6"/>
    </g>
   </g>
   <g id="line2d_75">
    <g clip-path="url(#pd6584f8023)">
     <use xlink:href="#mf7ffa6411d" x="219.91421" y="69.031199" style="fill: #d62728; fill-opacity: 0.6; stroke: #d62728; stroke-opacity: 0.6"/>
    </g>
   </g>
   <g id="line2d_76">
    <defs>
     <path id="mff1cbabbdd" d="M 3 0 
L -3 -0 
" style="stroke: #d62728; stroke-opacity: 0.6"/>
    </defs>
    <g clip-path="url(#pd6584f8023)">
     <use xlink:href="#mff1cbabbdd" x="150.280918" y="86.039719" style="fill: #d62728; fill-opacity: 0.6; stroke: #d62728; stroke-opacity: 0.6"/>
    </g>
   </g>
   <g id="line2d_77">
    <g clip-path="url(#pd6584f8023)">
     <use xlink:href="#mff1cbabbdd" x="150.280918" y="52.022679" style="fill: #d62728; fill-opacity: 0.6; stroke: #d62728; stroke-opacity: 0.6"/>
    </g>
   </g>
   <g id="LineCollection_35">
    <path d="M 155.401351 82.305126 
L 171.800456 82.305126 
" clip-path="url(#pd6584f8023)" style="fill: none; stroke: #d62728; stroke-opacity: 0.6; stroke-width: 1.2"/>
   </g>
   <g id="LineCollection_36">
    <path d="M 163.600903 86.910481 
L 163.600903 77.699771 
" clip-path="url(#pd6584f8023)" style="fill: none; stroke: #d62728; stroke-opacity: 0.6; stroke-width: 1.2"/>
   </g>
   <g id="line2d_78">
    <g clip-path="url(#pd6584f8023)">
     <use xlink:href="#mf7ffa6411d" x="155.401351" y="82.305126" style="fill: #d62728; fill-opacity: 0.6; stroke: #d62728; stroke-opacity: 0.6"/>
    </g>
   </g>
   <g id="line2d_79">
    <g clip-path="url(#pd6584f8023)">
     <use xlink:href="#mf7ffa6411d" x="171.800456" y="82.305126" style="fill: #d62728; fill-opacity: 0.6; stroke: #d62728; stroke-opacity: 0.6"/>
    </g>
   </g>
   <g id="line2d_80">
    <g clip-path="url(#pd6584f8023)">
     <use xlink:href="#mff1cbabbdd" x="163.600903" y="86.910481" style="fill: #d62728; fill-opacity: 0.6; stroke: #d62728; stroke-opacity: 0.6"/>
    </g>
   </g>
   <g id="line2d_81">
    <g clip-path="url(#pd6584f8023)">
     <use xlink:href="#mff1cbabbdd" x="163.600903" y="77.699771" style="fill: #d62728; fill-opacity: 0.6; stroke: #d62728; stroke-opacity: 0.6"/>
    </g>
   </g>
   <g id="PathCollection_1">
    <path d="M 400.382484 242.452749 
C 401.568509 242.452749 402.706116 241.981536 403.544762 241.14289 
C 404.383408 240.304244 404.85462 239.166637 404.85462 237.980613 
C 404.85462 236.794588 404.383408 235.656981 403.544762 234.818335 
C 402.706116 233.979689 401.568509 233.508477 400.382484 233.508477 
C 399.19646 233.508477 398.058853 233.979689 397.220207 234.818335 
C 396.381561 235.656981 395.910348 236.794588 395.910348 237.980613 
C 395.910348 239.166637 396.381561 240.304244 397.220207 241.14289 
C 398.058853 241.981536 399.19646 242.452749 400.382484 242.452749 
z
" clip-path="url(#pd6584f8023)" style="fill: #1f77b4; fill-opacity: 0.7; stroke: #1f77b4; stroke-opacity: 0.7; stroke-width: 0.715542"/>
    <path d="M 402.68874 242.413335 
C 403.874764 242.413335 405.012371 241.942122 405.851017 241.103476 
C 406.689663 240.264831 407.160875 239.127223 407.160875 237.941199 
C 407.160875 236.755175 406.689663 235.617567 405.851017 234.778921 
C 405.012371 233.940275 403.874764 233.469063 402.68874 233.469063 
C 401.502715 233.469063 400.365108 233.940275 399.526462 234.778921 
C 398.687816 235.617567 398.216604 236.755175 398.216604 237.941199 
C 398.216604 239.127223 398.687816 240.264831 399.526462 241.103476 
C 400.365108 241.942122 401.502715 242.413335 402.68874 242.413335 
z
" clip-path="url(#pd6584f8023)" style="fill: #1f77b4; fill-opacity: 0.7; stroke: #1f77b4; stroke-opacity: 0.7; stroke-width: 0.715542"/>
    <path d="M 399.841878 240.687976 
L 408.78615 240.687976 
L 408.78615 231.743704 
L 399.841878 231.743704 
z
" clip-path="url(#pd6584f8023)" style="fill: #aec7e8; fill-opacity: 0.7; stroke: #aec7e8; stroke-opacity: 0.7; stroke-width: 0.715542"/>
    <path d="M 247.606339 157.478541 
L 256.550611 157.478541 
L 256.550611 148.534269 
L 247.606339 148.534269 
z
" clip-path="url(#pd6584f8023)" style="fill: #aec7e8; fill-opacity: 0.7; stroke: #aec7e8; stroke-opacity: 0.7; stroke-width: 0.715542"/>
    <path d="M 398.216965 234.830481 
L 393.744829 243.774753 
L 402.689101 243.774753 
z
" clip-path="url(#pd6584f8023)" style="fill: #ff7f0e; fill-opacity: 0.7; stroke: #ff7f0e; stroke-opacity: 0.7; stroke-width: 0.715542"/>
    <path d="M 247.792836 92.710025 
L 243.3207 101.654297 
L 252.264972 101.654297 
z
" clip-path="url(#pd6584f8023)" style="fill: #ff7f0e; fill-opacity: 0.7; stroke: #ff7f0e; stroke-opacity: 0.7; stroke-width: 0.715542"/>
    <path d="M 405.013154 260.478972 
L 411.337709 254.154417 
L 405.013154 247.829861 
L 398.688599 254.154417 
z
" clip-path="url(#pd6584f8023)" style="fill: #ffbb78; fill-opacity: 0.7; stroke: #ffbb78; stroke-opacity: 0.7; stroke-width: 0.715542"/>
    <path d="M 404.577326 265.494521 
L 410.901882 259.169966 
L 404.577326 252.84541 
L 398.252771 259.169966 
z
" clip-path="url(#pd6584f8023)" style="fill: #ffbb78; fill-opacity: 0.7; stroke: #ffbb78; stroke-opacity: 0.7; stroke-width: 0.715542"/>
    <path d="M 276.139798 63.620313 
L 275.135741 66.710483 
L 271.886544 66.710483 
L 274.5152 68.620313 
L 273.511143 71.710483 
L 276.139798 69.800653 
L 278.768454 71.710483 
L 277.764397 68.620313 
L 280.393053 66.710483 
L 277.143856 66.710483 
z
" clip-path="url(#pd6584f8023)" style="fill: #ff9896; fill-opacity: 0.7; stroke: #ff9896; stroke-opacity: 0.7; stroke-width: 0.715542"/>
    <path d="M 248.796147 50.596874 
L 247.79209 53.687044 
L 244.542893 53.687044 
L 247.171549 55.596874 
L 246.167492 58.687044 
L 248.796147 56.777214 
L 251.424803 58.687044 
L 250.420746 55.596874 
L 253.049402 53.687044 
L 249.800205 53.687044 
z
" clip-path="url(#pd6584f8023)" style="fill: #ff9896; fill-opacity: 0.7; stroke: #ff9896; stroke-opacity: 0.7; stroke-width: 0.715542"/>
    <path d="M 402.214142 164.365645 
L 404.45021 162.129577 
L 406.686278 164.365645 
L 408.922346 162.129577 
L 406.686278 159.893509 
L 408.922346 157.657441 
L 406.686278 155.421373 
L 404.45021 157.657441 
L 402.214142 155.421373 
L 399.978074 157.657441 
L 402.214142 159.893509 
L 399.978074 162.129577 
z
" clip-path="url(#pd6584f8023)" style="fill: #98df8a; fill-opacity: 0.7; stroke: #98df8a; stroke-opacity: 0.7; stroke-width: 0.715542"/>
    <path d="M 401.978069 166.216453 
L 404.214137 163.980385 
L 406.450205 166.216453 
L 408.686273 163.980385 
L 406.450205 161.744317 
L 408.686273 159.508249 
L 406.450205 157.272181 
L 404.214137 159.508249 
L 401.978069 157.272181 
L 399.742001 159.508249 
L 401.978069 161.744317 
L 399.742001 163.980385 
z
" clip-path="url(#pd6584f8023)" style="fill: #98df8a; fill-opacity: 0.7; stroke: #98df8a; stroke-opacity: 0.7; stroke-width: 0.715542"/>
    <path d="M 404.886038 238.370438 
C 406.072062 238.370438 407.20967 237.899226 408.048315 237.06058 
C 408.886961 236.221934 409.358174 235.084326 409.358174 233.898302 
C 409.358174 232.712278 408.886961 231.57467 408.048315 230.736024 
C 407.20967 229.897379 406.072062 229.426166 404.886038 229.426166 
C 403.700013 229.426166 402.562406 229.897379 401.72376 230.736024 
C 400.885114 231.57467 400.413902 232.712278 400.413902 233.898302 
C 400.413902 235.084326 400.885114 236.221934 401.72376 237.06058 
C 402.562406 237.899226 403.700013 238.370438 404.886038 238.370438 
z
" clip-path="url(#pd6584f8023)" style="fill-opacity: 0.7; stroke: #000000; stroke-opacity: 0.7; stroke-width: 0.715542"/>
    <path d="M 336.954294 226.550198 
L 339.935718 226.550198 
L 339.935718 223.568774 
L 342.917142 223.568774 
L 342.917142 220.58735 
L 339.935718 220.58735 
L 339.935718 217.605926 
L 336.954294 217.605926 
L 336.954294 220.58735 
L 333.97287 220.58735 
L 333.97287 223.568774 
L 336.954294 223.568774 
z
" clip-path="url(#pd6584f8023)" style="fill: #2ca02c; fill-opacity: 0.7; stroke: #2ca02c; stroke-opacity: 0.7; stroke-width: 0.715542"/>
    <path d="M 172.906008 108.287813 
L 175.887432 108.287813 
L 175.887432 105.306389 
L 178.868856 105.306389 
L 178.868856 102.324965 
L 175.887432 102.324965 
L 175.887432 99.343541 
L 172.906008 99.343541 
L 172.906008 102.324965 
L 169.924584 102.324965 
L 169.924584 105.306389 
L 172.906008 105.306389 
z
" clip-path="url(#pd6584f8023)" style="fill: #2ca02c; fill-opacity: 0.7; stroke: #2ca02c; stroke-opacity: 0.7; stroke-width: 0.715542"/>
    <path d="M 122.694203 68.734367 
L 124.930271 66.498299 
L 127.166339 68.734367 
L 129.402407 66.498299 
L 127.166339 64.262231 
L 129.402407 62.026163 
L 127.166339 59.790095 
L 124.930271 62.026163 
L 122.694203 59.790095 
L 120.458135 62.026163 
L 122.694203 64.262231 
L 120.458135 66.498299 
z
" clip-path="url(#pd6584f8023)" style="fill: #800080; fill-opacity: 0.7; stroke: #800080; stroke-opacity: 0.7; stroke-width: 0.715542"/>
    <path d="M 150.280918 73.503335 
L 154.753054 64.559063 
L 145.808782 64.559063 
z
" clip-path="url(#pd6584f8023)" style="fill: #d62728; fill-opacity: 0.7; stroke: #d62728; stroke-opacity: 0.7; stroke-width: 0.715542"/>
    <path d="M 163.600903 86.777262 
L 168.073039 77.83299 
L 159.128767 77.83299 
z
" clip-path="url(#pd6584f8023)" style="fill: #d62728; fill-opacity: 0.7; stroke: #d62728; stroke-opacity: 0.7; stroke-width: 0.715542"/>
   </g>
   <g id="patch_3">
    <path d="M 64.414898 273.312 
L 64.414898 7.2 
" style="fill: none; stroke: #cccccc; stroke-width: 1.25; stroke-linejoin: miter; stroke-linecap: square"/>
   </g>
   <g id="patch_4">
    <path d="M 421.534898 273.312 
L 421.534898 7.2 
" style="fill: none; stroke: #cccccc; stroke-width: 1.25; stroke-linejoin: miter; stroke-linecap: square"/>
   </g>
   <g id="patch_5">
    <path d="M 64.414898 273.312 
L 421.534898 273.312 
" style="fill: none; stroke: #cccccc; stroke-width: 1.25; stroke-linejoin: miter; stroke-linecap: square"/>
   </g>
   <g id="patch_6">
    <path d="M 64.414898 7.2 
L 421.534898 7.2 
" style="fill: none; stroke: #cccccc; stroke-width: 1.25; stroke-linejoin: miter; stroke-linecap: square"/>
   </g>
  </g>
 </g>
 <defs>
  <clipPath id="pd6584f8023">
   <rect x="64.414898" y="7.2" width="357.12" height="266.112"/>
  </clipPath>
 </defs>
</svg>
